<svg xmlns="http://www.w3.org/2000/svg">
<defs>
<font id="AlannaMunro: Tofino Black: 2016" horiz-adv-x="1360"><font-face font-family="TofinoBlack" font-weight="430" font-stretch="normal" units-per-em="1000" panose-1="2 0 0 0 0 0 0 0 0 0" ascent="1066" descent="-298" x-height="0" bbox="-148 -325 1335 1223" underline-thickness="50" underline-position="-200" unicode-range="U+0000-fb02" /><missing-glyph horiz-adv-x="651" d="M50 0 l0 702 l551 0 l0 -702 l-551 0 ZM175 171 q-23 28 -35.5 63 q-12.5 35 -12.5 75 q0 46 17 86 q17 40 46 69 q-20 28 -10 59 l-109 141 l0 -629 l104 136 ZM569 682 l-487 0 l108 -140 q17 26 53.5 42 q36.5 16 80.5 16 q44 0 80.5 -16.5 q36.5 -16.5 56.5 -42.5 l108 141 ZM461 157 q-26 -27 -61.5 -43 q-35.5 -16 -75.5 -16 q-39 0 -74 15.5 q-35 15.5 -61 42.5 l-105 -136 l484 0 l-107 137 ZM580 662 l-109 -139 q0 -1 1 -1 q14 5 29.5 6 q15.5 1 26.5 -7 q13 -9 15 -30 q2 -21 -11 -32 q-10 -7 -24 -7 q-11 0 -22 2.5 q-11 2.5 -24 6.5 q28 -29 44 -68 q16 -39 16 -84 q0 -39 -12.5 -73.5 q-12.5 -34.5 -34.5 -62.5 l105 -136 l0 625 ZM481 307 q3 -26 -6.5 -49 q-9.5 -23 -32.5 -26 q-6 -1 -14.5 -1.5 q-8.5 -0.5 -17.5 -0.5 q-12 0 -25.5 1 q-13.5 1 -21.5 6 q-12 7 -19 20.5 q-7 13.5 -9 24.5 q-1 2 -1 5 q-3 10 -11 10 q-6 0 -9 -10 q-1 -1 -1 -5 q-2 -11 -9 -24.5 q-7 -13.5 -20 -20.5 q-8 -5 -21.5 -6 q-13.5 -1 -25.5 -1 q-8 0 -17 0.5 q-9 0.5 -14 1.5 q-23 3 -33 26 q-10 23 -7 49 l0 1 l-15 14 l0 -13 q0 -39 13.5 -73 q13.5 -34 37 -59.5 q23.5 -25.5 55 -40.5 q31.5 -15 67.5 -15 q36 0 67.5 15 q31.5 15 55.5 40.5 q24 25.5 37.5 59.5 q13.5 34 13.5 73 q0 5 -0.5 8.5 q-0.5 3.5 -0.5 8.5 q-7 -6 -16 -18 l0 -1 ZM395 480 l-10 2 q-13 2 -26 4.5 q-13 2.5 -23 9.5 q-4 1 -12 1 q-36 0 -69 -15 q-10 -11 -9.5 -22 q0.5 -11 4.5 -19 q7 -14 25 -30 q18 -16 48 -28.5 q30 -12.5 72 -20 q42 -7.5 97 -4.5 q-17 65 -66 103 q-5 0 -8 1 q-15 5 -22 18 l-1 0 ZM297 306 l-1 0 q-7 4 -25 7 q-18 3 -41 3 q-29 0 -40.5 -4 q-11.5 -4 -11.5 -6 q-1 -8 0 -18.5 q1 -10.5 4 -19.5 q3 -9 9 -16 q6 -7 16 -8 q6 -1 14 -1.5 q8 -0.5 16 -0.5 q32 0 42 5 q8 5 14 15 q6 10 8 22 q3 13 -2 20 l-2 2 ZM470 306 q-1 2 -12 6 q-11 4 -40 4 q-23
<glyph glyph-name="nonmarkingreturn" unicode="" d="" /><glyph glyph-name=".null" unicode="" d="" /><glyph glyph-name="space" unicode=" " d="" /><glyph glyph-name="exclam" unicode="!" d="M57 0 l0 156 l200 0 l0 -156 l-200 0 ZM73 202 l-16 523 l200 0 l-16 -523 l-168 0 Z" /><glyph glyph-name="quotedbl" unicode="&quot;" d="M30 464 l-26 287 l210 0 l-26 -287 l-158 0 ZM285 464 l-26 287 l210 0 l-26 -287 l-158 0 Z" /><glyph glyph-name="numbersign" unicode="#" d="M363 0 l32 162 l-79 0 l-32 -162 l-161 0 l32 162 l-86 0 l0 141 l114 0 l24 119 l-91 0 l0 141 l119 0 l28 139 l161 0 l-28 -139 l79 0 l28 139 l161 0 l-28 -139 l90 0 l0 -141 l-118 0 l-24 -119 l95 0 l0 -141 l-123 0 l-32 -162 l-161 0 ZM447 422 l-79 0 l-24 -119 l79 0 l24 119 Z" /><glyph glyph-name="dollar" unicode="$" d="M231 -25 l8 62 q-58 4 -97.5 19.5 q-39.5 15.5 -64 43 q-24.5 27.5 -35 69 q-10.5 41.5 -10.5 97.5 l184 0 q0 -25 6 -41 q6 -16 15.5 -25.5 q9.5 -9.5 22 -13 q12.5 -3.5 26.5 -3.5 q35 0 54.5 12 q19.5 12 19.5 38 q0 29 -23.5 41 q-23.5 12 -59.5 19.5 q-36 7.5 -77 15.5 q-41 8 -77 29.5 q-36 21.5 -59.5 62 q-23.5 40.5 -23.5 112.5 q0 80 47 129.5 q47 49.5 152 60.5 l-8 59 l127 0 l-8 -59 q108 -10 153 -62.5 q45 -52.5 45 -154.5 l-183 0 q0 38 -18 55 q-18 17 -47 17 q-32 0 -48 -13.5 q-16 -13.5 -16 -37.5 q0 -26 24 -37.5 q24 -11.5 60 -19.5 q36 -8 78 -17.5 q42 -9.5 78 -30.5 q36 -21 60 -59 q24 -38 24 -102 q0 -91 -48.5 -142.5 q-48.5 -51.5 -162.5 -61.5 l9 -62 l-127 0 Z" /><glyph glyph-name="percent" unicode="%" d="M154 0 l460 702 l179 0 l-460 -702 l-179 0 ZM406 532 q0 -45 -9.5 -80 q-9.5 -35 -32 -59 q-22.5 -24 -58.5 -36 q-36 -12 -90 -12 q-53 0 -90 12 q-37 12 -59.5 36 q-22.5 24 -32.5 59 q-10 35 -10 80 q0 46 10 81.5 q10 35.5 32.5 60 q22.5 24.5 59.5 37 q37 12.5 90 12.5 q54 0 90 -12.5 q36 -12.5 58.5 -37 q22.5 -24.5 32 -60 q9.5 -35.5 9.5 -81.5 ZM215 451 q34 0 45.5 19.5 q11.5 19.5 11.5 61.5 q0 43 -11.5 64 q-11.5 21 -45.5 21 q-32 0 -44.5 -21 q-12.5 -21 -12.5 -64 q0 -42 12.5 -61.5 q12.5 -19.5 44.5 -19.5 ZM918 165 q0 -45 -9.5 -80 q-9.5 -35 -32 -59 q-22.5 -24 -58.5 -36 q-36 -12 -90 -12 q-53 0 -90 12 q-37 12 -59.5 36 q-22.5 24 -32.5 59 q-10 35 -10 80 q0 46 10 81.5 q10 35.5 32.5 60 q22.5 24.5 59.5 37 q37 12.5 90 12.5 q54 0 90 -12.5 q36 -12.5 58.5 -37 q22.5 -24.5 32 -60 q9.5 -35.5 9.5 -81.5 ZM727 84 q34 0 45.5 19.5 q11.5 19.5 11.5 61.5 q0 43 -11.5 64 q-11.5 21 -45.5 21 q-32 0 -44.5 -21 q-12.5 -21 -12.5 -64 q0 -42 12.5 -61.5 q12.5 -19.5 44.5 -19.5 Z" /><glyph glyph-name="ampersand" unicode="&amp;" d="M543 -6 q-6 5 -12 11 q-5 5 -12.5 12 q-7.5 7 -15.5 15 q-42 -26 -92.5 -39.5 q-50.5 -13.5 -110.5 -13.5 q-135 0 -199 60 q-64 60 -64 173 q0 42 10.5 74.5 q10.5 32.5 27 57 q16.5 24.5 36.5 41.5 q20 17 40 29 q-19 31 -29 63.5 q-10 32.5 -10 70.5 q0 92 59.5 143.5 q59.5 51.5 188.5 51.5 q69 0 116 -17 q47 -17 75.5 -48 q28.5 -31 40.5 -74.5 q12 -43.5 12 -96.5 l-190 0 q0 36 -10.5 59.5 q-10.5 23.5 -43.5 23.5 q-17 0 -27.5 -5 q-10.5 -5 -16.5 -13 q-6 -8 -8 -17.5 q-2 -9.5 -2 -18.5 q0 -28 14 -57 q14 -29 38.5 -59.5 q24.5 -30.5 57 -64 q32.5 -33.5 68.5 -71.5 l11 -12 q9 29 14 62.5 q5 33.5 5 72.5 l158 0 q0 -150 -58 -255 q35 -35 64.5 -64 q29.5 -29 51.5 -50 q26 -25 47 -44 l-234 0 ZM249 291 q-13 -14 -20.5 -31 q-7.5 -17 -7.5 -38 q0 -17 5 -34 q5 -17 17.5 -30.5 q12.5 -13.5 33 -22 q20.5 -8.5 52.5 -8.5 q17 0 33 3 q16 3 31 11 q-26 26 -52.5 53.5 q-26.5 27.5 -53.5 56.5 l-38 40 Z" /><glyph glyph-name="quotesingle" unicode="&#39;" d="M26 464 l-26 287 l210 0 l-26 -287 l-158 0 Z" /><glyph glyph-name="parenleft" unicode="(" d="M178 -194 q-35 55 -62 128 q-23 62 -42.5 150 q-19.5 88 -19.5 199 q0 111 16 198.5 q16 87.5 36 150.5 q23 72 52 128 l188 0 q-29 -58 -52 -132 q-20 -63 -36 -151 q-16 -88 -16 -194 q0 -107 19.5 -194.5 q19.5 -87.5 42.5 -150.5 q27 -74 62 -132 l-188 0 Z" /><glyph glyph-name="parenright" unicode=")" d="M10 -194 q35 58 62 132 q23 63 42.5 150.5 q19.5 87.5 19.5 194.5 q0 106 -16 194 q-16 88 -36 151 q-23 74 -52 132 l188 0 q29 -56 52 -128 q20 -63 36 -150.5 q16 -87.5 16 -198.5 q0 -111 -19.5 -199 q-19.5 -88 -42.5 -150 q-27 -73 -62 -128 l-188 0 Z" /><glyph glyph-name="asterisk" unicode="*" d="M291 354 l-54 94 l-55 -94 l-116 83 l87 84 l-112 15 l36 132 l103 -44 l-10 104 l132 0 l-10 -104 l103 44 l37 -132 l-112 -15 l87 -84 l-116 -83 Z" /><glyph glyph-name="plus" unicode="+" d="M174 113 l0 157 l-150 0 l0 130 l150 0 l0 158 l145 0 l0 -158 l150 0 l0 -130 l-150 0 l0 -157 l-145 0 Z" /><glyph glyph-name="comma" unicode="," d="M14 -153 q8 22 17 48 q8 23 16 53.5 q8 30.5 15 67.5 q8 38 11.5 64.5 q3.5 26.5 5.5 43.5 q2 19 2 31 l185 0 q-2 -17 -6 -40 q-4 -20 -10 -48.5 q-6 -28.5 -17 -66.5 q-13 -42 -25.5 -71.5 q-12.5 -29.5 -23.5 -47.5 q-12 -21 -24 -34 l-146 0 Z" /><glyph glyph-name="hyphen" unicode="-" d="M62 242 l0 151 l265 0 l0 -151 l-265 0 Z" /><glyph glyph-name="period" unicode="." d="M51 0 l0 155 l200 0 l0 -155 l-200 0 Z" /><glyph glyph-name="slash" unicode="/" d="M17 -40 l310 840 l182 0 l-309 -840 l-183 0 Z" /><glyph glyph-name="zero" unicode="0" d="M41 346 q0 97 13 168.5 q13 71.5 47 119 q34 47.5 93 71 q59 23.5 152 23.5 q92 0 151 -23.5 q59 -23.5 93 -71 q34 -47.5 47 -119 q13 -71.5 13 -168.5 q0 -90 -13 -157.5 q-13 -67.5 -47 -112.5 q-34 -45 -93 -68 q-59 -23 -151 -23 q-93 0 -152 23 q-59 23 -93 68 q-34 45 -47 112.5 q-13 67.5 -13 157.5 ZM435 346 q0 56 -4 94.5 q-4 38.5 -14 62 q-10 23.5 -27.5 34 q-17.5 10.5 -44.5 10.5 q-27 0 -44 -10.5 q-17 -10.5 -27.5 -34 q-10.5 -23.5 -14.5 -62 q-4 -38.5 -4 -94.5 q0 -98 18.5 -139 q18.5 -41 71.5 -41 q27 0 44.5 9.5 q17.5 9.5 27.5 31 q10 21.5 14 56 q4 34.5 4 83.5 Z" /><glyph glyph-name="one" unicode="1" d="M125 0 l0 531 l-122 -52 l0 159 l193 80 l139 0 l0 -718 l-210 0 Z" /><glyph glyph-name="two" unicode="2" d="M33 0 l0 162 q0 0 15.5 11 q15.5 11 42 29.5 q26.5 18.5 61 43 q34.5 24.5 72.5 51.5 q27 20 55.5 40.5 q28.5 20.5 52.5 42.5 q24 22 39.5 46 q15.5 24 15.5 51 q0 32 -16.5 54 q-16.5 22 -54.5 22 q-40 0 -57 -26 q-17 -26 -17 -74 l-215 0 q0 64 14.5 115.5 q14.5 51.5 48 87 q33.5 35.5 89 54.5 q55.5 19 137.5 19 q81 0 134.5 -18 q53.5 -18 85.5 -50.5 q32 -32.5 45.5 -76 q13.5 -43.5 13.5 -94.5 q0 -44 -14.5 -81 q-14.5 -37 -35.5 -68 q-21 -31 -45.5 -55.5 q-24.5 -24.5 -45.5 -42.5 q-20 -18 -40 -33 q-20 -15 -36 -25.5 q-16 -10.5 -27 -17 q-11 -6.5 -13 -7.5 q1 0 17.5 1 q16.5 1 41.5 2.5 q25 1.5 54.5 3 q29.5 1.5 56.5 3 q27 1.5 47.5 2.5 q20.5 1 27.5 1 l0 -173 l-550 0 Z" /><glyph glyph-name="three" unicode="3" d="M437 439 q86 -24 121 -77 q35 -53 35 -138 q0 -48 -14.5 -91.5 q-14.5 -43.5 -48.5 -75.5 q-34 -32 -89 -51 q-55 -19 -136 -19 q-81 0 -135.5 19.5 q-54.5 19.5 -88 54 q-33.5 34.5 -48 81 q-14.5 46.5 -14.5 100.5 l208 0 q0 -13 3.5 -28 q3.5 -15 11.5 -27.5 q8 -12.5 22.5 -20.5 q14.5 -8 36.5 -8 q22 0 37 7 q15 7 23.5 18 q8.5 11 12 25 q3.5 14 3.5 28 q0 18 -4 35 q-4 17 -15.5 29.5 q-11.5 12.5 -33 20 q-21.5 7.5 -55.5 7.5 q-14 0 -28.5 -1 q-14.5 -1 -27.5 -3 q-15 -2 -30 -4 l0 130 l135 93 l-276 -11 l0 173 l537 0 l0 -151 l-142 -115 Z" /><glyph glyph-name="four" unicode="4" d="M360 0 l0 106 l-339 0 l0 159 l326 440 l223 0 l0 -440 l79 0 l0 -159 l-79 0 l0 -106 l-210 0 ZM362 477 l-156 -212 l155 0 l1 212 Z" /><glyph glyph-name="five" unicode="5" d="M276 546 l-16 -107 q22 13 51.5 22 q29.5 9 70.5 9 q63 0 106.5 -19.5 q43.5 -19.5 70.5 -52.5 q27 -33 38.5 -76.5 q11.5 -43.5 11.5 -91.5 q0 -51 -14 -95 q-14 -44 -48 -77 q-34 -33 -89.5 -52 q-55.5 -19 -138.5 -19 q-82 0 -137 19 q-55 19 -88 50 q-33 31 -46.5 70 q-13.5 39 -13.5 79 l210 0 q0 -3 3 -13 q3 -10 11.5 -20 q8.5 -10 23 -18 q14.5 -8 37.5 -8 q23 0 38 7 q15 7 24 19 q9 12 12.5 27 q3.5 15 3.5 31 q0 16 -3.5 32.5 q-3.5 16.5 -12.5 30 q-9 13.5 -24 22 q-15 8.5 -38 8.5 q-23 0 -38.5 -6.5 q-15.5 -6.5 -25 -14.5 q-9.5 -8 -13.5 -15.5 q-4 -7.5 -5 -8.5 l-191 2 l36 271 l22 154 l464 0 l0 -166 l-292 7 Z" /><glyph glyph-name="six" unicode="6" d="M416 508 q0 9 -4 19.5 q-4 10.5 -12.5 19.5 q-8.5 9 -22 15.5 q-13.5 6.5 -33.5 6.5 q-17 0 -30.5 -5.5 q-13.5 -5.5 -24 -21 q-10.5 -15.5 -17.5 -43.5 q-7 -28 -11 -72 q26 14 57 23.5 q31 9.5 72 9.5 q76 0 124 -20 q48 -20 76 -53 q28 -33 38.5 -75 q10.5 -42 10.5 -86 q0 -45 -13.5 -88 q-13.5 -43 -47 -77 q-33.5 -34 -90.5 -55 q-57 -21 -144 -21 q-87 0 -145.5 21 q-58.5 21 -93.5 63 q-35 42 -49.5 104.5 q-14.5 62.5 -14.5 145.5 q0 114 16 192 q16 78 51.5 126 q35.5 48 93.5 69.5 q58 21.5 142 21.5 q81 0 134.5 -19.5 q53.5 -19.5 84.5 -51 q31 -31.5 43.5 -70.5 q12.5 -39 12.5 -79 l-203 0 ZM256 284 q4 -75 24.5 -107 q20.5 -32 63.5 -32 q43 0 61.5 26.5 q18.5 26.5 18.5 60.5 q0 38 -18 62.5 q-18 24.5 -58 24.5 q-32 0 -54 -10.5 q-22 -10.5 -38 -24.5 Z" /><glyph glyph-name="seven" unicode="7" d="M100 0 q0 54 9.5 105.5 q9.5 51.5 24.5 100 q15 48.5 34.5 92 q19.5 43.5 40.5 80.5 q48 87 109 162 l-308 -6 l0 171 l532 0 l0 -171 q-59 -81 -105 -171 q-20 -38 -39 -82 q-19 -44 -33.5 -90.5 q-14.5 -46.5 -23.5 -94.5 q-9 -48 -9 -96 l-232 0 Z" /><glyph glyph-name="eight" unicode="8" d="M523 388 q9 -1 28.5 -12.5 q19.5 -11.5 39 -33.5 q19.5 -22 34.5 -55.5 q15 -33.5 15 -78.5 q0 -51 -14 -92 q-14 -41 -48.5 -69.5 q-34.5 -28.5 -92 -43.5 q-57.5 -15 -145.5 -15 q-87 0 -145 15 q-58 15 -92 43.5 q-34 28.5 -48 69.5 q-14 41 -14 92 q0 45 14.5 78.5 q14.5 33.5 34 55.5 q19.5 22 39 33.5 q19.5 11.5 29.5 12.5 q-6 1 -21.5 9.5 q-15.5 8.5 -31.5 25.5 q-16 17 -28.5 43 q-12.5 26 -12.5 62 q0 44 13 81 q13 37 45 63.5 q32 26.5 85 41.5 q53 15 133 15 q80 0 133.5 -15 q53.5 -15 85.5 -41.5 q32 -26.5 45 -63.5 q13 -37 13 -81 q0 -36 -12.5 -62 q-12.5 -26 -28.5 -43 q-16 -17 -31.5 -25.5 q-15.5 -8.5 -21.5 -9.5 ZM340 143 q47 0 64.5 25.5 q17.5 25.5 17.5 61.5 q0 36 -17.5 62.5 q-17.5 26.5 -64.5 26.5 q-48 0 -65 -26.5 q-17 -26.5 -17 -62.5 q0 -36 17 -61.5 q17 -25.5 65 -25.5 ZM411 509 q0 38 -16 58.5 q-16 20.5 -55 20.5 q-38 0 -54.5 -20.5 q-16.5 -20.5 -16.5 -58.5 q0 -31 16.5 -50.5 q16.5 -19.5 54.5 -19.5 q39 0 55 19.5 q16 19.5 16 50.5 Z" /><glyph glyph-name="nine" unicode="9" d="M252 205 q0 -9 3 -19.5 q3 -10.5 12 -19.5 q9 -9 25 -15.5 q16 -6.5 41 -6.5 q19 0 33 5 q14 5 24 19 q10 14 16.5 39 q6.5 25 10.5 65 q-25 -14 -56 -23.5 q-31 -9.5 -71 -9.5 q-74 0 -122 19.5 q-48 19.5 -76.5 52.5 q-28.5 33 -39.5 77.5 q-11 44.5 -11 94.5 q0 46 14 90 q14 44 48 78.5 q34 34.5 90.5 55.5 q56.5 21 142.5 21 q86 0 144 -21 q58 -21 93.5 -63 q35.5 -42 50.5 -105 q15 -63 15 -145 q0 -114 -14.5 -192 q-14.5 -78 -49.5 -126 q-35 -48 -94 -69.5 q-59 -21.5 -148 -21.5 q-89 0 -144.5 20 q-55.5 20 -87 51.5 q-31.5 31.5 -42.5 71 q-11 39.5 -11 77.5 l204 0 ZM424 415 q-2 83 -22.5 118 q-20.5 35 -65.5 35 q-43 0 -61.5 -27 q-18.5 -27 -18.5 -64 q0 -46 18.5 -71.5 q18.5 -25.5 57.5 -25.5 q32 0 54 10 q22 10 38 25 Z" /><glyph glyph-name="colon" unicode=":" d="M51 0 l0 161 l200 0 l0 -161 l-200 0 ZM51 366 l0 155 l200 0 l0 -155 l-200 0 Z" /><glyph glyph-name="semicolon" unicode=";" d="M1 -153 q8 22 17 48 q8 23 16 53.5 q8 30.5 15 67.5 q8 38 11.5 64.5 q3.5 26.5 5.5 43.5 q2 19 2 31 l185 0 q-2 -17 -6 -40 q-4 -20 -10 -48.5 q-6 -28.5 -17 -66.5 q-13 -42 -25.5 -71.5 q-12.5 -29.5 -23.5 -47.5 q-12 -21 -24 -34 l-146 0 ZM63 366 l0 153 l200 0 l0 -153 l-200 0 Z" /><glyph glyph-name="less" unicode="&lt;" d="M32 250 l0 159 l458 138 l0 -153 l-308 -64 l308 -65 l0 -153 l-458 138 Z" /><glyph glyph-name="equal" unicode="=" d="M36 347 l0 132 l471 0 l0 -132 l-471 0 ZM36 151 l0 132 l471 0 l0 -132 l-471 0 Z" /><glyph glyph-name="greater" unicode="&gt;" d="M36 112 l0 153 l307 65 l-307 64 l0 153 l458 -138 l0 -159 l-458 -138 Z" /><glyph glyph-name="question" unicode="?" d="M176 0 l0 146 l200 0 l0 -146 l-200 0 ZM185 190 l0 16 q0 45 11.5 77 q11.5 32 28.5 56 q17 24 37 43 q20 19 37 38.5 q17 19.5 28.5 41.5 q11.5 22 11.5 53 q0 31 -12 53.5 q-12 22.5 -51 22.5 q-39 0 -51 -28.5 q-12 -28.5 -12 -87.5 l-197 0 q0 68 13.5 120.5 q13.5 52.5 44.5 88.5 q31 36 81 55 q50 19 123 19 q76 0 127 -17.5 q51 -17.5 81.5 -48 q30.5 -30.5 43 -71 q12.5 -40.5 12.5 -86.5 q0 -50 -12 -84.5 q-12 -34.5 -30.5 -60 q-18.5 -25.5 -40 -44.5 q-21.5 -19 -40.5 -39 q-19 -20 -33 -43.5 q-14 -23.5 -17 -57.5 l-1 -16 l-183 0 Z" /><glyph glyph-name="at" unicode="@" d="M662 -116 q-35 -13 -85 -20.5 q-50 -7.5 -124 -7.5 q-112 0 -190 31.5 q-78 31.5 -127.5 88 q-49.5 56.5 -72 135 q-22.5 78.5 -22.5 172.5 q0 89 23 166 q23 77 73 133.5 q50 56.5 128 89 q78 32.5 188 32.5 q110 0 189 -32.5 q79 -32.5 129.5 -89 q50.5 -56.5 74.5 -133.5 q24 -77 24 -166 q0 -129 -43 -196.5 q-43 -67.5 -146 -67.5 q-56 0 -89 19 q-33 19 -51 49 q-21 -21 -53.5 -34 q-32.5 -13 -81.5 -13 q-93 0 -135 61 q-42 61 -42 176 q0 114 42 175.5 q42 61.5 135 61.5 q39 0 68 -14 q29 -14 48 -31 l12 44 l128 0 l0 -308 q0 -45 11.5 -65.5 q11.5 -20.5 34.5 -20.5 q10 0 18.5 5 q8.5 5 15 22 q6.5 17 10 49.5 q3.5 32.5 3.5 87.5 q0 71 -17 129.5 q-17 58.5 -53 100 q-36 41.5 -93.5 64.5 q-57.5 23 -138.5 23 q-80 0 -136 -23 q-56 -23 -91 -64.5 q-35 -41.5 -50.5 -100 q-15.5 -58.5 -15.5 -129.5 q0 -64 12.5 -122.5 q12.5 -58.5 45 -103 q32.5 -44.5 89.5 -71 q57 -26.5 147 -26.5 q25 0 54.5 2 q29.5 2 58 6 q28.5 4 53.5 10 q25 6 42 14 l0 -108 ZM514 358 q-11 14 -27.5 25 q-16.5 11 -43.5 11 q-29 0 -46 -29.5 q-17 -29.5 -17 -87.5 q0 -58 17 -88 q17 -30 46 -30 q29 0 46 9 q17 9 25 23 l0 167 Z" /><glyph glyph-name="A" unicode="a" d="M487 0 l-30 121 l-207 0 l-32 -121 l-218 0 l266 725 l197 0 l259 -725 l-235 0 ZM359 521 l-65 -238 l123 0 l-58 238 Z" /><glyph glyph-name="B" unicode="b" d="M65 -1 l0 727 l250 0 q100 0 163.5 -11.5 q63.5 -11.5 98.5 -35.5 q35 -24 48 -60.5 q13 -36.5 13 -87.5 q0 -56 -20 -94.5 q-20 -38.5 -76 -61.5 q40 -12 64.5 -28.5 q24.5 -16.5 38 -38.5 q13.5 -22 18.5 -48 q5 -26 5 -56 q0 -54 -11.5 -93 q-11.5 -39 -49 -63.5 q-37.5 -24.5 -109 -36.5 q-71.5 -12 -191.5 -12 l-242 0 ZM309 149 q47 0 76.5 3.5 q29.5 3.5 46 12 q16.5 8.5 22.5 23 q6 14.5 6 37.5 q0 24 -6 39.5 q-6 15.5 -22.5 24.5 q-16.5 9 -46 12.5 q-29.5 3.5 -76.5 3.5 l-34 0 l0 -156 l34 0 ZM309 439 q39 0 64.5 3 q25.5 3 40 11 q14.5 8 20 21 q5.5 13 5.5 33 q0 20 -5.5 33.5 q-5.5 13.5 -20 21.5 q-14.5 8 -40 11 q-25.5 3 -64.5 3 l-34 0 l0 -137 l34 0 Z" /><glyph glyph-name="C" unicode="c" d="M450 438 q-2 39 -8.5 63.5 q-6.5 24.5 -18.5 38.5 q-12 14 -28.5 19.5 q-16.5 5.5 -38.5 5.5 q-27 0 -46 -8.5 q-19 -8.5 -31.5 -31 q-12.5 -22.5 -18 -62 q-5.5 -39.5 -5.5 -101.5 q0 -62 5.5 -101 q5.5 -39 18 -61.5 q12.5 -22.5 31.5 -31 q19 -8.5 46 -8.5 q22 0 38.5 5.5 q16.5 5.5 28.5 20 q12 14.5 18.5 40.5 q6.5 26 8.5 67 l206 0 q0 -89 -20.5 -149 q-20.5 -60 -59 -96.5 q-38.5 -36.5 -94 -52.5 q-55.5 -16 -126.5 -16 q-78 0 -137 19.5 q-59 19.5 -98.5 64.5 q-39.5 45 -59.5 118.5 q-20 73.5 -20 180.5 q0 107 20 180.5 q20 73.5 59.5 118.5 q39.5 45 98.5 65 q59 20 137 20 q70 0 126 -15.5 q56 -15.5 94.5 -51.5 q38.5 -36 59 -95 q20.5 -59 20.5 -146 l-206 0 Z" /><glyph glyph-name="D" unicode="d" d="M65 -1 l0 727 l235 0 q110 0 183 -15 q73 -15 116.5 -55.5 q43.5 -40.5 61.5 -111.5 q18 -71 18 -182 q0 -112 -17.5 -182.5 q-17.5 -70.5 -60.5 -110.5 q-43 -40 -116.5 -55 q-73.5 -15 -184.5 -15 l-235 0 ZM275 171 q59 0 96.5 4.5 q37.5 4.5 59.5 27.5 q19 20 27 57.5 q8 37.5 8 101.5 q0 63 -7 99.5 q-7 36.5 -24 56.5 q-21 25 -60 29.5 q-39 4.5 -100 5.5 l0 -382 Z" /><glyph glyph-name="E" unicode="e" d="M65 0 l0 725 l515 0 l0 -174 l-305 0 l0 -106 l255 0 l0 -156 l-255 0 l0 -115 l313 0 l0 -174 l-523 0 Z" /><glyph glyph-name="F" unicode="f" d="M65 0 l0 725 l490 0 l0 -174 l-280 0 l0 -133 l230 0 l0 -160 l-230 0 l0 -258 l-210 0 Z" /><glyph glyph-name="G" unicode="g" d="M473 246 l-105 0 l0 136 l286 0 l0 -281 q0 -8 -17 -28 q-17 -20 -53 -41 q-36 -21 -92 -37 q-56 -16 -134 -16 q-79 0 -138.5 19 q-59.5 19 -99 64 q-39.5 45 -59.5 118.5 q-20 73.5 -20 181.5 q0 108 20 181.5 q20 73.5 59.5 118.5 q39.5 45 99 64.5 q59.5 19.5 138.5 19.5 q154 0 225 -68.5 q71 -68.5 71 -219.5 l-200 0 q-3 65 -26.5 89 q-23.5 24 -69.5 24 q-28 0 -47.5 -9 q-19.5 -9 -32 -32 q-12.5 -23 -18 -63.5 q-5.5 -40.5 -5.5 -104.5 q0 -66 6 -107.5 q6 -41.5 20.5 -65 q14.5 -23.5 37.5 -32.5 q23 -9 56 -9 q49 0 73.5 13 q24.5 13 24.5 30 l0 55 Z" /><glyph glyph-name="H" unicode="h" d="M458 0 l0 273 l-183 0 l0 -273 l-210 0 l0 725 l210 0 l0 -261 l183 0 l0 261 l210 0 l0 -725 l-210 0 Z" /><glyph glyph-name="I" unicode="i" d="M65 0 l0 725 l210 0 l0 -725 l-210 0 Z" /><glyph glyph-name="J" unicode="j" d="M14 0 l0 182 l71 0 q35 0 58 5 q23 5 36.5 22 q13.5 17 19 49.5 q5.5 32.5 5.5 86.5 l-1 373 l210 0 l2 -373 q0 -97 -9 -163 q-9 -66 -42.5 -106.5 q-33.5 -40.5 -99.5 -58 q-66 -17.5 -179 -17.5 l-71 0 Z" /><glyph glyph-name="K" unicode="k" d="M486 0 l-151 247 l-60 -75 l0 -172 l-210 0 l0 725 l210 0 l0 -309 l210 309 l233 0 l-260 -324 l271 -401 l-243 0 Z" /><glyph glyph-name="L" unicode="l" d="M65 0 l0 725 l210 0 l0 -537 l230 0 l0 -188 l-440 0 Z" /><glyph glyph-name="M" unicode="m" d="M690 0 l7 443 l-151 -445 l-182 0 l-137 434 l6 -432 l-168 0 l0 718 l260 0 l145 -476 l151 476 l253 0 l-2 -718 l-182 0 Z" /><glyph glyph-name="N" unicode="n" d="M467 0 l-233 429 l6 -429 l-175 0 l0 725 l217 0 l234 -432 l-5 432 l174 0 l0 -725 l-218 0 Z" /><glyph glyph-name="O" unicode="o" d="M360 -21 q-80 0 -140 19.5 q-60 19.5 -100 64.5 q-40 45 -59.5 118.5 q-19.5 73.5 -19.5 180.5 q0 107 19.5 180.5 q19.5 73.5 59.5 118.5 q40 45 100 65 q60 20 140 20 q80 0 140 -20 q60 -20 99.5 -65 q39.5 -45 59.5 -118.5 q20 -73.5 20 -180.5 q0 -107 -20 -180.5 q-20 -73.5 -59.5 -118.5 q-39.5 -45 -99.5 -64.5 q-60 -19.5 -140 -19.5 ZM360 160 q28 0 48 8.5 q20 8.5 32.5 31 q12.5 22.5 18 62 q5.5 39.5 5.5 100.5 q0 61 -5.5 100.5 q-5.5 39.5 -18 62.5 q-12.5 23 -32.5 31.5 q-20 8.5 -48 8.5 q-29 0 -49 -8.5 q-20 -8.5 -32.5 -31.5 q-12.5 -23 -18 -62.5 q-5.5 -39.5 -5.5 -100.5 q0 -61 5.5 -100.5 q5.5 -39.5 18 -62 q12.5 -22.5 32.5 -31 q20 -8.5 49 -8.5 Z" /><glyph glyph-name="P" unicode="p" d="M65 -1 l0 727 l250 0 q106 0 174.5 -10.5 q68.5 -10.5 109 -39 q40.5 -28.5 56.5 -79 q16 -50.5 16 -131.5 q0 -81 -16 -132 q-16 -51 -56.5 -79.5 q-40.5 -28.5 -110.5 -38.5 q-70 -10 -179 -10 l-34 0 l0 -207 l-210 0 ZM309 374 q48 0 80.5 3 q32.5 3 50.5 17 q26 19 26 73 q0 52 -23 72 q-18 15 -50.5 18.5 q-32.5 3.5 -83.5 3.5 l-33 0 l-1 -187 l34 0 Z" /><glyph glyph-name="Q" unicode="q" d="M437 -16 q-18 -2 -37.5 -3.5 q-19.5 -1.5 -39.5 -1.5 q-80 0 -140 19.5 q-60 19.5 -100 64.5 q-40 45 -59.5 118.5 q-19.5 73.5 -19.5 180.5 q0 107 19.5 180.5 q19.5 73.5 59.5 118.5 q40 45 100 65 q60 20 140 20 q80 0 140 -20 q60 -20 99.5 -65 q39.5 -45 59.5 -118.5 q20 -73.5 20 -180.5 q0 -122 -25.5 -199.5 q-25.5 -77.5 -76.5 -120.5 l123 -97 l-100 -114 l-163 153 ZM360 160 q28 0 48 8.5 q20 8.5 32.5 31 q12.5 22.5 18 62 q5.5 39.5 5.5 100.5 q0 61 -5.5 100.5 q-5.5 39.5 -18 62.5 q-12.5 23 -32.5 31.5 q-20 8.5 -48 8.5 q-29 0 -49 -8.5 q-20 -8.5 -32.5 -31.5 q-12.5 -23 -18 -62.5 q-5.5 -39.5 -5.5 -100.5 q0 -61 5.5 -100.5 q5.5 -39.5 18 -62 q12.5 -22.5 32.5 -31 q20 -8.5 49 -8.5 Z" /><glyph glyph-name="R" unicode="r" d="M469 0 l-91 226 q-16 -1 -33 -1 q-17 0 -35 0 l-34 0 l0 -225 l-211 0 l0 725 l251 0 q109 0 178 -10 q69 -10 108 -37.5 q39 -27.5 53 -76.5 q14 -49 14 -126 q0 -44 -4.5 -79 q-4.5 -35 -15 -61 q-10.5 -26 -29 -45 q-18.5 -19 -45.5 -32 l128 -260 l-234 2 ZM310 387 q57 0 90.5 4 q33.5 4 48.5 24 q14 18 14 61 q0 54 -24 72 q-17 13 -48.5 15.5 q-31.5 2.5 -80.5 2.5 l-34 0 l0 -179 l34 0 Z" /><glyph glyph-name="S" unicode="s" d="M435 498 q0 42 -24.5 63.5 q-24.5 21.5 -66.5 21.5 q-45 0 -66 -17.5 q-21 -17.5 -21 -43.5 q0 -31 29 -45.5 q29 -14.5 72 -24.5 q43 -10 94 -21.5 q51 -11.5 94 -35.5 q43 -24 72 -66.5 q29 -42.5 29 -115.5 q0 -57 -16.5 -101 q-16.5 -44 -53 -73.5 q-36.5 -29.5 -95.5 -44.5 q-59 -15 -144 -15 q-83 0 -141.5 14.5 q-58.5 14.5 -95 46 q-36.5 31.5 -53 81.5 q-16.5 50 -16.5 120 l200 0 q0 -28 7.5 -46.5 q7.5 -18.5 21 -30 q13.5 -11.5 31.5 -16.5 q18 -5 38 -5 q49 0 75 16 q26 16 26 45 q0 25 -16.5 38.5 q-16.5 13.5 -43.5 22 q-27 8.5 -62 14.5 q-35 6 -71 15 q-36 9 -71 24 q-35 15 -62 41.5 q-27 26.5 -44 67.5 q-17 41 -17 102 q0 51 16.5 91 q16.5 40 51.5 68.5 q35 28.5 90.5 43.5 q55.5 15 134.5 15 q80 0 136.5 -14.5 q56.5 -14.5 92 -45.5 q35.5 -31 51.5 -78 q16 -47 16 -111 l-198 0 Z" /><glyph glyph-name="T" unicode="t" d="M184 0 l0 537 l-173 0 l0 188 l557 0 l0 -188 l-174 0 l0 -537 l-210 0 Z" /><glyph glyph-name="U" unicode="u" d="M664 725 q0 -15 0 -41.5 q0 -26.5 0 -60.5 q0 -34 0.5 -72 q0.5 -38 0.5 -76.5 q0 -38.5 0 -74 q0 -35.5 0 -63.5 q0 -96 -13.5 -163.5 q-13.5 -67.5 -47 -111 q-33.5 -43.5 -91.5 -63.5 q-58 -20 -147 -20 q-89 0 -147 20 q-58 20 -91.5 63.5 q-33.5 43.5 -47 111 q-13.5 67.5 -13.5 163.5 q0 25 0 59.5 q0 34.5 0 72.5 q0 38 -0.5 77.5 q-0.5 39.5 -0.5 74 q0 34.5 0 62 q0 27.5 0 42.5 l211 0 l0 -376 q0 -59 5 -95 q5 -36 15.5 -55.5 q10.5 -19.5 27 -26 q16.5 -6.5 40.5 -6.5 q24 0 40.5 6.5 q16.5 6.5 27 26 q10.5 19.5 15 55.5 q4.5 36 4.5 95 q0 42 0 98 q0 56 0 110.5 q0 54.5 0 100 q0 45.5 -1 67.5 l213 0 Z" /><glyph glyph-name="V" unicode="v" d="M260 0 l-260 725 l240 0 l119 -471 l119 471 l224 0 l-262 -725 l-180 0 Z" /><glyph glyph-name="W" unicode="w" d="M629 0 l-111 424 l-112 -424 l-180 0 l-226 725 l232 0 l94 -464 l105 464 l188 0 l110 -472 l97 472 l215 0 l-228 -725 l-184 0 Z" /><glyph glyph-name="X" unicode="x" d="M497 0 l-138 201 l-131 -201 l-223 0 l241 368 l-243 357 l246 0 l132 -194 l124 194 l223 0 l-231 -364 l247 -361 l-247 0 Z" /><glyph glyph-name="Y" unicode="y" d="M243 0 l0 255 l-243 470 l238 0 l120 -300 l118 300 l218 0 l-241 -472 l0 -253 l-210 0 Z" /><glyph glyph-name="Z" unicode="z" d="M24 1 l0 218 l347 331 l-329 -7 l0 181 l548 0 l0 -218 l-348 -332 l351 8 l0 -181 l-569 0 Z" /><glyph glyph-name="bracketleft" unicode="[" d="M80 -200 l0 960 l356 0 l0 -159 l-173 0 l0 -642 l173 0 l0 -159 l-356 0 Z" /><glyph glyph-name="backslash" unicode="\" d="M327 -40 l-310 840 l183 0 l309 -840 l-182 0 Z" /><glyph glyph-name="bracketright" unicode="]" d="M10 -200 l0 159 l174 0 l0 642 l-174 0 l0 159 l357 0 l0 -960 l-357 0 Z" /><glyph glyph-name="asciicircum" unicode="^" d="M288 455 l-55 144 l-56 -144 l-143 0 l131 298 l135 0 l131 -298 l-143 0 Z" /><glyph glyph-name="underscore" unicode="_" d="M62 0 l0 145 l439 0 l0 -145 l-439 0 Z" /><glyph glyph-name="a" unicode="a" d="M413 0 l-16 52 q-20 -30 -57 -48 q-37 -18 -98 -18 q-59 0 -99 10 q-40 10 -64.5 32 q-24.5 22 -35.5 55.5 q-11 33.5 -11 80.5 q0 76 38 112 q19 19 48.5 29.5 q29.5 10.5 67.5 15.5 q38 5 84.5 6.5 q46.5 1.5 101.5 1.5 q0 29 -2 49.5 q-2 20.5 -10 33.5 q-13 20 -52 20 q-37 0 -54 -18 q-17 -18 -17 -43 l-178 0 q0 16 2 36.5 q2 20.5 9.5 41.5 q7.5 21 22.5 41.5 q15 20.5 42 36.5 q27 16 67 25.5 q40 9.5 97 9.5 q82 0 133.5 -13.5 q51.5 -13.5 80.5 -38.5 q22 -19 34 -43.5 q12 -24.5 17.5 -54.5 q5.5 -30 6.5 -65 q1 -35 1 -75 l0 -118 l6 -154 l-165 0 ZM372 231 q-35 0 -61 -2.5 q-26 -2.5 -43.5 -9.5 q-17.5 -7 -26.5 -20.5 q-9 -13.5 -9 -36.5 q0 -27 16 -42.5 q16 -15.5 45 -15.5 q21 0 43.5 8 q22.5 8 35.5 34 l0 85 Z" /><glyph glyph-name="b" unicode="b" d="M57 0 l5 162 l0 598 l201 0 l-1 -258 q21 21 57 41 q36 20 90 20 q118 0 168 -72.5 q50 -72.5 50 -216.5 q0 -145 -50 -216 q-50 -71 -168 -71 q-64 0 -104.5 22.5 q-40.5 22.5 -65.5 55.5 l-17 -65 l-165 0 ZM262 195 q8 -23 28 -41.5 q20 -18.5 61 -18.5 q38 0 55 32 q17 32 17 107 q0 75 -17 107.5 q-17 32.5 -55 32.5 q-38 0 -58.5 -19.5 q-20.5 -19.5 -30.5 -40.5 l0 -159 Z" /><glyph glyph-name="c" unicode="c" d="M395 328 q-2 51 -21 70.5 q-19 19.5 -53 19.5 q-22 0 -37 -6.5 q-15 -6.5 -24.5 -23 q-9.5 -16.5 -14 -44 q-4.5 -27.5 -4.5 -69.5 q0 -42 4.5 -69.5 q4.5 -27.5 14 -44 q9.5 -16.5 24.5 -23 q15 -6.5 37 -6.5 q32 0 51.5 17 q19.5 17 21.5 60 l198 0 q-4 -57 -19.5 -99.5 q-15.5 -42.5 -47 -71 q-31.5 -28.5 -81.5 -42.5 q-50 -14 -123 -14 q-83 0 -137.5 18.5 q-54.5 18.5 -87 55.5 q-32.5 37 -46 92 q-13.5 55 -13.5 127 q0 72 13.5 127 q13.5 55 46 91.5 q32.5 36.5 87 55 q54.5 18.5 137.5 18.5 q74 0 124.5 -15 q50.5 -15 82 -45 q31.5 -30 46 -74.5 q14.5 -44.5 17.5 -104.5 l-196 0 Z" /><glyph glyph-name="d" unicode="d" d="M441 0 l-17 64 q-25 -33 -65.5 -55 q-40.5 -22 -103.5 -22 q-59 0 -100.5 17.5 q-41.5 17.5 -67.5 53.5 q-26 36 -38 90 q-12 54 -12 126 q0 72 12 126 q12 54 38 90.5 q26 36.5 67.5 54.5 q41.5 18 100.5 18 q54 0 90 -18 q36 -18 56 -37 l0 252 l201 0 l0 -598 l5 -162 l-166 0 ZM401 354 q-9 21 -29 40.5 q-20 19.5 -59 19.5 q-38 0 -55 -32.5 q-17 -32.5 -17 -107.5 q0 -75 17 -107 q17 -32 55 -32 q40 0 60.5 17.5 q20.5 17.5 28.5 40.5 l-1 161 Z" /><glyph glyph-name="e" unicode="e" d="M241 238 q1 -36 6.5 -59.5 q5.5 -23.5 15.5 -37 q10 -13.5 24 -19 q14 -5.5 33 -5.5 q42 0 59.5 19.5 q17.5 19.5 19.5 48.5 l203 0 q0 -42 -14.5 -79 q-14.5 -37 -47.5 -64.5 q-33 -27.5 -86.5 -43.5 q-53.5 -16 -132.5 -16 q-83 0 -137.5 18.5 q-54.5 18.5 -87 55 q-32.5 36.5 -46 91.5 q-13.5 55 -13.5 127 q0 72 13.5 127 q13.5 55 46 92 q32.5 37 87 56 q54.5 19 137.5 19 q79 0 133 -18.5 q54 -18.5 87 -58 q33 -39.5 47.5 -102.5 q14.5 -63 14.5 -151 l-362 0 ZM398 337 q-4 31 -10 51 q-6 20 -15.5 31.5 q-9.5 11.5 -22.5 16 q-13 4.5 -30 4.5 q-37 0 -55 -21 q-18 -21 -22 -82 l155 0 Z" /><glyph glyph-name="f" unicode="f" d="M88 0 l0 382 l-74 0 l0 139 l74 0 l0 33 q0 39 8.5 77 q8.5 38 32 68.5 q23.5 30.5 64 49 q40.5 18.5 104.5 18.5 l91 0 l0 -155 l-36 0 q-32 0 -48.5 -17 q-16.5 -17 -16.5 -64 l0 -10 l104 0 l0 -139 l-104 0 l0 -382 l-199 0 Z" /><glyph glyph-name="g" unicode="g" d="M401 41 q-25 -23 -60 -37 q-35 -14 -86 -14 q-59 0 -100.5 17.5 q-41.5 17.5 -67.5 53 q-26 35.5 -38 88.5 q-12 53 -12 125 q0 72 12 126 q12 54 38 90.5 q26 36.5 67.5 54.5 q41.5 18 100.5 18 q36 0 64 -10 q28 -10 48.5 -23.5 q20.5 -13.5 34 -28 q13.5 -14.5 20.5 -23.5 l19 72 l166 0 l-5 -167 l0 -386 q0 -22 -0.5 -48 q-0.5 -26 -7.5 -52.5 q-7 -26.5 -24 -51.5 q-17 -25 -49.5 -44 q-32.5 -19 -84.5 -30.5 q-52 -11.5 -128 -11.5 q-54 0 -93.5 9.5 q-39.5 9.5 -66.5 25 q-27 15.5 -43.5 35 q-16.5 19.5 -25.5 39.5 q-12 26 -14 46.5 q-2 20.5 -2 34.5 l184 0 q0 -7 1 -17.5 q1 -10.5 8 -20 q7 -9.5 22.5 -16.5 q15.5 -7 44.5 -7 q29 0 44.5 7 q15.5 7 23.5 21 q8 14 9 33.5 q1 19.5 1 45.5 l0 46 ZM402 354 q-9 21 -29 40.5 q-20 19.5 -60 19.5 q-38 0 -55 -32.5 q-17 -32.5 -17 -107.5 q0 -73 17 -105 q17 -32 55 -32 q39 0 59.5 16.5 q20.5 16.5 28.5 39.5 l1 161 Z" /><glyph glyph-name="h" unicode="h" d="M407 0 q0 81 1 147 q0 28 0 55.5 q0 27.5 0.5 50 q0.5 22.5 0.5 38 q0 15.5 0 19.5 q0 18 -1.5 34 q-1.5 16 -7 28 q-5.5 12 -17 19 q-11.5 7 -31.5 7 q-22 0 -38.5 -7.5 q-16.5 -7.5 -27.5 -19 q-11 -11.5 -18 -23.5 q-7 -12 -11 -21 l0 -327 l-200 0 l0 760 l199 0 l0 -264 q10 11 25.5 23 q15.5 12 36 22.5 q20.5 10.5 47 17 q26.5 6.5 59.5 6.5 q50 0 85 -12 q35 -12 57.5 -39.5 q22.5 -27.5 32.5 -72.5 q10 -45 10 -111 q0 -5 0 -21.5 q0 -16.5 -0.5 -40.5 q-0.5 -24 -0.5 -53 q0 -29 0 -59 q-1 -70 -1 -156 l-200 0 Z" /><glyph glyph-name="k" unicode="k" d="M406 0 l-113 183 l-36 -43 l0 -140 l-200 0 l0 760 l200 0 l0 -401 l128 191 l223 0 l-202 -235 l221 -315 l-221 0 Z" /><glyph glyph-name="l" unicode="l" d="M57 0 l0 760 l199 0 l0 -760 l-199 0 Z" /><glyph glyph-name="m" unicode="m" d="M723 0 q0 81 1 147 q0 28 0 55.5 q0 27.5 0.5 50 q0.5 22.5 0.5 38 q0 15.5 0 19.5 q0 18 -1 34 q-1 16 -6.5 28 q-5.5 12 -16.5 19 q-11 7 -30 7 q-33 0 -52.5 -17 q-19.5 -17 -30.5 -35 l0 -16 q0 -5 0 -21.5 q0 -16.5 -0.5 -40.5 q-0.5 -24 -0.5 -53 q0 -29 0 -59 q-1 -70 -1 -156 l-184 0 q0 81 1 147 q0 28 0 55.5 q0 27.5 0.5 50 q0.5 22.5 0.5 38 q0 15.5 0 19.5 q0 18 -1 34 q-1 16 -6.5 28 q-5.5 12 -16.5 19 q-11 7 -31 7 q-18 0 -32 -6 q-14 -6 -25 -15 q-11 -9 -18.5 -19.5 q-7.5 -10.5 -11.5 -19.5 l0 -338 l-200 0 l0 397 l-5 153 l165 0 l19 -73 q6 9 20 24 q14 15 36.5 29.5 q22.5 14.5 53 24.5 q30.5 10 70.5 10 q56 0 91.5 -18.5 q35.5 -18.5 53.5 -63.5 q8 10 23 24.5 q15 14.5 36.5 27 q21.5 12.5 50.5 21.5 q29 9 66 9 q45 0 78 -12 q33 -12 54 -39.5 q21 -27.5 31.5 -72.5 q10.5 -45 10.5 -111 q0 -5 0 -21.5 q0 -16.5 -0.5 -40.5 q-0.5 -24 -0.5 -53 q0 -29 0 -59 q-1 -70 -1 -156 l-191 0 Z" /><glyph glyph-name="n" unicode="n" d="M407 0 q0 81 1 147 q0 28 0 55.5 q0 27.5 0.5 50 q0.5 22.5 0.5 38 q0 15.5 0 19.5 q0 18 -1.5 34 q-1.5 16 -7 28 q-5.5 12 -17 19 q-11.5 7 -31.5 7 q-19 0 -34 -6 q-15 -6 -26 -15 q-11 -9 -18.5 -19.5 q-7.5 -10.5 -11.5 -19.5 l0 -338 l-200 0 l0 397 l-5 153 l165 0 l18 -72 q7 9 21 23.5 q14 14.5 36.5 29 q22.5 14.5 54 24.5 q31.5 10 72.5 10 q50 0 85 -12 q35 -12 57.5 -39.5 q22.5 -27.5 32.5 -72.5 q10 -45 10 -111 q0 -5 0 -21.5 q0 -16.5 -0.5 -40.5 q-0.5 -24 -0.5 -53 q0 -29 0 -59 q-1 -70 -1 -156 l-200 0 Z" /><glyph glyph-name="o" unicode="o" d="M323 -18 q-81 0 -135.5 19.5 q-54.5 19.5 -88 57 q-33.5 37.5 -48 92 q-14.5 54.5 -14.5 124.5 q0 69 14.5 123.5 q14.5 54.5 48 92 q33.5 37.5 88 57.5 q54.5 20 135.5 20 q81 0 136 -20 q55 -20 88.5 -57.5 q33.5 -37.5 48 -92 q14.5 -54.5 14.5 -123.5 q0 -70 -14.5 -124.5 q-14.5 -54.5 -48 -92 q-33.5 -37.5 -88.5 -57 q-55 -19.5 -136 -19.5 ZM322 132 q22 0 38 6.5 q16 6.5 25.5 23 q9.5 16.5 14 44 q4.5 27.5 4.5 69.5 q0 41 -4.5 68.5 q-4.5 27.5 -14 44 q-9.5 16.5 -25.5 23.5 q-16 7 -38 7 q-23 0 -38.5 -7 q-15.5 -7 -25 -23.5 q-9.5 -16.5 -14 -44 q-4.5 -27.5 -4.5 -68.5 q0 -42 4.5 -69.5 q4.5 -27.5 14 -44 q9.5 -16.5 25 -23 q15.5 -6.5 38.5 -6.5 Z" /><glyph glyph-name="p" unicode="p" d="M62 -240 l0 625 l-5 165 l165 0 l19 -73 q6 9 19.5 24 q13.5 15 34.5 28.5 q21 13.5 49.5 23.5 q28.5 10 64.5 10 q118 0 168 -72.5 q50 -72.5 50 -216.5 q0 -145 -50 -216 q-50 -71 -168 -71 q-51 0 -86.5 14.5 q-35.5 14.5 -60.5 37.5 l0 -194 q0 -46 1 -85 l-201 0 ZM262 195 q8 -23 28 -41.5 q20 -18.5 61 -18.5 q38 0 55 32 q17 32 17 107 q0 75 -17 107.5 q-17 32.5 -55 32.5 q-19 0 -33.5 -5.5 q-14.5 -5.5 -25.5 -14.5 q-11 -9 -18.5 -19.5 q-7.5 -10.5 -11.5 -20.5 l0 -159 Z" /><glyph glyph-name="q" unicode="q" d="M401 -240 l0 279 q-24 -23 -59.5 -37.5 q-35.5 -14.5 -86.5 -14.5 q-59 0 -100.5 17.5 q-41.5 17.5 -67.5 53.5 q-26 36 -38 90 q-12 54 -12 126 q0 72 12 126 q12 54 38 90.5 q26 36.5 67.5 54.5 q41.5 18 100.5 18 q35 0 63 -9.5 q28 -9.5 49 -23 q21 -13.5 34.5 -28 q13.5 -14.5 20.5 -24.5 l19 72 l166 0 l-5 -163 l0 -627 l-201 0 ZM402 354 q-9 21 -29 40.5 q-20 19.5 -60 19.5 q-38 0 -55 -32.5 q-17 -32.5 -17 -107.5 q0 -75 17 -107 q17 -32 55 -32 q40 0 60 17.5 q20 17.5 28 40.5 l1 161 Z" /><glyph glyph-name="r" unicode="r" d="M62 0 l0 384 l-5 166 l166 0 l21 -93 q6 15 18 34 q12 19 34.5 36 q22.5 17 57 28.5 q34.5 11.5 84.5 11.5 l0 -178 q-51 0 -84 -14.5 q-33 -14.5 -52.5 -34.5 q-19.5 -20 -28 -40 q-8.5 -20 -11.5 -32 l0 -268 l-200 0 Z" /><glyph glyph-name="s" unicode="s" d="M361 380 q0 32 -17.5 46.5 q-17.5 14.5 -53.5 14.5 q-35 0 -48.5 -12 q-13.5 -12 -13.5 -30 q0 -25 24 -36 q24 -11 60 -17.5 q36 -6.5 77.5 -13.5 q41.5 -7 77.5 -25 q36 -18 60 -51.5 q24 -33.5 24 -92.5 q0 -43 -14.5 -76.5 q-14.5 -33.5 -46.5 -57 q-32 -23.5 -82 -35.5 q-50 -12 -122 -12 q-69 0 -117.5 12.5 q-48.5 12.5 -79 38 q-30.5 25.5 -44 64 q-13.5 38.5 -13.5 90.5 l177 0 q0 -24 6 -39.5 q6 -15.5 16.5 -24 q10.5 -8.5 24 -12 q13.5 -3.5 28.5 -3.5 q32 0 52 9.5 q20 9.5 20 32.5 q0 27 -23.5 39 q-23.5 12 -59.5 19.5 q-36 7.5 -77 15.5 q-41 8 -77 26.5 q-36 18.5 -59.5 53 q-23.5 34.5 -23.5 94.5 q0 79 60.5 124 q60.5 45 189.5 45 q136 0 194 -47.5 q58 -47.5 58 -139.5 l-177 0 Z" /><glyph glyph-name="t" unicode="t" d="M329 -11 q-83 0 -131.5 18.5 q-48.5 18.5 -73.5 53 q-25 34.5 -32 82 q-7 47.5 -7 106.5 l0 161 l-73 0 l0 140 l73 0 l0 140 l199 31 l0 -171 l108 0 l0 -140 l-108 0 l0 -156 q0 -32 4 -52.5 q4 -20.5 12.5 -32 q8.5 -11.5 20.5 -15.5 q12 -4 28 -4 l49 0 l0 -161 l-69 0 Z" /><glyph glyph-name="u" unicode="u" d="M436 0 l-19 71 q-7 -10 -21 -24.5 q-14 -14.5 -36.5 -28.5 q-22.5 -14 -53.5 -24 q-31 -10 -71 -10 q-48 0 -83 12 q-35 12 -57.5 39 q-22.5 27 -33 71 q-10.5 44 -10.5 109 q0 4 0 21 q0 17 0 41.5 q0 24.5 0.5 54.5 q0.5 30 0.5 60 q1 71 2 158 l199 0 q-1 -82 -1 -148 q0 -28 -0.5 -55.5 q-0.5 -27.5 -0.5 -50 q0 -22.5 0 -37.5 q0 -15 0 -19 q0 -18 1.5 -34 q1.5 -16 7 -28.5 q5.5 -12.5 16.5 -19.5 q11 -7 31 -7 q37 0 58 19.5 q21 19.5 31 38.5 l0 341 l200 0 l0 -397 l6 -153 l-166 0 Z" /><glyph glyph-name="v" unicode="v" d="M210 0 l-208 550 l218 0 l95 -347 l91 347 l199 0 l-204 -550 l-191 0 Z" /><glyph glyph-name="w" unicode="w" d="M526 0 l-94 312 l-89 -312 l-172 0 l-171 550 l195 0 l75 -332 l87 332 l170 0 l87 -329 l73 329 l174 0 l-166 -550 l-169 0 Z" /><glyph glyph-name="x" unicode="x" d="M371 0 l-91 133 l-84 -133 l-196 0 l180 282 l-177 268 l220 0 l91 -139 l87 139 l196 0 l-183 -290 l177 -260 l-220 0 Z" /><glyph glyph-name="y" unicode="y" d="M176 -232 l68 232 l-51 0 l-191 550 l207 0 l91 -360 l105 360 l197 0 l-253 -782 l-173 0 Z" /><glyph glyph-name="z" unicode="z" d="M35 0 l0 189 l269 217 l-259 -6 l0 148 l465 0 l0 -187 l-267 -217 l267 8 l0 -152 l-475 0 Z" /><glyph glyph-name="braceleft" unicode="{" d="M449 -203 q-104 0 -166.5 9 q-62.5 9 -96.5 34 q-34 25 -45 70 q-11 45 -11 117 q0 12 0 21 q0 9 -0.5 21.5 q-0.5 12.5 -0.5 31.5 q0 19 0 51 q0 15 -3 25.5 q-3 10.5 -12.5 17.5 q-9.5 7 -26.5 10 q-17 3 -45 3 l0 142 q28 0 45 3 q17 3 26.5 9.5 q9.5 6.5 12.5 17 q3 10.5 3 25.5 l0 135 q0 72 11 115.5 q11 43.5 45.5 66.5 q34.5 23 97 30 q62.5 7 166.5 7 l0 -153 q-38 0 -62.5 -3.5 q-24.5 -3.5 -38.5 -16.5 q-14 -13 -19.5 -38 q-5.5 -25 -5.5 -68 q0 -12 0 -15.5 q0 -3.5 -0.5 -8 q-0.5 -4.5 -0.5 -16 q0 -11.5 0 -41.5 q0 -32 -11.5 -54.5 q-11.5 -22.5 -26 -37 q-14.5 -14.5 -27.5 -21.5 q-13 -7 -16 -8 q1 -1 14 -7.5 q13 -6.5 28 -21 q15 -14.5 27.5 -37 q12.5 -22.5 12.5 -54.5 q0 -15 0.5 -32.5 q0.5 -17.5 0.5 -54.5 q0 -41 5.5 -64.5 q5.5 -23.5 19.5 -36 q14 -12.5 38 -16 q24 -3.5 62 -3.5 l0 -154 Z" /><glyph glyph-name="bar" unicode="|" d="M57 -200 l0 1020 l147 0 l0 -1020 l-147 0 Z" /><glyph glyph-name="braceright" unicode="}" d="M10 -49 q38 0 62 3.5 q24 3.5 38 14.5 q14 11 19 32.5 q5 21.5 5 57.5 q0 37 0.5 60.5 q0.5 23.5 0.5 38.5 q0 31 12 53.5 q12 22.5 26.5 37 q14.5 14.5 27.5 21.5 q13 7 16 8 q-2 0 -14.5 7 q-12.5 7 -27.5 21 q-15 14 -27 37 q-12 23 -12 56 q0 27 0 41 q0 14 -0.5 23 q-0.5 9 -0.5 16 q0 7 0 19 q0 36 -5.5 57.5 q-5.5 21.5 -19.5 32.5 q-14 11 -38 14.5 q-24 3.5 -62 3.5 l0 153 q103 0 166 -7 q63 -7 97 -29 q34 -22 45.5 -63 q11.5 -41 11.5 -109 l0 -146 q0 -15 3 -25.5 q3 -10.5 12 -17 q9 -6.5 26 -9.5 q17 -3 45 -3 l0 -142 q-28 0 -45 -3 q-17 -3 -26 -10 q-9 -7 -12 -17.5 q-3 -10.5 -3 -25.5 q0 -53 -0.5 -83 q-0.5 -30 -0.5 -53 q0 -68 -11 -111 q-11 -43 -45 -67 q-34 -24 -97 -32.5 q-63 -8.5 -166 -8.5 l0 154 Z" /><glyph glyph-name="asciitilde" unicode="~" d="M560 423 q0 -44 -7 -82 q-7 -38 -25.5 -66.5 q-18.5 -28.5 -52 -45 q-33.5 -16.5 -86.5 -16.5 q-34 0 -57.5 8.5 q-23.5 8.5 -44.5 19 q-21 10.5 -42 19 q-21 8.5 -50 8.5 q-18 0 -30 -6.5 q-12 -6.5 -19.5 -15.5 q-7.5 -9 -11 -18 q-3.5 -9 -3.5 -15 l-107 0 q0 44 7 82 q7 38 25.5 66.5 q18.5 28.5 52 45 q33.5 16.5 86.5 16.5 q34 0 57.5 -8.5 q23.5 -8.5 44.5 -19 q21 -10.5 42 -19 q21 -8.5 50 -8.5 q18 0 30.5 6.5 q12.5 6.5 20 15.5 q7.5 9 11 18 q3.5 9 3.5 15 l106 0 Z" /><glyph glyph-name="nonbreakingspace" unicode=" " d="" /><glyph glyph-name="exclamdown" unicode="¡" d="M57 -175 l16 523 l168 0 l16 -523 l-200 0 ZM57 394 l0 156 l200 0 l0 -156 l-200 0 Z" /><glyph glyph-name="cent" unicode="¢" d="M253 -20 l0 80 q-62 7 -103.5 29.5 q-41.5 22.5 -66 58.5 q-24.5 36 -35 86.5 q-10.5 50.5 -10.5 114.5 q0 64 10.5 114.5 q10.5 50.5 35 86.5 q24.5 36 66 58 q41.5 22 103.5 30 l0 72 l133 0 l0 -72 q55 -6 93.5 -24 q38.5 -18 62.5 -47.5 q24 -29.5 36 -71 q12 -41.5 14 -93.5 l-196 0 q-2 51 -21 70.5 q-19 19.5 -53 19.5 q-22 0 -37 -6.5 q-15 -6.5 -24.5 -23 q-9.5 -16.5 -14 -44 q-4.5 -27.5 -4.5 -69.5 q0 -42 4.5 -69.5 q4.5 -27.5 14 -44 q9.5 -16.5 24.5 -23 q15 -6.5 37 -6.5 q32 0 51.5 17 q19.5 17 21.5 60 l198 0 q-3 -50 -15.5 -89 q-12.5 -39 -37 -67 q-24.5 -28 -62.5 -45 q-38 -17 -92 -23 l0 -79 l-133 0 Z" /><glyph glyph-name="sterling" unicode="£" d="M22 -4 l0 144 l-1 0 q23 12 41 27 q16 13 29 30.5 q13 17.5 15 40.5 l-90 0 l0 120 l57 0 q-9 16 -19 32 q-10 16 -18 33.5 q-8 17.5 -13 38.5 q-5 21 -5 48 q0 37 14.5 72.5 q14.5 35.5 47 63.5 q32.5 28 84.5 45 q52 17 127 17 q82 0 134 -18 q52 -18 81 -50.5 q29 -32.5 40 -77 q11 -44.5 11 -98.5 l-209 0 q0 34 -12.5 58 q-12.5 24 -44.5 24 q-17 0 -28 -6 q-11 -6 -17.5 -15.5 q-6.5 -9.5 -9.5 -21.5 q-3 -12 -3 -23 q0 -16 4.5 -30.5 q4.5 -14.5 12 -29.5 q7.5 -15 16.5 -30.5 q9 -15.5 17 -31.5 l159 0 l0 -120 l-136 0 q-6 -33 -24 -56 q-18 -23 -38 -38 q54 2 108 2.5 q54 0.5 98 2.5 q51 1 99 3 l0 -156 l-527 0 Z" /><glyph glyph-name="currency" unicode="¤" d="M522 57 q-31 -16 -71.5 -24.5 q-40.5 -8.5 -92.5 -8.5 q-54 0 -95.5 9.5 q-41.5 9.5 -73.5 26.5 l-59 -59 l-93 93 l63 62 q-17 35 -23.5 77 q-6.5 42 -6.5 90 q0 47 6.5 88.5 q6.5 41.5 22.5 76.5 l-60 60 l93 94 l54 -55 q32 18 74.5 28 q42.5 10 97.5 11 q52 0 92.5 -8.5 q40.5 -8.5 72.5 -25.5 l52 53 l93 -93 l-54 -55 q18 -37 25.5 -80.5 q7.5 -43.5 7.5 -93.5 q0 -49 -7.5 -92 q-7.5 -43 -24.5 -79 l55 -54 l-94 -94 l-54 53 ZM359 195 q50 0 68.5 35.5 q18.5 35.5 18.5 92.5 q0 28 -4 52.5 q-4 24.5 -14 42 q-10 17.5 -27 27.5 q-17 10 -42 10 q-25 0 -42 -10 q-17 -10 -27 -27.5 q-10 -17.5 -14 -42 q-4 -24.5 -4 -52.5 q0 -57 18.5 -92.5 q18.5 -35.5 68.5 -35.5 Z" /><glyph glyph-name="yen" unicode="¥" d="M235 0 l0 115 l-105 0 l0 99 l105 0 l0 41 l-105 0 l0 100 l62 0 l-192 370 l235 0 l115 -285 l113 285 l214 0 l-190 -370 l60 0 l0 -100 l-102 0 l0 -41 l102 0 l0 -99 l-102 0 l0 -115 l-210 0 Z" /><glyph glyph-name="brokenbar" unicode="¦" d="M57 -180 l0 425 l147 0 l0 -425 l-147 0 ZM57 395 l0 425 l147 0 l0 -425 l-147 0 Z" /><glyph glyph-name="section" unicode="§" d="M368 610 q0 32 -17 46.5 q-17 14.5 -57 14.5 q-38 0 -53 -12 q-15 -12 -15 -30 q0 -25 24.5 -35 q24.5 -10 61 -16 q36.5 -6 79.5 -13 q43 -7 79.5 -25 q36.5 -18 61 -52.5 q24.5 -34.5 24.5 -94.5 q0 -38 -17 -67.5 q-17 -29.5 -40 -52.5 q26 -19 41.5 -49.5 q15.5 -30.5 15.5 -78.5 q0 -44 -14.5 -77.5 q-14.5 -33.5 -46.5 -56.5 q-32 -23 -82.5 -35 q-50.5 -12 -122.5 -12 q-72 0 -121.5 12.5 q-49.5 12.5 -80 37.5 q-30.5 25 -43.5 63.5 q-13 38.5 -13 91.5 l177 0 q0 -48 22.5 -63.5 q22.5 -15.5 55.5 -15.5 q34 0 55 9.5 q21 9.5 21 32.5 q0 26 -24.5 37.5 q-24.5 11.5 -61 19 q-36.5 7.5 -79 15.5 q-42.5 8 -79 27 q-36.5 19 -61 53.5 q-24.5 34.5 -24.5 95.5 q0 36 17.5 65 q17.5 29 40.5 51 q-26 20 -42 51.5 q-16 31.5 -16 80.5 q0 79 61 124 q61 45 194 45 q70 0 119 -12 q49 -12 79.5 -35.5 q30.5 -23.5 44 -58.5 q13.5 -35 13.5 -81 l-177 0 ZM248 442 q-10 -12 -16 -27 q-6 -15 -6 -34 q0 -15 9 -24.5 q9 -9.5 25 -15.5 q16 -6 36.5 -9.5 q20.5 -3.5 44.5 -7.5 q9 12 15.5 25.5 q6.5 13.5 6.5 30.5 q0 15 -9.5 25 q-9.5 10 -25 17 q-15.5 7 -36.5 11.5 q-21 4.5 -44 8.5 Z" /><glyph glyph-name="copyright" unicode="©" d="M421 -40 q-103 0 -175.5 30 q-72.5 30 -118 82.5 q-45.5 52.5 -66 123 q-20.5 70.5 -20.5 152.5 q0 82 20.5 153.5 q20.5 71.5 66 125 q45.5 53.5 118 84 q72.5 30.5 175.5 30.5 q104 0 176.5 -30.5 q72.5 -30.5 117.5 -84 q45 -53.5 65.5 -125 q20.5 -71.5 20.5 -153.5 q0 -82 -20.5 -152.5 q-20.5 -70.5 -65.5 -123 q-45 -52.5 -117.5 -82.5 q-72.5 -30 -176.5 -30 ZM420 47 q81 0 134.5 24.5 q53.5 24.5 85.5 66 q32 41.5 45 96 q13 54.5 13 114.5 q0 60 -13 115.5 q-13 55.5 -45 98 q-32 42.5 -85.5 67.5 q-53.5 25 -134.5 25 q-80 0 -133.5 -25 q-53.5 -25 -85.5 -67.5 q-32 -42.5 -45 -98 q-13 -55.5 -13 -115.5 q0 -60 13 -114.5 q13 -54.5 45 -96 q32 -41.5 85.5 -66 q53.5 -24.5 133.5 -24.5 ZM472 397 q-2 42 -14.5 56.5 q-12.5 14.5 -33.5 14.5 q-14 0 -23.5 -4.5 q-9.5 -4.5 -16 -17 q-6.5 -12.5 -9.5 -35.5 q-3 -23 -3 -60 q0 -35 3 -57.5 q3 -22.5 9.5 -35.5 q6.5 -13 16 -17.5 q9.5 -4.5 23.5 -4.5 q21 0 33.5 14 q12.5 14 14.5 60 l147 0 q0 -57 -13.5 -94.5 q-13.5 -37.5 -38.5 -60.5 q-25 -23 -61 -32.5 q-36 -9.5 -82 -9.5 q-50 0 -88.5 12 q-38.5 12 -64 39.5 q-25.5 27.5 -38.5 73 q-13 45.5 -13 113.5 q0 68 13 114 q13 46 38.5 74 q25.5 28 64 40 q38.5 12 88.5 12 q45 0 81 -9.5 q36 -9.5 61.5 -32 q25.5 -22.5 39 -60 q13.5 -37.5 13.5 -92.5 l-147 0 Z" /><glyph glyph-name="ordfeminine" unicode="ª" d="M287 360 l-13 36 q-11 -21 -35 -34 q-24 -13 -67 -13 q-44 0 -73 7.5 q-29 7.5 -47 23 q-18 15.5 -25.5 39.5 q-7.5 24 -7.5 58 q0 40 14.5 62.5 q14.5 22.5 44 33.5 q29.5 11 74 13.5 q44.5 2.5 104.5 2.5 q0 36 -4.5 53 q-4.5 17 -33.5 17 q-19 0 -30 -10.5 q-11 -10.5 -11 -29.5 l-138 0 q0 17 3 40.5 q3 23.5 19.5 44.5 q16.5 21 51.5 36 q35 15 98 15 q75 0 115.5 -14 q40.5 -14 59.5 -40.5 q19 -26.5 22 -64.5 q3 -38 3 -85 l0 -81 l4 -110 l-128 0 ZM256 521 q-39 -1 -58.5 -8 q-19.5 -7 -19.5 -36 q0 -21 10 -31 q10 -10 25 -10 q11 0 23 2.5 q12 2.5 20 15.5 l0 67 Z" /><glyph glyph-name="guillemotleft" unicode="«" d="M458 71 l-117 180 l0 34 l117 187 l211 0 l-144 -205 l144 -196 l-211 0 ZM170 71 l-117 180 l0 34 l117 187 l211 0 l-144 -205 l144 -196 l-211 0 Z" /><glyph glyph-name="registered" unicode="®" d="M421 -40 q-103 0 -175.5 30 q-72.5 30 -118 82.5 q-45.5 52.5 -66 123 q-20.5 70.5 -20.5 152.5 q0 82 20.5 153.5 q20.5 71.5 66 125 q45.5 53.5 118 84 q72.5 30.5 175.5 30.5 q104 0 176.5 -30.5 q72.5 -30.5 117.5 -84 q45 -53.5 65.5 -125 q20.5 -71.5 20.5 -153.5 q0 -82 -20.5 -152.5 q-20.5 -70.5 -65.5 -123 q-45 -52.5 -117.5 -82.5 q-72.5 -30 -176.5 -30 ZM420 47 q81 0 134.5 24.5 q53.5 24.5 85.5 66 q32 41.5 45 96 q13 54.5 13 114.5 q0 60 -13 115.5 q-13 55.5 -45 98 q-32 42.5 -85.5 67.5 q-53.5 25 -134.5 25 q-80 0 -133.5 -25 q-53.5 -25 -85.5 -67.5 q-32 -42.5 -45 -98 q-13 -55.5 -13 -115.5 q0 -60 13 -114.5 q13 -54.5 45 -96 q32 -41.5 85.5 -66 q53.5 -24.5 133.5 -24.5 ZM480 136 l-53 127 l-36 0 l-12 0 l0 -127 l-145 0 l0 438 l161 0 q66 0 109.5 -6 q43.5 -6 69.5 -23 q26 -17 36.5 -47.5 q10.5 -30.5 10.5 -79.5 q0 -54 -13.5 -85.5 q-13.5 -31.5 -47.5 -47.5 l73 -151 l-153 2 ZM391 372 q46 0 66 6.5 q20 6.5 20 39.5 q0 18 -4.5 28 q-4.5 10 -15 14.5 q-10.5 4.5 -27 5.5 q-16.5 1 -39.5 1 l-12 0 l0 -95 l12 0 Z" /><glyph glyph-name="degree" unicode="°" d="M339 590 q0 -77 -40 -111.5 q-40 -34.5 -109 -34.5 q-69 0 -109.5 34.5 q-40.5 34.5 -40.5 111.5 q0 78 40.5 113.5 q40.5 35.5 109.5 35.5 q69 0 109 -35.5 q40 -35.5 40 -113.5 ZM189 536 q23 0 30.5 16 q7.5 16 7.5 38 q0 22 -7.5 39 q-7.5 17 -30.5 17 q-22 0 -30 -17 q-8 -17 -8 -39 q0 -22 8 -38 q8 -16 30 -16 Z" /><glyph glyph-name="plusminus" unicode="±" d="M325 338 l0 -102 l-145 0 l0 102 l-150 0 l0 130 l150 0 l0 101 l145 0 l0 -101 l150 0 l0 -130 l-150 0 ZM30 69 l0 132 l445 0 l0 -132 l-445 0 Z" /><glyph glyph-name="twosuperior" unicode="²" d="M19 341 l0 116 l39 26 q18 12 41.5 27.5 q23.5 15.5 49.5 32.5 q18 12 38.5 25 q20.5 13 37.5 27.5 q17 14.5 28 30 q11 15.5 11 33.5 q0 17 -9.5 32.5 q-9.5 15.5 -35.5 15.5 q-26 0 -35 -19 q-9 -19 -9 -48 l-160 0 q0 44 10 80 q10 36 33.5 62 q23.5 26 62.5 40 q39 14 98 14 q58 0 96.5 -13.5 q38.5 -13.5 61 -36.5 q22.5 -23 31.5 -53 q9 -30 9 -62 q0 -30 -10.5 -55 q-10.5 -25 -25.5 -46 q-15 -21 -32 -37 q-17 -16 -30 -27 q-26 -21 -47.5 -34 q-21.5 -13 -23.5 -15 q1 0 24 1.5 q23 1.5 51 3.5 q28 2 53.5 3.5 q25.5 1.5 32.5 1.5 l0 -126 l-390 0 Z" /><glyph glyph-name="threesuperior" unicode="³" d="M318 633 q54 -18 75.5 -53 q21.5 -35 21.5 -89 q0 -30 -10 -59 q-10 -29 -33 -51.5 q-23 -22.5 -62 -36 q-39 -13.5 -96 -13.5 q-59 0 -98 14 q-39 14 -62 38.5 q-23 24.5 -33 57 q-10 32.5 -10 68.5 l157 0 q0 -18 8.5 -36 q8.5 -18 34.5 -18 q26 0 35 15 q9 15 9 32 q0 25 -12 43.5 q-12 18.5 -54 18.5 q-9 0 -19 -1 q-10 -1 -19 -2 q-11 -2 -21 -3 l0 86 l84 59 l-187 -9 l0 126 l380 0 l0 -108 l-89 -79 Z" /><glyph glyph-name="paragraph" unicode="¶" d="M571 0 l0 614 l-72 0 l0 -614 l-147 0 l0 241 q-93 2 -153.5 14.5 q-60.5 12.5 -95.5 41.5 q-35 29 -49 78 q-14 49 -14 125 q0 76 14.5 125.5 q14.5 49.5 50 78.5 q35.5 29 95.5 41 q60 12 152 14 l0 1 l23 0 l21 0 l322 0 l0 -760 l-147 0 ZM352 612 q-36 -2 -61 -8 q-25 -6 -40.5 -18.5 q-15.5 -12.5 -22 -32.5 q-6.5 -20 -6.5 -51 q0 -31 6.5 -51.5 q6.5 -20.5 22 -33 q15.5 -12.5 40.5 -18.5 q25 -6 61 -7 l0 220 Z" /><glyph glyph-name="periodcentered" unicode="·" d="M45 225 l0 155 l200 0 l0 -155 l-200 0 Z" /><glyph glyph-name="onesuperior" unicode="¹" d="M82 341 l0 353 l-78 -32 l0 112 l137 54 l96 0 l0 -487 l-155 0 Z" /><glyph glyph-name="ordmasculine" unicode="º" d="M226 347 q-59 0 -98.5 13.5 q-39.5 13.5 -63.5 39.5 q-24 26 -34 64.5 q-10 38.5 -10 88.5 q0 50 10.5 88.5 q10.5 38.5 34.5 65 q24 26.5 63.5 40 q39.5 13.5 98.5 13.5 q58 0 97.5 -13.5 q39.5 -13.5 63.5 -40 q24 -26.5 34 -65 q10 -38.5 10 -88.5 q0 -50 -10.5 -88.5 q-10.5 -38.5 -34.5 -64.5 q-24 -26 -63.5 -39.5 q-39.5 -13.5 -97.5 -13.5 ZM227 460 q25 0 36.5 18 q11.5 18 11.5 75 q0 57 -11 75.5 q-11 18.5 -37 18.5 q-26 0 -37 -18.5 q-11 -18.5 -11 -75.5 q0 -57 11 -75 q11 -18 37 -18 Z" /><glyph glyph-name="guillemotright" unicode="»" d="M341 71 l145 196 l-145 205 l211 0 l117 -187 l0 -34 l-117 -180 l-211 0 ZM53 71 l145 196 l-145 205 l211 0 l117 -187 l0 -34 l-117 -180 l-211 0 Z" /><glyph glyph-name="questiondown" unicode="¿" d="M212 390 l0 146 l200 0 l0 -146 l-200 0 ZM572 61 q0 -68 -13.5 -120.5 q-13.5 -52.5 -44.5 -88.5 q-31 -36 -81 -55 q-50 -19 -123 -19 q-77 0 -127.5 17.5 q-50.5 17.5 -81 48 q-30.5 30.5 -43 71 q-12.5 40.5 -12.5 86.5 q0 50 12 84.5 q12 34.5 30.5 60 q18.5 25.5 40 44.5 q21.5 19 40.5 39 q19 20 33 43.5 q14 23.5 17 57.5 l1 16 l183 0 l0 -16 q0 -45 -11.5 -77 q-11.5 -32 -28.5 -56 q-17 -24 -37 -43 q-20 -19 -37 -38.5 q-17 -19.5 -28.5 -42 q-11.5 -22.5 -11.5 -52.5 q0 -31 12 -53.5 q12 -22.5 51 -22.5 q38 0 50 28.5 q12 28.5 12 87.5 l198 0 Z" /><glyph glyph-name="AE" unicode="æ" d="M465 0 l0 121 l-189 0 l-54 -121 l-222 0 l365 725 l594 0 l0 -174 l-306 0 l0 -106 l256 0 l0 -156 l-256 0 l0 -115 l314 0 l0 -174 l-502 0 ZM465 545 l-117 -262 l117 0 l0 262 Z" /><glyph glyph-name="multiply" unicode="×" d="M372 89 l-128 132 l-127 -132 l-92 88 l131 135 l-131 136 l91 87 l127 -132 l127 132 l93 -87 l-131 -136 l132 -135 l-92 -88 Z" /><glyph glyph-name="Thorn" unicode="þ" d="M65 -1 l0 727 l211 0 l0 -98 l39 0 q106 0 174.5 -10.5 q68.5 -10.5 109 -39 q40.5 -28.5 56.5 -79 q16 -50.5 16 -131.5 q0 -81 -16 -132 q-16 -51 -56.5 -79.5 q-40.5 -28.5 -110.5 -38.5 q-70 -10 -179 -10 l-34 0 l0 -109 l-210 0 ZM309 276 q42 0 72 2 q30 2 48.5 11 q18.5 9 27.5 28 q9 19 9 52 q0 34 -9 52.5 q-9 18.5 -27.5 27.5 q-18.5 9 -48.5 11 q-30 2 -72 2 l-34 0 l0 -186 l34 0 Z" /><glyph glyph-name="germandbls" unicode="ß" d="M297 150 q30 0 54 3 q24 3 40 12.5 q16 9.5 24.5 26.5 q8.5 17 8.5 46 q0 31 -11 48.5 q-11 17.5 -29 26.5 q-18 9 -40.5 11.5 q-22.5 2.5 -45.5 4.5 l0 132 q15 0 33 3.5 q18 3.5 33.5 13 q15.5 9.5 25.5 25.5 q10 16 10 40 q0 37 -18.5 56.5 q-18.5 19.5 -50.5 19.5 l0 149 q84 0 137 -15.5 q53 -15.5 83 -43.5 q30 -28 41.5 -66 q11.5 -38 11.5 -83 q0 -45 -18 -75 q-18 -30 -39 -49 q-25 -22 -56 -35 q38 -4 69 -23 q13 -8 25 -21 q12 -13 22 -31 q10 -18 16 -43 q6 -25 6 -57 q0 -59 -14.5 -102 q-14.5 -43 -52 -70.5 q-37.5 -27.5 -101.5 -40.5 q-64 -13 -164 -13 l0 150 ZM257 0 l-200 0 l0 503 q0 55 8.5 103.5 q8.5 48.5 37 84 q28.5 35.5 82.5 56.5 q54 21 145 21 l0 -149 q-73 -1 -73 -76 l0 -543 Z" /><glyph glyph-name="ae" unicode="æ" d="M572 238 q1 -36 6.5 -59.5 q5.5 -23.5 15.5 -37 q10 -13.5 24 -19 q14 -5.5 33 -5.5 q42 0 59.5 19.5 q17.5 19.5 19.5 48.5 l203 0 q0 -42 -14.5 -79 q-14.5 -37 -47.5 -64.5 q-33 -27.5 -86.5 -43.5 q-53.5 -16 -132.5 -16 q-89 0 -145.5 21 q-56.5 21 -88.5 63 q-23 -36 -65.5 -58 q-42.5 -22 -110.5 -22 q-59 0 -99 10 q-40 10 -64.5 32 q-24.5 22 -35.5 55.5 q-11 33.5 -11 80.5 q0 60 22.5 93 q22.5 33 65.5 49 q43 16 106 19.5 q63 3.5 144 3.5 q1 11 2 22 q1 11 3 22 q-3 31 -17.5 45 q-14.5 14 -49.5 14 q-37 0 -54 -18 q-17 -18 -17 -43 l-178 0 q0 16 2 36.5 q2 20.5 9.5 41.5 q7.5 21 22.5 41.5 q15 20.5 42 36.5 q27 16 67 25.5 q40 9.5 97 9.5 q54 0 92 -14 q38 -14 61 -32 q33 26 82 39 q49 13 118 13 q79 0 133 -18.5 q54 -18.5 87 -58 q33 -39.5 47.5 -102.5 q14.5 -63 14.5 -151 l-362 0 ZM378 162 q-8 31 -9 69 q-34 0 -59.5 -2.5 q-25.5 -2.5 -43 -10 q-17.5 -7.5 -26 -21 q-8.5 -13.5 -8.5 -35.5 q0 -27 16 -42.5 q16 -15.5 45 -15.5 q12 0 25 2 q13 2 24.5 8.5 q11.5 6.5 21 18 q9.5 11.5 14.5 29.5 ZM729 337 q-4 31 -10 51 q-6 20 -15.5 31.5 q-9.5 11.5 -22.5 16 q-13 4.5 -30 4.5 q-37 0 -55 -21 q-18 -21 -22 -82 l155 0 Z" /><glyph glyph-name="eth" unicode="ð" d="M608 296 q1 -5 1.5 -10.5 q0.5 -5.5 0.5 -10.5 q0 -70 -14.5 -124.5 q-14.5 -54.5 -48 -92 q-33.5 -37.5 -88.5 -57 q-55 -19.5 -136 -19.5 q-81 0 -135.5 19.5 q-54.5 19.5 -88 57 q-33.5 37.5 -48 92 q-14.5 54.5 -14.5 124.5 q0 61 14 111 q14 50 47 86 q33 36 86.5 55.5 q53.5 19.5 132.5 20.5 q-15 24 -30 45 l-72 -35 l-44 64 l66 32 q-23 26 -43.5 45 q-20.5 19 -35.5 33 q-18 16 -33 28 l239 0 q4 -4 9 -8 q4 -4 9.5 -9 q5.5 -5 12.5 -12 l69 34 l45 -63 l-61 -30 q25 -30 51.5 -70 q26.5 -40 49 -87.5 q22.5 -47.5 38.5 -102.5 q16 -55 20 -116 l1 0 ZM405 263 q0 32 -4 62.5 q-4 30.5 -12 59.5 q-7 11 -22 22 q-15 11 -44 11 q-23 0 -38.5 -7 q-15.5 -7 -25 -23.5 q-9.5 -16.5 -14 -44 q-4.5 -27.5 -4.5 -68.5 q0 -42 4.5 -69.5 q4.5 -27.5 14 -44 q9.5 -16.5 25 -23 q15.5 -6.5 38.5 -6.5 q21 0 36.5 6 q15.5 6 25 21 q9.5 15 14.5 40.5 q5 25.5 6 63.5 Z" /><glyph glyph-name="divide" unicode="÷" d="M30 269 l0 132 l473 0 l0 -132 l-473 0 ZM175 80 l0 155 l184 0 l0 -155 l-184 0 ZM175 436 l0 155 l184 0 l0 -155 l-184 0 Z" /><glyph glyph-name="thorn" unicode="þ" d="M57 -240 l0 1000 l199 0 l0 -258 q10 10 24.5 21 q14.5 11 32.5 20 q18 9 40.5 14.5 q22.5 5.5 49.5 5.5 q118 0 168 -72.5 q50 -72.5 50 -216.5 q0 -145 -50 -216 q-50 -71 -168 -71 q-51 0 -87 14.5 q-36 14.5 -60 37.5 l0 -279 l-199 0 ZM256 193 q8 -23 28.5 -40.5 q20.5 -17.5 60.5 -17.5 q38 0 55 32 q17 32 17 107 q0 75 -17 107.5 q-17 32.5 -55 32.5 q-20 0 -34.5 -5.5 q-14.5 -5.5 -25 -14.5 q-10.5 -9 -18 -19.5 q-7.5 -10.5 -11.5 -20.5 l0 -161 Z" /><glyph glyph-name="dotlessi" unicode="&#x131;" d="M50 0 l0 550 l200 0 l0 -550 l-200 0 Z" /><glyph glyph-name="kgreenlandic" unicode="&#x138;" d="M406 0 l-113 183 l-36 -43 l0 -140 l-200 0 l0 550 l200 0 l0 -191 l128 191 l223 0 l-202 -235 l221 -315 l-221 0 Z" /><glyph glyph-name="Ldot" unicode="&#x13f;" d="M65 0 l0 725 l210 0 l0 -537 l230 0 l0 -188 l-440 0 ZM305 299 l0 155 l200 0 l0 -155 l-200 0 Z" /><glyph glyph-name="ldot" unicode="&#x140;" d="M69 0 l0 760 l199 0 l0 -760 l-199 0 ZM298 293 l0 155 l200 0 l0 -155 l-200 0 Z" /><glyph glyph-name="Eng" unicode="&#x14a;" d="M684 0 q0 -42 -11 -84.5 q-11 -42.5 -42 -76 q-31 -33.5 -86.5 -54.5 q-55.5 -21 -143.5 -21 l-61 0 l0 160 l65 0 q60 0 84.5 19.5 q24.5 19.5 24.5 56.5 l-280 454 l6 -454 l-175 0 l0 725 l217 0 l241 -446 l-12 446 l174 0 l0 -725 l-1 0 Z" /><glyph glyph-name="eng" unicode="&#x14b;" d="M293 -65 q35 0 56.5 5.5 q21.5 5.5 34 17.5 q12.5 12 17.5 30 q5 18 6 43 q0 27 0.5 71.5 q0.5 44.5 1 88.5 q0.5 44 0.5 78.5 q0 34.5 0 40.5 q0 18 -1.5 34 q-1.5 16 -7 28 q-5.5 12 -17 19 q-11.5 7 -31.5 7 q-19 0 -34 -6 q-15 -6 -26 -15 q-11 -9 -18.5 -19.5 q-7.5 -10.5 -11.5 -19.5 l0 -338 l-200 0 l0 397 l-5 153 l165 0 l18 -72 q7 9 21 23.5 q14 14.5 36.5 29 q22.5 14.5 54 24.5 q31.5 10 72.5 10 q50 0 85 -12 q35 -12 57.5 -39.5 q22.5 -27.5 32.5 -72.5 q10 -45 10 -111 l0 -249 q0 -74 -7.5 -132.5 q-7.5 -58.5 -38.5 -99 q-31 -40.5 -94.5 -62 q-63.5 -21.5 -175.5 -21.5 l0 169 Z" /><glyph glyph-name="OE" unicode="&#x152;" d="M352 0 q-77 0 -135.5 17.5 q-58.5 17.5 -97.5 59.5 q-39 42 -58.5 111.5 q-19.5 69.5 -19.5 173.5 q0 104 19.5 174 q19.5 70 58.5 112 q39 42 97.5 59.5 q58.5 17.5 135.5 17.5 l586 0 l0 -174 l-305 0 l0 -106 l255 0 l0 -156 l-255 0 l0 -115 l313 0 l0 -174 l-594 0 ZM423 561 l-63 0 q-29 0 -48.5 -8.5 q-19.5 -8.5 -32.5 -31 q-13 -22.5 -18.5 -61 q-5.5 -38.5 -5.5 -98.5 q0 -60 5.5 -98 q5.5 -38 18.5 -60.5 q13 -22.5 32.5 -31 q19.5 -8.5 48.5 -8.5 l63 0 l0 397 Z" /><glyph glyph-name="oe" unicode="&#x153;" d="M599 238 q1 -36 6.5 -59.5 q5.5 -23.5 15.5 -37 q10 -13.5 24 -19 q14 -5.5 34 -5.5 q42 0 59.5 19.5 q17.5 19.5 19.5 48.5 l202 0 q0 -42 -14.5 -79 q-14.5 -37 -47.5 -64.5 q-33 -27.5 -86.5 -43.5 q-53.5 -16 -132.5 -16 q-125 0 -183 54 q-29 -26 -71.5 -40 q-42.5 -14 -101.5 -14 q-81 0 -135.5 19.5 q-54.5 19.5 -88 57 q-33.5 37.5 -48 92 q-14.5 54.5 -14.5 124.5 q0 69 14.5 123.5 q14.5 54.5 48 92 q33.5 37.5 88 57.5 q54.5 20 135.5 20 q59 0 102 -14 q43 -14 72 -41 q29 27 73.5 41 q44.5 14 108.5 14 q79 0 133 -18.5 q54 -18.5 87.5 -58 q33.5 -39.5 48 -102.5 q14.5 -63 14.5 -151 l-363 0 ZM322 132 q22 0 38 6.5 q16 6.5 25.5 23 q9.5 16.5 14 44 q4.5 27.5 4.5 69.5 q0 41 -4.5 68.5 q-4.5 27.5 -14 44 q-9.5 16.5 -25.5 23.5 q-16 7 -38 7 q-23 0 -38.5 -7 q-15.5 -7 -25 -23.5 q-9.5 -16.5 -14 -44 q-4.5 -27.5 -4.5 -68.5 q0 -42 4.5 -69.5 q4.5 -27.5 14 -44 q9.5 -16.5 25 -23 q15.5 -6.5 38.5 -6.5 ZM756 337 q-8 62 -26 82.5 q-18 20.5 -51 20.5 q-37 0 -55.5 -21 q-18.5 -21 -22.5 -82 l155 0 Z" /><glyph glyph-name="Tbar" unicode="&#x166;" d="M184 0 l0 266 l-108 0 l0 123 l108 0 l0 148 l-173 0 l0 188 l557 0 l0 -188 l-174 0 l0 -148 l105 0 l0 -123 l-105 0 l0 -266 l-210 0 Z" /><glyph glyph-name="uni018F" unicode="&#x18f;" d="M44 442 q7 85 30.5 143 q23.5 58 63 94 q39.5 36 95 51.5 q55.5 15.5 127.5 15.5 q80 0 140 -20 q60 -20 99.5 -65 q39.5 -45 59.5 -118.5 q20 -73.5 20 -180.5 q0 -107 -20 -180.5 q-20 -73.5 -59.5 -118.5 q-39.5 -45 -99.5 -64.5 q-60 -19.5 -140 -19.5 q-80 0 -140 20.5 q-60 20.5 -100 67.5 q-40 47 -59.5 123 q-19.5 76 -19.5 186 l424 0 q0 57 -6 93.5 q-6 36.5 -19 57.5 q-13 21 -32.5 29.5 q-19.5 8.5 -47.5 8.5 q-23 0 -40.5 -5.5 q-17.5 -5.5 -29.5 -19.5 q-12 -14 -20 -37.5 q-8 -23.5 -11 -60.5 l-215 0 ZM259 277 q4 -35 12 -58 q8 -23 20.5 -36 q12.5 -13 29.5 -18 q17 -5 39 -5 q22 0 39.5 5 q17.5 5 29.5 18.5 q12 13.5 20 36 q8 22.5 12 57.5 l-202 0 Z" /><glyph glyph-name="uni019D" unicode="&#x19d;" d="M494 0 l-260 444 l6 -444 l-1 0 q0 -42 -11 -84.5 q-11 -42.5 -40 -76 q-29 -33.5 -81.5 -54.5 q-52.5 -21 -134.5 -21 l-62 0 l0 160 l66 0 q50 0 69 19.5 q19 19.5 19 56.5 l1 0 l0 725 l217 0 l234 -432 l-5 432 l174 0 l0 -725 l-191 0 Z" /><glyph glyph-name="uni021A" unicode="&#x21a;" d="M184 0 l0 537 l-173 0 l0 188 l557 0 l0 -188 l-174 0 l0 -537 l-210 0 ZM131 -319 q7 17 14 38 q6 18 13.5 43 q7.5 25 15.5 56 q7 29 10.5 52.5 q3.5 23.5 5.5 40.5 q2 19 2 33 l177 0 q-3 -20 -7 -43 q-4 -20 -10 -45 q-6 -25 -16 -54 q-13 -35 -25 -58.5 q-12 -23.5 -21 -37.5 q-11 -17 -21 -25 l-138 0 Z" /><glyph glyph-name="uni0237" unicode="&#x237;" d="M-49 -65 q43 0 66.5 8 q23.5 8 34.5 26 q11 18 13 45.5 q2 27.5 2 66.5 l0 469 l200 0 l0 -469 q0 -74 -7.5 -132.5 q-7.5 -58.5 -38.5 -99 q-31 -40.5 -94.5 -62 q-63.5 -21.5 -175.5 -21.5 l0 169 Z" /><glyph glyph-name="uni0259" unicode="&#x259;" d="M38 365 q0 42 14.5 79 q14.5 37 47.5 64.5 q33 27.5 87 43.5 q54 16 133 16 q82 0 137 -18.5 q55 -18.5 87 -55 q32 -36.5 45.5 -91.5 q13.5 -55 13.5 -127 q0 -72 -13.5 -127 q-13.5 -55 -45.5 -92 q-32 -37 -87 -56 q-55 -19 -137 -19 q-79 0 -133 18.5 q-54 18.5 -87.5 58 q-33.5 39.5 -48 102 q-14.5 62.5 -14.5 151.5 l362 0 q-2 36 -7 59 q-5 23 -14.5 37 q-9.5 14 -24 19.5 q-14.5 5.5 -33.5 5.5 q-42 0 -59.5 -19.5 q-17.5 -19.5 -19.5 -48.5 l-203 0 ZM243 213 q3 -31 9.5 -51 q6.5 -20 15.5 -31.5 q9 -11.5 22 -16 q13 -4.5 30 -4.5 q36 0 54.5 21 q18.5 21 23.5 82 l-155 0 Z" /><glyph glyph-name="uni0272" unicode="&#x272;" d="M413 0 q0 81 1 147 q0 28 0 55.5 q0 27.5 0.5 50 q0.5 22.5 0.5 38 q0 15.5 0 19.5 q0 18 -1.5 34 q-1.5 16 -7 28 q-5.5 12 -17 19 q-11.5 7 -31.5 7 q-19 0 -34 -6 q-15 -6 -26 -15 q-11 -9 -18.5 -19.5 q-7.5 -10.5 -11.5 -19.5 q0 -20 -0.5 -42.5 q-0.5 -22.5 -0.5 -45.5 l0 -169 q0 -74 -7.5 -132.5 q-7.5 -58.5 -38.5 -99 q-31 -40.5 -94.5 -62 q-63.5 -21.5 -175.5 -21.5 l0 169 q43 0 66.5 8 q23.5 8 34 26 q10.5 18 12.5 45.5 q2 27.5 2 66.5 l2 229 l0 87 l-5 153 l165 0 l19 -72 q6 9 20.5 23.5 q14.5 14.5 37 29 q22.5 14.5 53.5 24.5 q31 10 72 10 q50 0 85 -12 q35 -12 57.5 -39.5 q22.5 -27.5 32.5 -72.5 q10 -45 10 -111 q0 -5 0 -21.5 q0 -16.5 -0.5 -40.5 q-0.5 -24 -1 -53 q-0.5 -29 -0.5 -59 q-1 -70 -2 -156 l-198 0 Z" /><glyph glyph-name="gravecomb" unicode="&#x300;" d="M177 612 l-124 184 l193 0 l96 -184 l-165 0 Z" /><glyph glyph-name="acutecomb" unicode="&#x301;" d="M45 612 l96 184 l193 0 l-124 -184 l-165 0 Z" /><glyph glyph-name="uni0302" unicode="&#x302;" d="M344 610 l-60 68 l-61 -68 l-158 0 l133 182 l171 0 l138 -182 l-163 0 Z" /><glyph glyph-name="tildecomb" unicode="&#x303;" d="M485 796 q0 -88 -26 -134 q-26 -46 -97 -46 q-28 0 -47 6.5 q-19 6.5 -34.5 14.5 q-15.5 8 -30.5 14.5 q-15 6.5 -35 6.5 q-15 0 -25.5 -5 q-10.5 -5 -17 -12.5 q-6.5 -7.5 -9.5 -15 q-3 -7.5 -3 -11.5 l-88 0 q0 82 27 130 q27 48 98 48 q27 0 46 -6 q19 -6 34 -13.5 q15 -7.5 30 -13.5 q15 -6 35 -6 q15 0 25.5 5 q10.5 5 17 12 q6.5 7 9.5 14.5 q3 7.5 3 11.5 l88 0 Z" /><glyph glyph-name="uni0304" unicode="&#x304;" d="M60 630 l0 128 l343 0 l0 -128 l-343 0 Z" /><glyph glyph-name="uni0306" unicode="&#x306;" d="M440 783 q0 -33 -11.5 -65 q-11.5 -32 -36.5 -56.5 q-25 -24.5 -64.5 -40 q-39.5 -15.5 -96.5 -15.5 q-57 0 -97 15.5 q-40 15.5 -64.5 40 q-24.5 24.5 -36 56.5 q-11.5 32 -11.5 65 l151 0 q0 -19 15 -34.5 q15 -15.5 43 -15.5 q28 0 43.5 15.5 q15.5 15.5 15.5 34.5 l150 0 Z" /><glyph glyph-name="uni0307" unicode="&#x307;" d="M57 611 l0 161 l200 0 l0 -161 l-200 0 Z" /><glyph glyph-name="uni0308" unicode="&#x308;" d="M77 611 l0 161 l188 0 l0 -161 l-188 0 ZM318 611 l0 161 l188 0 l0 -161 l-188 0 Z" /><glyph glyph-name="uni030A" unicode="&#x30a;" d="M326 730 q0 -61 -36.5 -96.5 q-36.5 -35.5 -99.5 -35.5 q-69 0 -106 35.5 q-37 35.5 -37 96.5 q0 61 37 96 q37 35 106 35 q63 0 99.5 -35 q36.5 -35 36.5 -96 ZM190 698 q14 0 22.5 9 q8.5 9 8.5 23 q0 14 -8.5 23 q-8.5 9 -22.5 9 q-14 0 -22.5 -9 q-8.5 -9 -8.5 -23 q0 -14 8.5 -23 q8.5 -9 22.5 -9 Z" /><glyph glyph-name="uni030B" unicode="&#x30b;" d="M51 612 l96 184 l204 0 l-123 -184 l-177 0 ZM282 612 l122 184 l204 0 l-149 -184 l-177 0 Z" /><glyph glyph-name="uni030C" unicode="&#x30c;" d="M198 610 l-133 182 l158 0 l61 -65 l60 65 l163 0 l-138 -182 l-171 0 Z" /><glyph glyph-name="uni0312" unicode="&#x312;" d="M31 598 q2 20 6 44 q4 20 10 47 q6 27 17 59 q12 37 24 62 q12 25 22 40 q11 18 21 28 l140 0 q-7 -18 -14 -41 q-6 -20 -13.5 -46.5 q-7.5 -26.5 -14.5 -58.5 q-8 -32 -11.5 -57 q-3.5 -25 -5.5 -42 q-2 -20 -2 -35 l-179 0 Z" /><glyph glyph-name="dotbelowcomb" unicode="&#x323;" d="M57 -199 l0 161 l200 0 l0 -161 l-200 0 Z" /><glyph glyph-name="uni0326" unicode="&#x326;" d="M24 -319 q7 17 14 38 q6 18 13.5 43 q7.5 25 15.5 56 q7 29 10.5 52.5 q3.5 23.5 5.5 40.5 q2 19 2 33 l177 0 q-3 -20 -7 -43 q-4 -20 -10 -45 q-6 -25 -16 -54 q-13 -35 -25 -58.5 q-12 -23.5 -21 -37.5 q-11 -17 -21 -25 l-138 0 Z" /><glyph glyph-name="uni0327" unicode="&#x327;" d="M64 -176 q0 -2 13.5 -5 q13.5 -3 51.5 -3 q28 0 42.5 11 q14.5 11 14.5 29 q0 15 -9 23.5 q-9 8.5 -22.5 13 q-13.5 4.5 -30.5 5.5 q-17 1 -33 1 l-1 0 l57 103 l158 0 l-36 -62 q18 -1 36.5 -6.5 q18.5 -5.5 33 -17.5 q14.5 -12 23.5 -31.5 q9 -19.5 9 -46.5 q0 -24 -7.5 -45.5 q-7.5 -21.5 -28.5 -38 q-21 -16.5 -57.5 -26 q-36.5 -9.5 -94.5 -9.5 q-33 0 -55.5 1.5 q-22.5 1.5 -36.5 3.5 q-17 2 -27 5 l0 95 Z" /><glyph glyph-name="uni0328" unicode="&#x328;" d="M294 -192 q0 0 -7 -5 q-7 -5 -22 -11 q-15 -6 -39.5 -11 q-24.5 -5 -59.5 -5 q-37 0 -60.5 9 q-23.5 9 -37.5 23 q-14 14 -19.5 30.5 q-5.5 16.5 -5.5 32.5 q0 33 14.5 58.5 q14.5 25.5 31.5 43.5 q20 21 47 37 l137 -4 q-1 -1 -10 -7 q-9 -6 -19 -16.5 q-10 -10.5 -18.5 -26 q-8.5 -15.5 -8.5 -35.5 q0 -11 6 -21 q6 -10 23 -10 q9 0 17.5 2 q8.5 2 15.5 4 q8 3 15 7 l0 -95 Z" /><glyph glyph-name="uni0335" unicode="&#x335;" d="M36 305 l0 103 l371 0 l0 -103 l-371 0 Z" /><glyph glyph-name="uni0336" unicode="&#x336;" d="M96 308 l0 99 l741 0 l0 -99 l-741 0 Z" /><glyph glyph-name="uni0337" unicode="&#x337;" d="M108 166 l-56 113 l415 208 l56 -113 l-415 -208 Z" /><glyph glyph-name="uni0338" unicode="&#x338;" d="M-49 89 l440 579 l97 0 l-440 -579 l-97 0 Z" /><glyph glyph-name="pi" unicode="&#x3c0;" d="M562 0 q-71 0 -111 14.5 q-40 14.5 -60.5 45 q-20.5 30.5 -25.5 77 q-5 46.5 -5 110.5 l0 205 l-89 0 l0 -452 l-145 0 l0 452 l-84 0 l0 132 l548 0 l0 -132 l-85 0 l0 -205 q0 -27 -0.5 -51 q-0.5 -24 4 -43 q4.5 -19 18 -30 q13.5 -11 41.5 -11 l31 0 l0 -112 l-37 0 Z" /><glyph glyph-name="uni2009" unicode="&#x2009;" d="" /><glyph glyph-name="endash" unicode="&#x2013;" d="M62 248 l0 145 l439 0 l0 -145 l-439 0 Z" /><glyph glyph-name="emdash" unicode="&#x2014;" d="M62 248 l0 145 l820 0 l0 -145 l-820 0 Z" /><glyph glyph-name="uni2016" unicode="&#x2016;" d="M57 -180 l0 1000 l147 0 l0 -1000 l-147 0 ZM285 -180 l0 1000 l147 0 l0 -1000 l-147 0 Z" /><glyph glyph-name="quoteleft" unicode="&#x2018;" d="M12 451 q2 17 6 40 q4 20 10 49 q6 29 17 67 q12 42 24.5 71 q12.5 29 23.5 47 q12 21 24 35 l147 0 q-8 -22 -17 -48 q-8 -23 -16.5 -54 q-8.5 -31 -15.5 -67 q-8 -39 -11 -65.5 q-3 -26.5 -5 -43.5 q-2 -19 -2 -31 l-185 0 Z" /><glyph glyph-name="quoteright" unicode="&#x2019;" d="M6 451 q8 22 17 48 q8 23 16 53.5 q8 30.5 15 67.5 q8 38 11.5 65 q3.5 27 5.5 44 q2 19 2 31 l185 0 q-2 -17 -6 -40 q-4 -20 -10 -48.5 q-6 -28.5 -17 -66.5 q-13 -42 -25.5 -71.5 q-12.5 -29.5 -23.5 -47.5 q-12 -22 -24 -35 l-146 0 Z" /><glyph glyph-name="quotedblleft" unicode="&#x201c;" d="M261 451 q2 17 6 40 q4 20 10 49 q6 29 17 67 q12 42 24.5 71 q12.5 29 23.5 47 q12 21 24 35 l147 0 q-8 -22 -17 -48 q-8 -23 -16.5 -54 q-8.5 -31 -15.5 -67 q-8 -39 -11 -65.5 q-3 -26.5 -5 -43.5 q-2 -19 -2 -31 l-185 0 ZM24 451 q2 17 6 40 q4 20 10 49 q6 29 17 67 q12 42 24.5 71 q12.5 29 23.5 47 q12 21 24 35 l147 0 q-8 -22 -17 -48 q-8 -23 -16.5 -54 q-8.5 -31 -15.5 -67 q-8 -39 -11 -65.5 q-3 -26.5 -5 -43.5 q-2 -19 -2 -31 l-185 0 Z" /><glyph glyph-name="quotedblright" unicode="&#x201d;" d="M243 451 q8 22 17 48 q8 23 16 53.5 q8 30.5 15 67.5 q8 38 11.5 65 q3.5 27 5.5 44 q2 19 2 31 l185 0 q-2 -17 -6 -40 q-4 -20 -10 -48.5 q-6 -28.5 -17 -66.5 q-13 -42 -25.5 -71.5 q-12.5 -29.5 -23.5 -47.5 q-12 -22 -24 -35 l-146 0 ZM6 451 q8 22 17 48 q8 23 16 53.5 q8 30.5 15 67.5 q8 38 11.5 65 q3.5 27 5.5 44 q2 19 2 31 l185 0 q-2 -17 -6 -40 q-4 -20 -10 -48.5 q-6 -28.5 -17 -66.5 q-13 -42 -25.5 -71.5 q-12.5 -29.5 -23.5 -47.5 q-12 -22 -24 -35 l-146 0 Z" /><glyph glyph-name="quotedblbase" unicode="&#x201e;" d="M242 -153 q8 22 17 48 q8 23 16 53.5 q8 30.5 15 67.5 q8 38 11.5 64.5 q3.5 26.5 5.5 43.5 q2 19 2 31 l185 0 q-2 -17 -6 -40 q-4 -20 -10 -48.5 q-6 -28.5 -17 -66.5 q-13 -42 -25.5 -71.5 q-12.5 -29.5 -23.5 -47.5 q-12 -21 -24 -34 l-146 0 ZM6 -153 q8 22 17 48 q8 23 16 53.5 q8 30.5 15 67.5 q8 38 11.5 64.5 q3.5 26.5 5.5 43.5 q2 19 2 31 l185 0 q-2 -17 -6 -40 q-4 -20 -10 -48.5 q-6 -28.5 -17 -66.5 q-13 -42 -25.5 -71.5 q-12.5 -29.5 -23.5 -47.5 q-12 -21 -24 -34 l-146 0 Z" /><glyph glyph-name="dagger" unicode="&#x2020;" d="M191 0 l0 489 l-137 0 l0 132 l137 0 l0 175 l147 0 l0 -175 l138 0 l0 -132 l-138 0 l0 -489 l-147 0 Z" /><glyph glyph-name="daggerdbl" unicode="&#x2021;" d="M191 0 l0 175 l-137 0 l0 132 l137 0 l0 182 l-137 0 l0 132 l137 0 l0 175 l147 0 l0 -175 l138 0 l0 -132 l-138 0 l0 -182 l138 0 l0 -132 l-138 0 l0 -175 l-147 0 Z" /><glyph glyph-name="bullet" unicode="&#x2022;" d="M123 186 l0 231 l244 0 l0 -231 l-244 0 Z" /><glyph glyph-name="ellipsis" unicode="&#x2026;" d="M51 0 l0 161 l200 0 l0 -161 l-200 0 ZM328 0 l0 161 l200 0 l0 -161 l-200 0 ZM605 0 l0 161 l200 0 l0 -161 l-200 0 Z" /><glyph glyph-name="perthousand" unicode="&#x2030;" d="M154 0 l460 702 l179 0 l-460 -702 l-179 0 ZM406 532 q0 -45 -9.5 -80 q-9.5 -35 -32 -59 q-22.5 -24 -58.5 -36 q-36 -12 -90 -12 q-53 0 -90 12 q-37 12 -59.5 36 q-22.5 24 -32.5 59 q-10 35 -10 80 q0 46 10 81.5 q10 35.5 32.5 60 q22.5 24.5 59.5 37 q37 12.5 90 12.5 q54 0 90 -12.5 q36 -12.5 58.5 -37 q22.5 -24.5 32 -60 q9.5 -35.5 9.5 -81.5 ZM215 451 q34 0 45.5 19.5 q11.5 19.5 11.5 61.5 q0 43 -11.5 64 q-11.5 21 -45.5 21 q-32 0 -44.5 -21 q-12.5 -21 -12.5 -64 q0 -42 12.5 -61.5 q12.5 -19.5 44.5 -19.5 ZM918 165 q0 -45 -9.5 -80 q-9.5 -35 -32 -59 q-22.5 -24 -58.5 -36 q-36 -12 -90 -12 q-53 0 -90 12 q-37 12 -59.5 36 q-22.5 24 -32.5 59 q-10 35 -10 80 q0 46 10 81.5 q10 35.5 32.5 60 q22.5 24.5 59.5 37 q37 12.5 90 12.5 q54 0 90 -12.5 q36 -12.5 58.5 -37 q22.5 -24.5 32 -60 q9.5 -35.5 9.5 -81.5 ZM727 84 q34 0 45.5 19.5 q11.5 19.5 11.5 61.5 q0 43 -11.5 64 q-11.5 21 -45.5 21 q-32 0 -44.5 -21 q-12.5 -21 -12.5 -64 q0 -42 12.5 -61.5 q12.5 -19.5 44.5 -19.5 ZM1335 165 q0 -45 -9.5 -80 q-9.5 -35 -32 -59 q-22.5 -24 -58.5 -36 q-36 -12 -90 -12 q-53 0 -90 12 q-37 12 -59.5 36 q-22.5 24 -32.5 59 q-10 35 -10 80 q0 46 10 81.5 q10 35.5 32.5 60 q22.5 24.5 59.5 37 q37 12.5 90 12.5 q54 0 90 -12.5 q36 -12.5 58.5 -37 q22.5 -24.5 32 -60 q9.5 -35.5 9.5 -81.5 ZM1144 84 q34 0 45.5 19.5 q11.5 19.5 11.5 61.5 q0 43 -11.5 64 q-11.5 21 -45.5 21 q-32 0 -44.5 -21 q-12.5 -21 -12.5 -64 q0 -42 12.5 -61.5 q12.5 -19.5 44.5 -19.5 Z" /><glyph glyph-name="guilsinglleft" unicode="&#x2039;" d="M170 71 l-117 180 l0 34 l117 187 l211 0 l-144 -205 l144 -196 l-211 0 Z" /><glyph glyph-name="guilsinglright" unicode="&#x203a;" d="M53 71 l145 196 l-145 205 l211 0 l117 -187 l0 -34 l-117 -180 l-211 0 Z" /><glyph glyph-name="fraction" unicode="&#x2044;" d="M-148 -40 l419 788 l160 0 l-419 -788 l-160 0 Z" /><glyph glyph-name="uni2070" unicode="&#x2070;" d="M23 575 q0 66 9.5 114.5 q9.5 48.5 33.5 81 q24 32.5 65 48.5 q41 16 104 16 q63 0 104 -16 q41 -16 65 -48.5 q24 -32.5 33.5 -81 q9.5 -48.5 9.5 -114.5 q0 -60 -9.5 -106 q-9.5 -46 -33.5 -77 q-24 -31 -65 -46.5 q-41 -15.5 -104 -15.5 q-63 0 -104 15.5 q-41 15.5 -65 46.5 q-24 31 -33.5 77 q-9.5 46 -9.5 106 ZM289 575 q0 36 -2 60.5 q-2 24.5 -8 39.5 q-6 15 -16.5 21.5 q-10.5 6.5 -27.5 6.5 q-32 0 -42.5 -28.5 q-10.5 -28.5 -10.5 -99.5 q0 -61 10.5 -86.5 q10.5 -25.5 42.5 -25.5 q34 0 44 25.5 q10 25.5 10 86.5 Z" /><glyph glyph-name="uni2074" unicode="&#x2074;" d="M243 341 l0 68 l-235 0 l0 113 l223 299 l168 0 l0 -299 l51 0 l0 -113 l-51 0 l0 -68 l-156 0 ZM243 664 l-105 -142 l105 0 l0 142 Z" /><glyph glyph-name="uni2075" unicode="&#x2075;" d="M197 707 l-10 -69 q15 8 35 14 q20 6 47 6 q44 0 73.5 -14 q29.5 -14 47.5 -36.5 q18 -22.5 25.5 -51.5 q7.5 -29 7.5 -59 q0 -32 -9.5 -62.5 q-9.5 -30.5 -33 -53.5 q-23.5 -23 -62 -37 q-38.5 -14 -96.5 -14 q-59 0 -98.5 14 q-39.5 14 -62.5 35.5 q-23 21.5 -32.5 48 q-9.5 26.5 -9.5 51.5 l158 0 q0 -2 2 -7.5 q2 -5.5 7 -12 q5 -6.5 13.5 -11.5 q8.5 -5 22.5 -5 q28 0 37 16 q9 16 9 38 q0 22 -9 40.5 q-9 18.5 -37 18.5 q-15 0 -25 -4.5 q-10 -4.5 -16 -9.5 q-7 -6 -11 -14 l-142 2 l24 181 l16 109 l327 0 l0 -119 l-198 6 Z" /><glyph glyph-name="uni2076" unicode="&#x2076;" d="M282 684 q0 12 -9.5 25.5 q-9.5 13.5 -36.5 13.5 q-11 0 -19.5 -3.5 q-8.5 -3.5 -14.5 -14 q-6 -10.5 -10 -28.5 q-4 -18 -6 -47 q17 9 36.5 15 q19.5 6 45.5 6 q52 0 86 -13 q34 -13 54 -35 q20 -22 28 -50 q8 -28 8 -58 q0 -30 -9.5 -59.5 q-9.5 -29.5 -33 -53 q-23.5 -23.5 -63.5 -38 q-40 -14.5 -101 -14.5 q-61 0 -102 14 q-41 14 -66 42.5 q-25 28.5 -35.5 71.5 q-10.5 43 -10.5 99 q0 78 11.5 131.5 q11.5 53.5 36.5 86 q25 32.5 65.5 46.5 q40.5 14 99.5 14 q57 0 94 -13.5 q37 -13.5 59.5 -35 q22.5 -21.5 31.5 -48.5 q9 -27 9 -54 l-148 0 ZM183 532 q2 -46 13.5 -67.5 q11.5 -21.5 39.5 -21.5 q28 0 38.5 18 q10.5 18 10.5 39 q0 26 -11.5 40 q-11.5 14 -35.5 14 q-19 0 -32 -6.5 q-13 -6.5 -23 -15.5 Z" /><glyph glyph-name="uni2077" unicode="&#x2077;" d="M63 341 q0 72 22.5 137 q22.5 65 50.5 116 q32 59 73 109 l-202 -6 l0 124 l367 0 l0 -124 q-38 -56 -68 -116 q-26 -51 -46.5 -114 q-20.5 -63 -20.5 -126 l-176 0 Z" /><glyph glyph-name="uni2078" unicode="&#x2078;" d="M361 603 q7 -1 20.5 -8.5 q13.5 -7.5 26.5 -22.5 q13 -15 23 -37.5 q10 -22.5 10 -53.5 q0 -35 -9.5 -62.5 q-9.5 -27.5 -33.5 -47 q-24 -19.5 -64.5 -29.5 q-40.5 -10 -101.5 -10 q-62 0 -102 10 q-40 10 -64 29.5 q-24 19.5 -33.5 47 q-9.5 27.5 -9.5 62.5 q0 31 9.5 53.5 q9.5 22.5 22.5 37.5 q13 15 26.5 22.5 q13.5 7.5 20.5 8.5 q-5 1 -15 7 q-10 6 -20.5 17.5 q-10.5 11.5 -18.5 29 q-8 17.5 -8 41.5 q0 30 9 55.5 q9 25.5 31 44 q22 18.5 59 28.5 q37 10 93 10 q57 0 93.5 -10 q36.5 -10 58.5 -28.5 q22 -18.5 30.5 -44 q8.5 -25.5 8.5 -55.5 q0 -24 -8 -41.5 q-8 -17.5 -18.5 -29 q-10.5 -11.5 -20.5 -17.5 q-10 -6 -15 -7 ZM233 442 q28 0 37.5 16.5 q9.5 16.5 9.5 39.5 q0 24 -9.5 42.5 q-9.5 18.5 -37.5 18.5 q-29 0 -38.5 -18.5 q-9.5 -18.5 -9.5 -42.5 q0 -23 9.5 -39.5 q9.5 -16.5 38.5 -16.5 ZM232 638 q25 0 34 13.5 q9 13.5 9 33.5 q0 26 -9.5 40 q-9.5 14 -33.5 14 q-24 0 -33.5 -14 q-9.5 -14 -9.5 -40 q0 -20 10 -33.5 q10 -13.5 33 -13.5 Z" /><glyph glyph-name="uni2079" unicode="&#x2079;" d="M176 481 q0 -12 10 -25 q10 -13 42 -13 q11 0 19.5 3.5 q8.5 3.5 15 12.5 q6.5 9 10.5 25.5 q4 16.5 7 42.5 q-17 -9 -36.5 -14.5 q-19.5 -5.5 -45.5 -5.5 q-51 0 -85 12 q-34 12 -54 34 q-20 22 -28 51.5 q-8 29.5 -8 64.5 q0 30 10 60 q10 30 33.5 53 q23.5 23 63.5 38 q40 15 100 15 q61 0 102 -14 q41 -14 66 -42.5 q25 -28.5 35.5 -72 q10.5 -43.5 10.5 -100.5 q0 -78 -10.5 -130.5 q-10.5 -52.5 -35.5 -85 q-25 -32.5 -66.5 -46.5 q-41.5 -14 -103.5 -14 q-62 0 -101 13.5 q-39 13.5 -61 35.5 q-22 22 -30.5 48.5 q-8.5 26.5 -8.5 53.5 l149 0 ZM285 625 q-2 51 -14.5 74 q-12.5 23 -40.5 23 q-27 0 -37 -18 q-10 -18 -10 -41 q0 -60 46 -60 q19 0 32.5 6.5 q13.5 6.5 23.5 15.5 Z" /><glyph glyph-name="Euro" unicode="&#x20ac;" d="M601 186 q-2 -45 -18 -84 q-16 -39 -46.5 -68 q-30.5 -29 -77.5 -45.5 q-47 -16.5 -111 -16.5 q-71 0 -122 17 q-51 17 -85.5 49 q-34.5 32 -55 78 q-20.5 46 -29.5 105 l-44 0 l0 101 l36 0 l0 28 l0 25 l-36 0 l0 101 l44 0 q9 59 29 106 q20 47 55 80 q35 33 86 50.5 q51 17.5 122 17.5 q66 0 113.5 -18 q47.5 -18 79 -48.5 q31.5 -30.5 46.5 -72 q15 -41.5 17 -88.5 l-173 0 q-1 10 -7 21 q-6 11 -16.5 20 q-10.5 9 -25.5 15 q-15 6 -34 6 q-36 0 -57 -23.5 q-21 -23.5 -32 -65.5 l184 0 l0 -101 l-196 0 l0 -25 l0 -28 l196 0 l0 -101 l-183 0 q11 -41 32 -62.5 q21 -21.5 56 -21.5 q34 0 56.5 15.5 q22.5 15.5 24.5 33.5 l172 0 Z" /><glyph glyph-name="uni20BD" unicode="&#x20bd;" d="M288 95 l0 -96 l-210 0 l0 96 l-66 0 l0 127 l66 0 l0 52 l-66 0 l0 153 l66 0 l0 299 l229 0 q93 0 155.5 -9.5 q62.5 -9.5 101 -34.5 q38.5 -25 54.5 -68.5 q16 -43.5 16 -110.5 q0 -70 -16 -114.5 q-16 -44.5 -54.5 -70 q-38.5 -25.5 -102.5 -35 q-64 -9.5 -160 -9.5 l-13 0 l0 -52 l139 0 l0 -127 l-139 0 ZM301 426 q36 0 62 2 q26 2 43.5 9.5 q17.5 7.5 26 23.5 q8.5 16 8.5 44 q0 28 -8.5 44 q-8.5 16 -26 23.5 q-17.5 7.5 -43.5 9.5 q-26 2 -62 2 l-12 0 l-1 -158 l13 0 Z" /><glyph glyph-name="uni2116" unicode="&#x2116;" d="M467 0 l-233 429 l6 -429 l-175 0 l0 725 l217 0 l234 -432 l-5 432 l174 0 l0 -725 l-218 0 ZM1006 193 q-67 0 -111.5 15.5 q-44.5 15.5 -71.5 46 q-27 30.5 -38.5 75 q-11.5 44.5 -11.5 101.5 q0 57 11.5 101.5 q11.5 44.5 38.5 75 q27 30.5 71.5 46.5 q44.5 16 111.5 16 q67 0 112 -16 q45 -16 72 -46.5 q27 -30.5 38.5 -75 q11.5 -44.5 11.5 -101.5 q0 -57 -11.5 -101.5 q-11.5 -44.5 -38.5 -75 q-27 -30.5 -72 -46 q-45 -15.5 -112 -15.5 ZM785 0 l0 145 l450 0 l0 -145 l-450 0 ZM1005 322 q33 0 47 23 q14 23 14 86 q0 63 -14 86 q-14 23 -47 23 q-32 0 -45.5 -23 q-13.5 -23 -13.5 -86 q0 -63 13.5 -86 q13.5 -23 45.5 -23 Z" /><glyph glyph-name="uni2117" unicode="&#x2117;" d="M421 -40 q-103 0 -175.5 30 q-72.5 30 -118 82.5 q-45.5 52.5 -66 123 q-20.5 70.5 -20.5 152.5 q0 82 20.5 153.5 q20.5 71.5 66 125 q45.5 53.5 118 84 q72.5 30.5 175.5 30.5 q104 0 176.5 -30.5 q72.5 -30.5 117.5 -84 q45 -53.5 65.5 -125 q20.5 -71.5 20.5 -153.5 q0 -82 -20.5 -152.5 q-20.5 -70.5 -65.5 -123 q-45 -52.5 -117.5 -82.5 q-72.5 -30 -176.5 -30 ZM420 47 q81 0 134.5 24.5 q53.5 24.5 85.5 66 q32 41.5 45 96 q13 54.5 13 114.5 q0 60 -13 115.5 q-13 55.5 -45 98 q-32 42.5 -85.5 67.5 q-53.5 25 -134.5 25 q-80 0 -133.5 -25 q-53.5 -25 -85.5 -67.5 q-32 -42.5 -45 -98 q-13 -55.5 -13 -115.5 q0 -60 13 -114.5 q13 -54.5 45 -96 q32 -41.5 85.5 -66 q53.5 -24.5 133.5 -24.5 ZM247 131 l0 438 l161 0 q66 0 109.5 -6.5 q43.5 -6.5 69.5 -24.5 q26 -18 36.5 -51 q10.5 -33 10.5 -85 q0 -52 -10.5 -84.5 q-10.5 -32.5 -37 -50.5 q-26.5 -18 -71 -24 q-44.5 -6 -111.5 -6 l-12 0 l0 -106 l-145 0 ZM404 347 q23 0 39.5 1 q16.5 1 27 6.5 q10.5 5.5 15 17 q4.5 11.5 4.5 31.5 q0 21 -4.5 33 q-4.5 12 -15 18 q-10.5 6 -27 7 q-16.5 1 -39.5 1 l-12 0 l0 -115 l12 0 Z" /><glyph glyph-name="uni2120" unicode="&#x2120;" d="M668 376 l3 206 l-70 -207 l-90 0 l-64 201 l3 -200 l-83 0 l0 346 l126 0 l70 -227 l72 227 l124 0 l-1 -346 l-90 0 ZM225 615 q0 41 -43 41 q-21 0 -32 -8 q-11 -8 -11 -21 q0 -16 14 -23 q14 -7 35 -11.5 q21 -4.5 45 -9 q24 -4.5 45 -16 q21 -11.5 35 -32.5 q14 -21 14 -57 q0 -56 -33.5 -84.5 q-33.5 -28.5 -115.5 -28.5 q-41 0 -69 7 q-28 7 -45 22.5 q-17 15.5 -24.5 39.5 q-7.5 24 -7.5 58 l96 0 q0 -27 13.5 -37.5 q13.5 -10.5 33.5 -10.5 q21 0 34 7.5 q13 7.5 13 21.5 q0 18 -13.5 25.5 q-13.5 7.5 -34.5 11.5 q-21 4 -45 8.5 q-24 4.5 -44.5 16 q-20.5 11.5 -34.5 33.5 q-14 22 -14 63 q1 49 33 77 q32 28 109 28 q80 0 111 -29.5 q31 -29.5 31 -91.5 l-95 0 Z" /><glyph glyph-name="trademark" unicode="&#x2122;" d="M630 376 l3 206 l-70 -207 l-90 0 l-64 201 l3 -200 l-83 0 l0 346 l127 0 l69 -226 l72 226 l124 0 l-1 -346 l-90 0 ZM107 376 l0 258 l-84 0 l0 91 l269 0 l0 -91 l-84 0 l0 -258 l-101 0 Z" /><glyph glyph-name="arrowleft" unicode="&#x2190;" d="M350 205 l132 -104 l-104 -120 l-354 309 l354 315 l104 -119 l-134 -106 l364 14 l0 -202 l-362 13 Z" /><glyph glyph-name="arrowup" unicode="&#x2191;" d="M236 -30 l13 363 l-105 -133 l-120 103 l309 354 l315 -354 l-120 -103 l-105 131 l14 -361 l-201 0 Z" /><glyph glyph-name="arrowright" unicode="&#x2192;" d="M711 304 l-354 -315 l-103 120 l133 105 l-363 -13 l0 201 l363 -14 l-132 106 l103 119 l354 -309 l-1 0 Z" /><glyph glyph-name="arrowdown" unicode="&#x2193;" d="M339 -32 l0 -1 l0 1 l-315 353 l120 104 l105 -134 l-13 364 l201 0 l-14 -363 l105 132 l120 -103 l-308 -353 l0 -1 l-1 1 Z" /><glyph glyph-name="arrowboth" unicode="&#x2194;" d="M698 -19 l-104 120 l140 111 l-391 -1 l139 -110 l-104 -120 l-354 309 l354 315 l104 -119 l-141 -111 l393 -1 l-141 112 l104 119 l354 -315 l1 0 l-354 -309 Z" /><glyph glyph-name="arrowupdn" unicode="&#x2195;" d="M24 138 l120 104 l112 -141 l-1 393 l-111 -140 l-120 104 l309 353 l316 -354 l-120 -104 l-111 140 l0 -391 l111 140 l120 -103 l-316 -355 l-309 354 Z" /><glyph glyph-name="uni2196" unicode="&#x2196;" d="M204 258 l20 -169 l-158 -11 l-32 469 l474 -27 l-12 -158 l-169 19 l267 -247 l-142 -143 l-248 267 Z" /><glyph glyph-name="uni2197" unicode="&#x2197;" d="M384 89 l19 168 l-246 -266 l-143 142 l266 247 l-168 -19 l-12 158 l469 32 l-27 -474 l-158 12 Z" /><glyph glyph-name="uni2198" unicode="&#x2198;" d="M100 43 l12 159 l167 -20 l-265 247 l142 142 l247 -267 l-19 169 l157 12 l32 -469 l-473 27 Z" /><glyph glyph-name="uni2199" unicode="&#x2199;" d="M34 12 l27 473 l158 -11 l-20 -170 l248 267 l142 -142 l-267 -247 l169 19 l12 -158 l-469 -31 Z" /><glyph glyph-name="minus" unicode="&#x2212;" d="M24 269 l0 132 l445 0 l0 -132 l-445 0 Z" /><glyph glyph-name="infinity" unicode="&#x221e;" d="M428 220 q-18 -21 -37.5 -40 q-19.5 -19 -42.5 -34 q-23 -15 -50 -23.5 q-27 -8.5 -60 -8.5 q-106 0 -157 48 q-51 48 -51 142 q0 94 51 142 q51 48 157 48 q33 0 60 -8.5 q27 -8.5 50 -23.5 q23 -15 42.5 -34.5 q19.5 -19.5 37.5 -40.5 q18 21 37.5 40.5 q19.5 19.5 43 34.5 q23.5 15 51.5 23.5 q28 8.5 61 8.5 q106 0 157 -48 q51 -48 51 -142 q0 -94 -50.5 -142 q-50.5 -48 -156.5 -48 q-33 0 -61 8.5 q-28 8.5 -51.5 23.5 q-23.5 15 -43.5 34 q-20 19 -38 40 ZM494 304 q27 -32 57.5 -53.5 q30.5 -21.5 69.5 -21.5 q39 0 56 21.5 q17 21.5 17 53.5 q0 32 -17 53.5 q-17 21.5 -56 21.5 q-39 -1 -69.5 -22.5 q-30.5 -21.5 -57.5 -52.5 ZM362 304 q-26 32 -56 53.5 q-30 21.5 -69 21.5 q-39 -1 -56 -22 q-17 -21 -17 -53 q0 -32 17 -53.5 q17 -21.5 56 -21.5 q39 0 69 21.5 q30 21.5 56 53.5 Z" /><glyph glyph-name="approxequal" unicode="&#x2248;" d="M572 316 q0 -43 -7 -81 q-7 -38 -25.5 -66 q-18.5 -28 -52 -44.5 q-33.5 -16.5 -86.5 -16.5 q-34 0 -57.5 8.5 q-23.5 8.5 -44.5 19 q-21 10.5 -42 19 q-21 8.5 -50 8.5 q-18 0 -30 -6.5 q-12 -6.5 -19.5 -15.5 q-7.5 -9 -11 -18 q-3.5 -9 -3.5 -15 l-107 0 q0 43 7 81 q7 38 25.5 66 q18.5 28 52 44.5 q33.5 16.5 86.5 16.5 q34 0 57.5 -8.5 q23.5 -8.5 44.5 -19 q21 -10.5 42 -19 q21 -8.5 50 -8.5 q18 0 30.5 6.5 q12.5 6.5 20 15.5 q7.5 9 11 18 q3.5 9 3.5 15 l106 0 ZM572 551 q0 -43 -7 -81 q-7 -38 -25.5 -66 q-18.5 -28 -52 -44.5 q-33.5 -16.5 -86.5 -16.5 q-34 0 -57.5 8.5 q-23.5 8.5 -44.5 19 q-21 10.5 -42 19 q-21 8.5 -50 8.5 q-18 0 -30 -6.5 q-12 -6.5 -19.5 -15.5 q-7.5 -9 -11 -18 q-3.5 -9 -3.5 -15 l-107 0 q0 43 7 81 q7 38 25.5 66 q18.5 28 52 44.5 q33.5 16.5 86.5 16.5 q34 0 57.5 -8.5 q23.5 -8.5 44.5 -19 q21 -10.5 42 -19 q21 -8.5 50 -8.5 q18 0 30.5 6.5 q12.5 6.5 20 15.5 q7.5 9 11 18 q3.5 9 3.5 15 l106 0 Z" /><glyph glyph-name="notequal" unicode="&#x2260;" d="M218 151 l-50 -88 l-117 0 l50 88 l-71 0 l0 132 l147 0 l37 64 l-184 0 l0 132 l259 0 l46 79 l116 0 l-45 -79 l95 0 l0 -132 l-171 0 l-36 -64 l207 0 l0 -132 l-283 0 Z" /><glyph glyph-name="lessequal" unicode="&#x2264;" d="M42 338 l0 159 l458 139 l0 -154 l-308 -64 l308 -65 l0 -153 l-458 138 ZM44 41 l0 132 l453 0 l0 -132 l-453 0 Z" /><glyph glyph-name="greaterequal" unicode="&#x2265;" d="M44 200 l0 153 l307 65 l-307 64 l0 154 l458 -139 l0 -159 l-458 -138 ZM47 41 l0 132 l453 0 l0 -132 l-453 0 Z" /><glyph glyph-name="fi" unicode="&#xfb01;" d="M88 0 l0 382 l-74 0 l0 139 l74 0 l0 33 q0 38 8.5 75.5 q8.5 37.5 32 67 q23.5 29.5 64 48 q40.5 18.5 104.5 18.5 l91 -1 l0 -150 l-36 0 q-32 0 -48.5 -17 q-16.5 -17 -16.5 -64 l0 -10 l98 0 l0 -139 l-98 0 l0 -382 l-199 0 ZM439 0 l0 550 l200 0 l0 -550 l-200 0 ZM441 611 l0 149 l200 0 l0 -149 l-200 0 Z" /><glyph glyph-name="fl" unicode="&#xfb02;" d="M88 0 l0 382 l-74 0 l0 139 l74 0 l0 33 q0 38 8.5 75.5 q8.5 37.5 32 67 q23.5 29.5 64 48 q40.5 18.5 104.5 18.5 l91 -1 l0 -150 l-36 0 q-32 0 -48.5 -17 q-16.5 -17 -16.5 -64 l0 -10 l98 0 l0 -139 l-98 0 l0 -382 l-199 0 ZM440 0 l0 760 l199 0 l0 -760 l-199 0 Z" /></font>
</defs>
</svg>
