<svg xmlns="http://www.w3.org/2000/svg">
<defs>
<font id="AlannaMunro: Tofino Regular: 2016" horiz-adv-x="1228"><font-face font-family="TofinoRegular" font-weight="415" font-stretch="normal" units-per-em="1000" panose-1="2 0 0 0 0 0 0 0 0 0" ascent="1066" descent="-298" x-height="0" bbox="-163 -268 1145 1125" underline-thickness="50" underline-position="-200" unicode-range="U+0000-fb02" /><missing-glyph horiz-adv-x="651" d="M50 0 l0 702 l551 0 l0 -702 l-551 0 ZM175 171 q-23 28 -35.5 63 q-12.5 35 -12.5 75 q0 46 17 86 q17 40 46 69 q-20 28 -10 59 l-109 141 l0 -629 l104 136 ZM569 682 l-487 0 l108 -140 q17 26 53.5 42 q36.5 16 80.5 16 q44 0 80.5 -16.5 q36.5 -16.5 56.5 -42.5 l108 141 ZM461 157 q-26 -27 -61.5 -43 q-35.5 -16 -75.5 -16 q-39 0 -74 15.5 q-35 15.5 -61 42.5 l-105 -136 l484 0 l-107 137 ZM580 662 l-109 -139 q0 -1 1 -1 q14 5 29.5 6 q15.5 1 26.5 -7 q13 -9 15 -30 q2 -21 -11 -32 q-10 -7 -24 -7 q-11 0 -22 2.5 q-11 2.5 -24 6.5 q28 -29 44 -68 q16 -39 16 -84 q0 -39 -12.5 -73.5 q-12.5 -34.5 -34.5 -62.5 l105 -136 l0 625 ZM481 307 q3 -26 -6.5 -49 q-9.5 -23 -32.5 -26 q-6 -1 -14.5 -1.5 q-8.5 -0.5 -17.5 -0.5 q-12 0 -25.5 1 q-13.5 1 -21.5 6 q-12 7 -19 20.5 q-7 13.5 -9 24.5 q-1 2 -1 5 q-3 10 -11 10 q-6 0 -9 -10 q-1 -1 -1 -5 q-2 -11 -9 -24.5 q-7 -13.5 -20 -20.5 q-8 -5 -21.5 -6 q-13.5 -1 -25.5 -1 q-8 0 -17 0.5 q-9 0.5 -14 1.5 q-23 3 -33 26 q-10 23 -7 49 l0 1 l-15 14 l0 -13 q0 -39 13.5 -73 q13.5 -34 37 -59.5 q23.5 -25.5 55 -40.5 q31.5 -15 67.5 -15 q36 0 67.5 15 q31.5 15 55.5 40.5 q24 25.5 37.5 59.5 q13.5 34 13.5 73 q0 5 -0.5 8.5 q-0.5 3.5 -0.5 8.5 q-7 -6 -16 -18 l0 -1 ZM395 480 l-10 2 q-13 2 -26 4.5 q-13 2.5 -23 9.5 q-4 1 -12 1 q-36 0 -69 -15 q-10 -11 -9.5 -22 q0.5 -11 4.5 -19 q7 -14 25 -30 q18 -16 48 -28.5 q30 -12.5 72 -20 q42 -7.5 97 -4.5 q-17 65 -66 103 q-5 0 -8 1 q-15 5 -22 18 l-1 0 ZM297 306 l-1 0 q-7 4 -25 7 q-18 3 -41 3 q-29 0 -40.5 -4 q-11.5 -4 -11.5 -6 q-1 -8 0 -18.5 q1 -10.5 4 -19.5 q3 -9 9 -16 q6 -7 16 -8 q6 -1 14 -1.5 q8 -0.5 16 -0.5 q32 0 42 5 q8 5 14 15 q6 10 8 22 q3 13 -2 20 l-2 2 ZM470 306 q-1 2 -12 6 q-11 4 -40 4 
<glyph glyph-name="nonmarkingreturn" unicode="" d="" /><glyph glyph-name=".null" unicode="" d="" /><glyph glyph-name="space" unicode=" " d="" /><glyph glyph-name="exclam" unicode="!" d="M81 0 l0 116 l99 0 l0 -116 l-99 0 ZM87 176 l-6 536 l99 0 l-6 -536 l-87 0 Z" /><glyph glyph-name="quotedbl" unicode="&quot;" d="M28 546 l-11 208 l109 0 l-11 -208 l-87 0 ZM197 546 l-11 208 l109 0 l-11 -208 l-87 0 Z" /><glyph glyph-name="numbersign" unicode="#" d="M357 0 l39 197 l-148 0 l-39 -197 l-92 0 l39 197 l-101 0 l0 72 l116 0 l37 188 l-106 0 l0 72 l121 0 l34 173 l92 0 l-34 -173 l148 0 l34 173 l92 0 l-34 -173 l99 0 l0 -72 l-114 0 l-37 -188 l104 0 l0 -72 l-119 0 l-39 -197 l-92 0 ZM448 457 l-148 0 l-37 -188 l148 0 l37 188 Z" /><glyph glyph-name="dollar" unicode="$" d="M252 -58 l0 93 q-103 6 -155 56.5 q-52 50.5 -52 156.5 l93 0 q0 -57 28.5 -90.5 q28.5 -33.5 85.5 -40.5 l0 220 q-36 9 -71.5 20.5 q-35.5 11.5 -63.5 32.5 q-28 21 -45.5 55 q-17.5 34 -17.5 87 q0 76 48.5 123 q48.5 47 149.5 53 l0 62 l65 0 l0 -62 q103 -8 147.5 -59.5 q44.5 -51.5 44.5 -136.5 l-92 0 q0 18 -5 36.5 q-5 18.5 -16.5 34 q-11.5 15.5 -30.5 26.5 q-19 11 -48 15 l0 -211 q37 -9 74.5 -20 q37.5 -11 67 -32 q29.5 -21 48 -55 q18.5 -34 18.5 -87 q0 -85 -53 -131.5 q-53 -46.5 -155 -52.5 l0 -93 l-65 0 ZM317 118 q53 7 80 33.5 q27 26.5 27 63.5 q0 24 -8.5 41.5 q-8.5 17.5 -22.5 29.5 q-14 12 -34 20.5 q-20 8.5 -42 14.5 l0 -203 ZM252 624 q-55 -8 -77.5 -35 q-22.5 -27 -22.5 -59 q0 -44 28.5 -66 q28.5 -22 71.5 -35 l0 195 Z" /><glyph glyph-name="percent" unicode="%" d="M120 0 l460 702 l88 0 l-460 -702 l-88 0 ZM200 362 q-47 0 -78.5 12 q-31.5 12 -51 34.5 q-19.5 22.5 -28 54.5 q-8.5 32 -8.5 73 q0 41 8.5 73.5 q8.5 32.5 28 55.5 q19.5 23 51 35.5 q31.5 12.5 78.5 12.5 q46 0 78 -12.5 q32 -12.5 51 -35.5 q19 -23 27.5 -55.5 q8.5 -32.5 8.5 -73.5 q0 -41 -8.5 -73 q-8.5 -32 -27.5 -54.5 q-19 -22.5 -51 -34.5 q-32 -12 -78 -12 ZM200 425 q50 0 67.5 28 q17.5 28 17.5 83 q0 55 -17.5 84.5 q-17.5 29.5 -67.5 29.5 q-50 0 -68.5 -29.5 q-18.5 -29.5 -18.5 -84.5 q0 -55 18.5 -83 q18.5 -28 68.5 -28 ZM586 -12 q-47 0 -78.5 12 q-31.5 12 -51 34.5 q-19.5 22.5 -28 54.5 q-8.5 32 -8.5 73 q0 41 8.5 74 q8.5 33 28 56 q19.5 23 51 35.5 q31.5 12.5 78.5 12.5 q46 0 78 -12.5 q32 -12.5 51 -35.5 q19 -23 27.5 -56 q8.5 -33 8.5 -74 q0 -41 -8.5 -73 q-8.5 -32 -27.5 -54.5 q-19 -22.5 -51 -34.5 q-32 -12 -78 -12 ZM586 51 q50 0 67.5 28 q17.5 28 17.5 83 q0 55 -17.5 85 q-17.5 30 -67.5 30 q-50 0 -68.5 -30 q-18.5 -30 -18.5 -85 q0 -55 18.5 -83 q18.5 -28 68.5 -28 Z" /><glyph glyph-name="ampersand" unicode="&amp;" d="M578 0 l-15 15 q-8 7 -18 17 q-10 10 -23 23 q-37 -39 -89 -56 q-52 -17 -118 -17 q-131 0 -192 55.5 q-61 55.5 -61 164.5 q0 48 12.5 83 q12.5 35 31 60 q18.5 25 41 40 q22.5 15 43.5 24 q-26 32 -38.5 63 q-12.5 31 -12.5 76 q0 38 10 70.5 q10 32.5 33.5 56.5 q23.5 24 62 37.5 q38.5 13.5 96.5 13.5 q57 0 94 -14.5 q37 -14.5 59 -41 q22 -26.5 30.5 -62.5 q8.5 -36 8.5 -78 l-104 0 q0 47 -18.5 76.5 q-18.5 29.5 -69.5 29.5 q-27 0 -44.5 -6.5 q-17.5 -6.5 -28 -18.5 q-10.5 -12 -15 -28 q-4.5 -16 -4.5 -35 q0 -34 12 -62 q12 -28 34.5 -56.5 q22.5 -28.5 54.5 -61 q32 -32.5 72 -75.5 l77 -84 q17 63 17 152 l91 0 q0 -74 -9.5 -130.5 q-9.5 -56.5 -26.5 -99.5 q26 -29 48.5 -53 q22.5 -24 39.5 -41 q19 -20 35 -37 l-116 0 ZM455 124 q-35 36 -74 77.5 q-39 41.5 -78 85.5 q-17 17 -31 32.5 q-14 15.5 -28 29.5 q-14 -8 -28 -19.5 q-14 -11.5 -25 -28 q-11 -16.5 -18 -39.5 q-7 -23 -7 -53 q0 -28 7 -53 q7 -25 24.5 -43.5 q17.5 -18.5 46 -29 q28.5 -10.5 71.5 -10.5 q92 0 140 51 Z" /><glyph glyph-name="quotesingle" unicode="&#39;" d="M22 546 l-11 208 l109 0 l-11 -208 l-87 0 Z" /><glyph glyph-name="parenleft" unicode="(" d="M184 -195 q-35 56 -62 128 q-23 62 -42.5 149.5 q-19.5 87.5 -19.5 198.5 q0 111 16 199 q16 88 36 151 q23 73 52 129 l100 0 q-29 -59 -52 -133 q-20 -63 -36 -151.5 q-16 -88.5 -16 -194.5 q0 -107 19.5 -194 q19.5 -87 42.5 -150 q27 -74 62 -132 l-100 0 Z" /><glyph glyph-name="parenright" unicode=")" d="M6 -195 q35 58 62 132 q23 63 42.5 150 q19.5 87 19.5 194 q0 106 -16 194.5 q-16 88.5 -36 151.5 q-23 74 -52 133 l100 0 q29 -56 52 -129 q20 -63 36 -151 q16 -88 16 -199 q0 -111 -19.5 -198.5 q-19.5 -87.5 -42.5 -149.5 q-27 -72 -62 -128 l-100 0 Z" /><glyph glyph-name="asterisk" unicode="*" d="M241 443 l-53 84 l-53 -84 l-72 50 l74 79 l-97 13 l19 84 l96 -36 l-10 95 l86 0 l-9 -95 l96 36 l18 -84 l-96 -13 l73 -79 l-72 -50 Z" /><glyph glyph-name="plus" unicode="+" d="M184 127 l0 157 l-154 0 l0 81 l154 0 l0 157 l87 0 l0 -157 l155 0 l0 -81 l-155 0 l0 -157 l-87 0 Z" /><glyph glyph-name="comma" unicode="," d="M6 -122 q8 18 17 40 q8 19 15.5 43 q7.5 24 14.5 53 q6 28 9 49 q3 21 5 35 q2 17 2 28 l103 0 q0 -13 -3 -31 q-2 -15 -6 -37.5 q-4 -22.5 -12 -50.5 q-8 -30 -18 -54 q-10 -24 -18 -41 q-10 -19 -20 -34 l-89 0 Z" /><glyph glyph-name="hyphen" unicode="-" d="M61 281 l0 78 l226 0 l0 -78 l-226 0 Z" /><glyph glyph-name="period" unicode="." d="M53 0 l0 125 l101 0 l0 -125 l-101 0 Z" /><glyph glyph-name="slash" unicode="/" d="M40 -40 l310 840 l101 0 l-310 -840 l-101 0 Z" /><glyph glyph-name="zero" unicode="0" d="M64 347 q0 95 12.5 165 q12.5 70 43 116 q30.5 46 82.5 68.5 q52 22.5 130 22.5 q78 0 130 -22.5 q52 -22.5 82.5 -68.5 q30.5 -46 43 -116 q12.5 -70 12.5 -165 q0 -91 -12.5 -158 q-12.5 -67 -43 -111.5 q-30.5 -44.5 -82.5 -66.5 q-52 -22 -130 -22 q-78 0 -130 22 q-52 22 -82.5 66.5 q-30.5 44.5 -43 111.5 q-12.5 67 -12.5 158 ZM496 347 q0 78 -9 131.5 q-9 53.5 -29 86.5 q-20 33 -51.5 48 q-31.5 15 -75.5 15 q-44 0 -75 -15 q-31 -15 -51 -48 q-20 -33 -29 -86.5 q-9 -53.5 -9 -131.5 q0 -74 9 -124.5 q9 -50.5 29 -82.5 q20 -32 51 -46 q31 -14 75 -14 q44 0 75.5 14 q31.5 14 51.5 46 q20 32 29 82.5 q9 50.5 9 124.5 Z" /><glyph glyph-name="one" unicode="1" d="M139 0 l0 608 l-139 -67 l0 96 l158 74 l0 1 l84 0 l0 -712 l-103 0 Z" /><glyph glyph-name="two" unicode="2" d="M34 2 l0 92 q0 0 17 14 q17 14 44.5 38 q27.5 24 63.5 56 q36 32 74 68 q33 31 62 59 q29 28 51 56 q22 28 35 57.5 q13 29.5 13 63.5 q0 65 -33 94.5 q-33 29.5 -93 29.5 q-62 0 -97 -30 q-35 -30 -35 -96 l-105 0 q0 110 61 163.5 q61 53.5 176 53.5 q111 0 170.5 -52.5 q59.5 -52.5 59.5 -161.5 q0 -44 -12.5 -80.5 q-12.5 -36.5 -34 -69.5 q-21.5 -33 -49.5 -63 q-28 -30 -59 -61 q-32 -32 -63 -58.5 q-31 -26.5 -56 -46.5 q-29 -23 -55 -41 q84 0 153 1 q29 0 58 0.5 q29 0.5 52.5 1 q23.5 0.5 40.5 0.5 q17 0 22 0 l0 -88 l-461 0 Z" /><glyph glyph-name="three" unicode="3" d="M293 456 q113 -10 170.5 -68.5 q57.5 -58.5 57.5 -162.5 q0 -113 -62.5 -173 q-62.5 -60 -190.5 -60 q-59 0 -103.5 16 q-44.5 16 -74.5 44.5 q-30 28.5 -45 67.5 q-15 39 -15 86 l96 0 q0 -22 8 -44 q8 -22 25.5 -39.5 q17.5 -17.5 44 -28.5 q26.5 -11 64.5 -11 q79 0 113.5 40 q34.5 40 34.5 102 q0 31 -9 57 q-9 26 -29.5 45 q-20.5 19 -52 29.5 q-31.5 10.5 -76.5 10.5 q-16 0 -31 -1 q-15 -1 -27 -3 q-14 -2 -28 -4 l0 89 l210 165 l-313 -5 l0 88 l442 0 l0 -81 l1 0 l-210 -159 Z" /><glyph glyph-name="four" unicode="4" d="M373 0 l1 141 l-341 0 l0 91 l337 468 l106 0 l0 -468 l85 0 l0 -91 l-85 0 l0 -141 l-103 0 ZM377 562 l-236 -330 l233 0 l3 330 Z" /><glyph glyph-name="five" unicode="5" d="M203 608 l-29 -184 q20 16 54.5 30 q34.5 14 88.5 14 q109 0 168.5 -62.5 q59.5 -62.5 59.5 -178.5 q0 -115 -61.5 -175 q-61.5 -60 -192.5 -60 q-63 0 -109 16 q-46 16 -76 43 q-30 27 -44.5 63.5 q-14.5 36.5 -14.5 78.5 l96 0 q0 -17 8.5 -36 q8.5 -19 26.5 -35.5 q18 -16.5 46 -27.5 q28 -11 67 -11 q77 0 113 40 q36 40 36 104 q0 32 -9.5 59.5 q-9.5 27.5 -28 47.5 q-18.5 20 -46.5 31.5 q-28 11.5 -65 11.5 q-35 0 -59 -8 q-24 -8 -40 -19 q-16 -11 -24 -21.5 q-8 -10.5 -11 -14.5 l0 -3 l-1 0 l-91 1 l46 296 l-1 0 l11 88 l386 0 l0 -88 l-304 0 Z" /><glyph glyph-name="six" unicode="6" d="M448 522 q0 17 -7 36 q-7 19 -22.5 34.5 q-15.5 15.5 -39.5 26 q-24 10.5 -58 10.5 q-33 0 -58 -10 q-25 -10 -43.5 -36 q-18.5 -26 -30 -71 q-11.5 -45 -16.5 -115 q27 27 70 48 q43 21 108 21 q65 0 108.5 -20 q43.5 -20 69.5 -53.5 q26 -33.5 37 -77 q11 -43.5 11 -91.5 q0 -50 -13.5 -92.5 q-13.5 -42.5 -44 -74.5 q-30.5 -32 -79.5 -50 q-49 -18 -119 -18 q-70 0 -119 20 q-49 20 -79.5 61 q-30.5 41 -44.5 101.5 q-14 60.5 -14 141.5 q0 109 14.5 186.5 q14.5 77.5 46 126.5 q31.5 49 80 71.5 q48.5 22.5 116.5 22.5 q67 0 111.5 -18.5 q44.5 -18.5 71.5 -47 q27 -28.5 38.5 -63.5 q11.5 -35 11.5 -69 l-106 0 ZM169 293 q1 -60 12 -101 q11 -41 30 -66 q19 -25 46.5 -35.5 q27.5 -10.5 63.5 -10.5 q75 0 113 37.5 q38 37.5 38 106.5 q0 68 -33.5 109.5 q-33.5 41.5 -107.5 41.5 q-63 0 -102 -25 q-39 -25 -60 -57 Z" /><glyph glyph-name="seven" unicode="7" d="M121 0 q0 62 10.5 121.5 q10.5 59.5 28 113.5 q17.5 54 40 103 q22.5 49 46.5 90 q55 97 126 179 l-362 0 l0 91 l476 0 l0 -91 q-74 -85 -131 -184 q-25 -42 -48.5 -91 q-23.5 -49 -42 -103 q-18.5 -54 -29.5 -111.5 q-11 -57.5 -11 -117.5 l-103 0 Z" /><glyph glyph-name="eight" unicode="8" d="M455 382 q12 -1 33.5 -11.5 q21.5 -10.5 43 -32 q21.5 -21.5 37 -55.5 q15.5 -34 15.5 -82 q0 -48 -13.5 -87 q-13.5 -39 -44 -66.5 q-30.5 -27.5 -80.5 -42.5 q-50 -15 -122 -15 q-72 0 -122 15 q-50 15 -80.5 42.5 q-30.5 27.5 -44 66.5 q-13.5 39 -13.5 87 q0 48 15.5 82 q15.5 34 36.5 55.5 q21 21.5 42.5 32 q21.5 10.5 33.5 11.5 q-8 1 -25.5 9.5 q-17.5 8.5 -35 25.5 q-17.5 17 -31 44 q-13.5 27 -13.5 65 q0 43 12.5 79 q12.5 36 40.5 62 q28 26 73 40.5 q45 14.5 111 14.5 q66 0 111 -14.5 q45 -14.5 73 -40.5 q28 -26 40.5 -62 q12.5 -36 12.5 -79 q0 -38 -13 -65 q-13 -27 -31 -44 q-18 -17 -35.5 -25.5 q-17.5 -8.5 -26.5 -9.5 ZM478 207 q0 60 -36 93.5 q-36 33.5 -119 33.5 q-83 0 -119 -33.5 q-36 -33.5 -36 -93.5 q0 -62 37 -94 q37 -32 118 -32 q81 0 118 32 q37 32 37 94 ZM455 517 q0 115 -132 115 q-132 0 -132 -115 q0 -47 31 -73 q31 -26 101 -26 q70 0 101 26 q31 26 31 73 Z" /><glyph glyph-name="nine" unicode="9" d="M179 186 q0 -17 7 -35.5 q7 -18.5 23.5 -34 q16.5 -15.5 43 -26 q26.5 -10.5 66.5 -10.5 q34 0 60 8.5 q26 8.5 44 32 q18 23.5 29 65 q11 41.5 16 106.5 q-28 -28 -71 -49.5 q-43 -21.5 -107 -21.5 q-62 0 -105 20.5 q-43 20.5 -70 56 q-27 35.5 -39 82 q-12 46.5 -12 98.5 q0 52 14.5 96 q14.5 44 45.5 76.5 q31 32.5 79 51 q48 18.5 116 18.5 q136 1 197 -81.5 q61 -82.5 61 -251.5 q0 -109 -14 -184.5 q-14 -75.5 -44.5 -123 q-30.5 -47.5 -80 -69 q-49.5 -21.5 -119.5 -21.5 q-72 0 -119.5 19 q-47.5 19 -75.5 48.5 q-28 29.5 -39 64 q-11 34.5 -11 65.5 l105 0 ZM472 388 q0 70 -10 116.5 q-10 46.5 -29.5 74 q-19.5 27.5 -48 39 q-28.5 11.5 -65.5 11.5 q-75 0 -112.5 -38.5 q-37.5 -38.5 -37.5 -112.5 q0 -78 34 -122 q34 -44 106 -44 q32 0 57.5 6.5 q25.5 6.5 45 17 q19.5 10.5 34.5 24 q15 13.5 26 28.5 Z" /><glyph glyph-name="colon" unicode=":" d="M60 0 l0 125 l101 0 l0 -125 l-101 0 ZM60 353 l0 125 l101 0 l0 -125 l-101 0 Z" /><glyph glyph-name="semicolon" unicode=";" d="M8 -122 q8 18 17 40 q8 19 15.5 43 q7.5 24 14.5 53 q6 28 9 49 q3 21 5 35 q2 17 2 28 l103 0 q0 -13 -3 -31 q-2 -15 -6 -37.5 q-4 -22.5 -12 -50.5 q-8 -30 -18 -54 q-10 -24 -18 -41 q-10 -19 -20 -34 l-89 0 ZM78 353 l0 122 l101 0 l0 -122 l-101 0 Z" /><glyph glyph-name="less" unicode="&lt;" d="M27 270 l0 84 l412 145 l0 -91 l-326 -96 l326 -96 l0 -91 l-412 145 Z" /><glyph glyph-name="equal" unicode="=" d="M37 352 l0 84 l402 0 l0 -84 l-402 0 ZM37 183 l0 85 l402 0 l0 -85 l-402 0 Z" /><glyph glyph-name="greater" unicode="&gt;" d="M34 125 l0 91 l325 96 l-325 96 l0 91 l412 -145 l0 -84 l-412 -145 Z" /><glyph glyph-name="question" unicode="?" d="M173 0 l0 116 l100 0 l0 -116 l-100 0 ZM176 176 l1 26 q0 48 11.5 81 q11.5 33 28 57.5 q16.5 24.5 36.5 44 q20 19.5 36.5 40 q16.5 20.5 28 45 q11.5 24.5 11.5 59.5 q0 51 -23 83 q-23 32 -82 32 q-60 0 -83 -36.5 q-23 -36.5 -23 -104.5 l-101 0 q0 116 50 174.5 q50 58.5 159 58.5 q57 0 96 -14.5 q39 -14.5 63 -40.5 q24 -26 34.5 -61.5 q10.5 -35.5 10.5 -77.5 q0 -47 -12 -80 q-12 -33 -29.5 -58 q-17.5 -25 -38.5 -45.5 q-21 -20.5 -38.5 -43 q-17.5 -22.5 -29.5 -49 q-12 -26.5 -12 -64.5 l0 -26 l-94 0 Z" /><glyph glyph-name="at" unicode="@" d="M643 -97 q-35 -13 -82 -20.5 q-47 -7.5 -113 -7.5 q-107 0 -181 30.5 q-74 30.5 -120 84 q-46 53.5 -66.5 127 q-20.5 73.5 -20.5 160.5 q0 87 20.5 162 q20.5 75 66 130.5 q45.5 55.5 119.5 87 q74 31.5 182 31.5 q107 0 180.5 -31.5 q73.5 -31.5 119 -87 q45.5 -55.5 65.5 -130.5 q20 -75 20 -162 q0 -135 -37.5 -197.5 q-37.5 -62.5 -113.5 -62.5 q-54 0 -82 26 q-28 26 -40 68 q-19 -27 -53.5 -45.5 q-34.5 -18.5 -89.5 -18.5 q-48 0 -81 16 q-33 16 -54 45.5 q-21 29.5 -30.5 72 q-9.5 42.5 -9.5 96.5 q0 54 9.5 97 q9.5 43 30.5 73 q21 30 54 46 q33 16 81 16 q50 0 82.5 -22 q32.5 -22 50.5 -47 l0 2 l13 62 l78 0 l0 -304 q0 -65 12 -92.5 q12 -27.5 41 -27.5 q15 0 28 6.5 q13 6.5 23 27.5 q10 21 16 60 q6 39 6 103 q0 72 -16 136 q-16 64 -53 112 q-37 48 -98.5 76 q-61.5 28 -151.5 28 q-89 0 -149.5 -28 q-60.5 -28 -97.5 -76 q-37 -48 -52.5 -112 q-15.5 -64 -15.5 -136 q0 -71 14 -133.5 q14 -62.5 50 -109 q36 -46.5 97 -73 q61 -26.5 155 -26.5 q25 0 52.5 2 q27.5 2 53 6 q25.5 4 48.5 10 q23 6 40 14 l0 -64 ZM550 362 q-6 13 -16 27 q-10 14 -23.5 25.5 q-13.5 11.5 -31.5 19 q-18 7.5 -41 7.5 q-52 0 -77.5 -42.5 q-25.5 -42.5 -25.5 -121.5 q0 -79 25.5 -120 q25.5 -41 77.5 -41 q48 0 74.5 22.5 q26.5 22.5 37.5 48.5 l0 175 Z" /><glyph glyph-name="A" unicode="a" d="M535 0 l-62 171 l-304 0 l-61 -171 l-103 0 l270 712 l99 0 l269 -712 l-108 0 ZM321 593 l-117 -324 l234 0 l-117 324 Z" /><glyph glyph-name="B" unicode="b" d="M88 -3 l0 718 l247 0 q78 0 127 -13.5 q49 -13.5 77.5 -38 q28.5 -24.5 39 -59 q10.5 -34.5 10.5 -75.5 q0 -29 -4.5 -53.5 q-4.5 -24.5 -16.5 -45 q-12 -20.5 -33 -36 q-21 -15.5 -54 -25.5 q40 -10 65.5 -26.5 q25.5 -16.5 39.5 -38.5 q14 -22 19.5 -49.5 q5.5 -27.5 5.5 -59.5 q0 -46 -9.5 -83 q-9.5 -37 -38.5 -62.5 q-29 -25.5 -84.5 -39 q-55.5 -13.5 -146.5 -13.5 l-244 0 ZM332 83 q55 0 89.5 7 q34.5 7 53.5 22 q19 15 25.5 38 q6.5 23 6.5 55 q0 30 -7.5 53 q-7.5 23 -27 38 q-19.5 15 -53.5 23 q-34 8 -87 8 l-141 0 l0 -244 l141 0 ZM332 408 q48 0 78 7 q30 7 47 21 q17 14 23.5 34.5 q6.5 20.5 6.5 48.5 q0 28 -7.5 48.5 q-7.5 20.5 -25.5 34 q-18 13.5 -47.5 20.5 q-29.5 7 -74.5 7 l-141 0 l0 -221 l141 0 Z" /><glyph glyph-name="C" unicode="c" d="M617 245 q-3 -135 -69 -199 q-66 -64 -197 -64 q-80 0 -135.5 23.5 q-55.5 23.5 -90 70.5 q-34.5 47 -50 117 q-15.5 70 -15.5 162 q0 93 15.5 163 q15.5 70 50 117 q34.5 47 90 71 q55.5 24 135.5 24 q264 0 268 -267 l-101 0 q-4 94 -45 135 q-41 41 -122 41 q-52 0 -87.5 -16.5 q-35.5 -16.5 -57.5 -51 q-22 -34.5 -32 -88 q-10 -53.5 -10 -128.5 q0 -75 10 -128 q10 -53 32 -87.5 q22 -34.5 57.5 -50.5 q35.5 -16 87.5 -16 q78 0 119.5 39.5 q41.5 39.5 45.5 132.5 l101 0 Z" /><glyph glyph-name="D" unicode="d" d="M88 -3 l0 718 l191 0 q92 0 155 -15 q63 -15 104 -47 q56 -43 76 -116 q20 -73 20 -182 q0 -100 -17 -170 q-17 -70 -63 -114 q-41 -38 -107 -56 q-66 -18 -168 -18 l-191 0 ZM283 88 q73 0 120.5 11.5 q47.5 11.5 75.5 41.5 q29 30 40 81.5 q11 51.5 11 132.5 q0 89 -13 143 q-13 54 -47 83 q-29 25 -74 34 q-45 9 -113 9 l-92 0 l0 -536 l92 0 Z" /><glyph glyph-name="E" unicode="e" d="M88 0 l0 712 l466 0 l0 -91 l-364 0 l0 -208 l314 0 l0 -89 l-314 0 l0 -233 l370 0 l0 -91 l-472 0 Z" /><glyph glyph-name="F" unicode="f" d="M88 0 l0 712 l455 0 l0 -91 l-352 0 l0 -226 l302 0 l0 -91 l-302 0 l0 -304 l-103 0 Z" /><glyph glyph-name="G" unicode="g" d="M520 267 l-133 0 l0 86 l229 0 l0 -265 q0 -6 -15 -23.5 q-15 -17.5 -47 -35.5 q-32 -18 -82.5 -32.5 q-50.5 -14.5 -120.5 -14.5 q-80 0 -135.5 22.5 q-55.5 22.5 -90 69 q-34.5 46.5 -50 117 q-15.5 70.5 -15.5 164.5 q0 94 15.5 164 q15.5 70 50 117 q34.5 47 90 70.5 q55.5 23.5 135.5 23.5 q69 0 119.5 -17.5 q50.5 -17.5 83.5 -50 q33 -32.5 48.5 -78 q15.5 -45.5 15.5 -102.5 l-101 0 q-1 73 -43 115 q-42 42 -123 42 q-52 0 -87.5 -16.5 q-35.5 -16.5 -57.5 -51 q-22 -34.5 -32 -88.5 q-10 -54 -10 -128 q0 -74 10.5 -127 q10.5 -53 33.5 -87.5 q23 -34.5 60 -51 q37 -16.5 90 -16.5 q40 0 70 6.5 q30 6.5 50.5 14.5 q20.5 8 31 16.5 q10.5 8.5 10.5 12.5 l0 144 Z" /><glyph glyph-name="H" unicode="h" d="M522 0 l0 318 l-331 0 l0 -318 l-103 -1 l0 712 l103 1 l0 -297 l331 0 l0 297 l103 0 l0 -712 l-103 0 Z" /><glyph glyph-name="I" unicode="i" d="M88 0 l0 712 l103 0 l0 -712 l-103 0 Z" /><glyph glyph-name="J" unicode="j" d="M13 0 l0 98 l66 0 q52 0 84.5 8 q32.5 8 50.5 31 q18 23 24 64.5 q6 41.5 6 109.5 l-1 391 l103 0 l2 -391 q0 -87 -8 -146 q-8 -59 -36 -96 q-28 -37 -81.5 -53 q-53.5 -16 -143.5 -16 l-66 0 Z" /><glyph glyph-name="K" unicode="k" d="M514 0 l-227 317 l-96 -117 l0 -200 l-103 0 l0 712 l103 0 l0 -390 l303 390 l121 0 l-265 -319 l280 -393 l-116 0 Z" /><glyph glyph-name="L" unicode="l" d="M88 0 l0 712 l103 0 l0 -617 l300 0 l0 -95 l-403 0 Z" /><glyph glyph-name="M" unicode="m" d="M699 0 l7 601 l-222 -603 l-100 0 l-210 604 l5 -602 l-91 0 l0 702 l155 0 l201 -589 l207 589 l150 0 l-2 -702 l-100 0 Z" /><glyph glyph-name="N" unicode="n" d="M560 -1 l0 1 l-29 -1 l-354 576 l9 -575 l-98 0 l2 712 l85 0 l0 -2 l28 2 l354 -575 l-10 575 l98 0 l0 -713 l-85 0 Z" /><glyph glyph-name="O" unicode="o" d="M60 355 q0 93 15.5 163 q15.5 70 50.5 117 q35 47 91 71 q56 24 138 24 q81 0 137.5 -24 q56.5 -24 91 -71 q34.5 -47 50 -117 q15.5 -70 15.5 -163 q0 -92 -15.5 -162 q-15.5 -70 -50 -117 q-34.5 -47 -91 -70.5 q-56.5 -23.5 -137.5 -23.5 q-82 0 -138 23.5 q-56 23.5 -91 70.5 q-35 47 -50.5 117 q-15.5 70 -15.5 162 ZM546 355 q0 74 -10 128 q-10 54 -32.5 88.5 q-22.5 34.5 -59 51 q-36.5 16.5 -89.5 16.5 q-53 0 -89.5 -16.5 q-36.5 -16.5 -59 -51 q-22.5 -34.5 -32.5 -88.5 q-10 -54 -10 -128 q0 -74 10 -127 q10 -53 32.5 -87.5 q22.5 -34.5 59 -51 q36.5 -16.5 89.5 -16.5 q53 0 89.5 16.5 q36.5 16.5 59 51 q22.5 34.5 32.5 87.5 q10 53 10 127 Z" /><glyph glyph-name="P" unicode="p" d="M88 -1 l0 716 l248 0 q76 0 130 -10.5 q54 -10.5 88 -37.5 q34 -27 50 -73 q16 -46 16 -116 q0 -71 -15.5 -116.5 q-15.5 -45.5 -50 -72.5 q-34.5 -27 -89 -37.5 q-54.5 -10.5 -132.5 -10.5 l-142 0 l0 -242 l-103 0 ZM333 332 q46 0 82.5 5.5 q36.5 5.5 60.5 25.5 q20 16 30 43 q10 27 10 72 q0 42 -9.5 68 q-9.5 26 -26.5 43 q-24 23 -61.5 29 q-37.5 6 -85.5 6 l-142 0 l0 -292 l142 0 Z" /><glyph glyph-name="Q" unicode="q" d="M481 1 q-51 -19 -126 -19 q-82 0 -138 23.5 q-56 23.5 -91 70.5 q-35 47 -50.5 117 q-15.5 70 -15.5 162 q0 93 15.5 163 q15.5 70 50.5 117 q35 47 91 71 q56 24 138 24 q81 0 137.5 -24 q56.5 -24 91 -71 q34.5 -47 50 -117 q15.5 -70 15.5 -163 q0 -111 -22.5 -188.5 q-22.5 -77.5 -73.5 -122.5 l124 -96 l-59 -67 l-137 120 ZM355 73 q53 0 89.5 16.5 q36.5 16.5 59 51 q22.5 34.5 32.5 87.5 q10 53 10 127 q0 74 -10 128 q-10 54 -32.5 88.5 q-22.5 34.5 -59 51 q-36.5 16.5 -89.5 16.5 q-53 0 -89.5 -16.5 q-36.5 -16.5 -59 -51 q-22.5 -34.5 -32.5 -88.5 q-10 -54 -10 -128 q0 -74 10 -127 q10 -53 32.5 -87.5 q22.5 -34.5 59 -51 q36.5 -16.5 89.5 -16.5 Z" /><glyph glyph-name="R" unicode="r" d="M524 0 l-136 264 q-13 -1 -26.5 -1 q-13.5 0 -27.5 0 l-142 0 l0 -263 l-104 0 l0 714 l249 0 q82 0 135.5 -11.5 q53.5 -11.5 85 -38 q31.5 -26.5 44.5 -70 q13 -43.5 13 -106.5 q0 -90 -27.5 -140 q-27.5 -50 -97.5 -69 l150 -279 l-116 0 ZM334 354 q43 0 77.5 3.5 q34.5 3.5 57.5 20.5 q20 14 31 40 q11 26 11 70 q0 40 -9.5 65 q-9.5 25 -26.5 40 q-23 20 -59 25 q-36 5 -82 5 l-142 0 l0 -269 l142 0 Z" /><glyph glyph-name="S" unicode="s" d="M477 514 q0 23 -8.5 45.5 q-8.5 22.5 -27 40 q-18.5 17.5 -49 29 q-30.5 11.5 -74.5 11.5 q-45 0 -74 -9 q-29 -9 -46.5 -24 q-17.5 -15 -24 -34.5 q-6.5 -19.5 -6.5 -39.5 q0 -48 31.5 -72.5 q31.5 -24.5 79 -39 q47.5 -14.5 102.5 -25.5 q55 -11 102.5 -33.5 q47.5 -22.5 79 -63 q31.5 -40.5 31.5 -112.5 q0 -101 -66.5 -153.5 q-66.5 -52.5 -208.5 -51.5 q-64 0 -114.5 14 q-50.5 14 -86 42.5 q-35.5 28.5 -54 73.5 q-18.5 45 -18.5 107 l100 0 q0 -69 44 -107 q44 -38 125 -39 q47 0 79.5 8 q32.5 8 53 23 q20.5 15 30 35 q9.5 20 9.5 44 q0 37 -18 59.5 q-18 22.5 -48 37 q-30 14.5 -68 23.5 q-38 9 -78 18.5 q-40 9.5 -78 23.5 q-38 14 -68 37.5 q-30 23.5 -48 60.5 q-18 37 -18 93 q0 45 14.5 81 q14.5 36 45 61.5 q30.5 25.5 78.5 39 q48 13.5 115 13.5 q135 -1 197.5 -58 q62.5 -57 62.5 -159 l-98 0 Z" /><glyph glyph-name="T" unicode="t" d="M222 0 l2 617 l-208 0 l0 95 l520 0 l0 -95 l-209 0 l-2 -617 l-103 0 Z" /><glyph glyph-name="U" unicode="u" d="M519 712 l105 0 l0 -370 q0 -92 -14 -160 q-14 -68 -46.5 -112.5 q-32.5 -44.5 -85 -66 q-52.5 -21.5 -129.5 -21.5 q-77 0 -129 21.5 q-52 21.5 -84 66 q-32 44.5 -46 112.5 q-14 68 -14 160 l0 370 l103 0 l0 -370 q0 -74 8.5 -125 q8.5 -51 28 -83 q19.5 -32 52.5 -46.5 q33 -14.5 81 -14.5 q48 0 81 14.5 q33 14.5 52.5 46.5 q19.5 32 28 83 q8.5 51 8.5 125 l0 370 Z" /><glyph glyph-name="V" unicode="v" d="M261 0 l-259 712 l114 0 l198 -575 l199 575 l107 0 l-260 -712 l-99 0 Z" /><glyph glyph-name="W" unicode="w" d="M647 0 l-164 565 l-160 -565 l-100 0 l-218 712 l114 0 l155 -581 l158 581 l106 0 l169 -589 l155 589 l108 0 l-216 -712 l-107 0 Z" /><glyph glyph-name="X" unicode="x" d="M512 0 l-201 283 l-197 -283 l-113 0 l253 363 l-248 349 l118 0 l195 -274 l191 274 l113 0 l-247 -355 l254 -357 l-118 0 Z" /><glyph glyph-name="Y" unicode="y" d="M264 0 l0 258 l-259 454 l119 0 l193 -352 l184 352 l115 0 l-249 -454 l0 -258 l-103 0 Z" /><glyph glyph-name="Z" unicode="z" d="M26 3 l0 104 l410 512 l-390 0 l0 90 l499 0 l0 -103 l-410 -512 l413 0 l0 -91 l-522 0 Z" /><glyph glyph-name="bracketleft" unicode="[" d="M80 -199 l0 959 l255 0 l0 -91 l-155 0 l0 -777 l155 0 l0 -91 l-255 0 Z" /><glyph glyph-name="backslash" unicode="\" d="M350 -40 l-310 840 l101 0 l310 -840 l-101 0 Z" /><glyph glyph-name="bracketright" unicode="]" d="M10 -199 l0 91 l155 0 l0 777 l-155 0 l0 91 l255 0 l0 -959 l-255 0 Z" /><glyph glyph-name="asciicircum" unicode="^" d="M282 466 l-79 177 l-80 -177 l-83 0 l125 272 l75 0 l125 -272 l-83 0 Z" /><glyph glyph-name="underscore" unicode="_" d="M61 0 l0 78 l416 0 l0 -78 l-416 0 Z" /><glyph glyph-name="a" unicode="a" d="M440 1 l-12 68 q-26 -38 -71.5 -59 q-45.5 -21 -114.5 -21 q-101 0 -143.5 40.5 q-42.5 40.5 -42.5 121.5 q0 39 10 66.5 q10 27.5 30 46.5 q22 21 54.5 32 q32.5 11 73.5 15.5 q41 4.5 89.5 4.5 q48.5 0 101.5 0 q-1 51 -5.5 83.5 q-4.5 32.5 -23.5 50.5 q-25 25 -89 25 q-40 0 -65 -10 q-25 -10 -39 -25 q-14 -15 -19 -32.5 q-5 -17.5 -5 -32.5 l-90 0 q0 23 6.5 53 q6.5 30 28.5 57 q22 27 64.5 45.5 q42.5 18.5 114.5 18.5 q63 0 103 -11.5 q40 -11.5 65 -32.5 q37 -32 45.5 -83.5 q8.5 -51.5 8.5 -117.5 l0 -37 l0 -127 l9 -139 l-84 0 ZM415 250 q-61 0 -110 -1.5 q-49 -1.5 -83 -10.5 q-34 -9 -52.5 -29.5 q-18.5 -20.5 -18.5 -59.5 q0 -40 24.5 -65 q24.5 -25 86.5 -25 q54 0 95.5 24 q41.5 24 57.5 73 l0 94 Z" /><glyph glyph-name="b" unicode="b" d="M79 0 l8 146 l0 614 l100 0 l0 -293 q10 13 26 27.5 q16 14.5 37.5 26.5 q21.5 12 48.5 20 q27 8 60 8 q58 0 99.5 -19.5 q41.5 -19.5 67 -55.5 q25.5 -36 37.5 -88 q12 -52 12 -118 q0 -65 -12 -116.5 q-12 -51.5 -37.5 -87.5 q-25.5 -36 -67 -55 q-41.5 -19 -99.5 -19 q-74 0 -117 24.5 q-43 24.5 -66 59.5 l-13 -74 l-84 0 ZM187 180 q5 -18 15.5 -37.5 q10.5 -19.5 29 -35 q18.5 -15.5 45 -26 q26.5 -10.5 63.5 -10.5 q69 0 100.5 50 q31.5 50 31.5 147 q0 97 -31.5 148.5 q-31.5 51.5 -100.5 51.5 q-33 0 -58.5 -10.5 q-25.5 -10.5 -44 -26 q-18.5 -15.5 -31 -33 q-12.5 -17.5 -19.5 -31.5 l0 -187 Z" /><glyph glyph-name="c" unicode="c" d="M529 181 q-4 -89 -59 -141.5 q-55 -52.5 -172 -52.5 q-70 0 -117 20 q-47 20 -75 57 q-28 37 -40 89 q-12 52 -12 116 q0 64 12 116 q12 52 40 89 q28 37 75 57 q47 20 117 20 q60 0 102.5 -14.5 q42.5 -14.5 70.5 -41.5 q28 -27 41.5 -66 q13.5 -39 15.5 -88 l-98 0 q-2 63 -36 96 q-34 33 -96 33 q-40 0 -67 -13 q-27 -13 -43.5 -38 q-16.5 -25 -24 -63 q-7.5 -38 -7.5 -87 q0 -50 7.5 -87.5 q7.5 -37.5 24 -62.5 q16.5 -25 43.5 -37.5 q27 -12.5 67 -12.5 q60 0 95 29.5 q35 29.5 36 82.5 l100 0 Z" /><glyph glyph-name="d" unicode="d" d="M466 0 l-13 74 q-23 -35 -66.5 -59.5 q-43.5 -24.5 -116.5 -24.5 q-59 0 -100 19 q-41 19 -66.5 55 q-25.5 36 -37.5 87.5 q-12 51.5 -12 116.5 q0 66 12 118 q12 52 37.5 88 q25.5 36 66.5 55.5 q41 19.5 100 19.5 q33 0 60 -7.5 q27 -7.5 48.5 -18.5 q21.5 -11 37.5 -24 q16 -13 26 -25 l0 286 l100 0 l0 -614 l8 -146 l-84 0 ZM442 365 q-7 14 -19 32 q-12 18 -30.5 33.5 q-18.5 15.5 -44 26.5 q-25.5 11 -59.5 11 q-69 0 -101 -51.5 q-32 -51.5 -32 -148.5 q0 -97 32 -147 q32 -50 101 -50 q37 0 63.5 10.5 q26.5 10.5 45 26.5 q18.5 16 29 35.5 q10.5 19.5 15.5 37.5 l0 184 Z" /><glyph glyph-name="e" unicode="e" d="M441 256 l-285 1 q0 -46 7 -82 q7 -36 23 -60.5 q16 -24.5 42.5 -37.5 q26.5 -13 67.5 -13 q40 0 66.5 11 q26.5 11 42.5 27 q16 16 22.5 33.5 q6.5 17.5 6.5 31.5 l101 0 q0 -25 -10.5 -56 q-10.5 -31 -37.5 -58.5 q-27 -27.5 -73 -46.5 q-46 -19 -117 -19 q-68 0 -114.5 18.5 q-46.5 18.5 -75 54.5 q-28.5 36 -41 88 q-12.5 52 -12.5 119 q0 67 12.5 119.5 q12.5 52.5 41 89.5 q28.5 37 75 56.5 q46.5 19.5 114.5 19.5 q128 0 184.5 -72 q56.5 -72 56.5 -224 l-97 0 ZM437 329 q-9 74 -41.5 111 q-32.5 37 -99.5 37 q-69 0 -99.5 -39.5 q-30.5 -39.5 -37.5 -108.5 l278 0 Z" /><glyph glyph-name="f" unicode="f" d="M94 0 l0 458 l-74 0 l0 81 l74 0 l0 14 q0 45 5.5 83.5 q5.5 38.5 23.5 67.5 q18 29 52 45.5 q34 16.5 92 16.5 l56 0 l0 -81 l-43 0 q-49 0 -67.5 -29.5 q-18.5 -29.5 -18.5 -102.5 l0 -14 l127 0 l0 -81 l-127 0 l0 -458 l-100 0 Z" /><glyph glyph-name="g" unicode="g" d="M443 60 q-24 -30 -65.5 -50 q-41.5 -20 -107.5 -20 q-59 0 -100 19 q-41 19 -66.5 55 q-25.5 36 -37.5 87.5 q-12 51.5 -12 116.5 q0 66 12 118 q12 52 37.5 88 q25.5 36 66.5 55.5 q41 19.5 100 19.5 q38 0 68 -10.5 q30 -10.5 53 -26 q23 -15.5 38 -32 q15 -16.5 23 -28.5 l14 87 l84 0 l-7 -150 l0 -390 q0 -41 -4 -83 q-4 -42 -27.5 -77 q-23.5 -35 -73.5 -57 q-50 -22 -142 -22 q-77 0 -120.5 23.5 q-43.5 23.5 -64.5 55.5 q-20 31 -25 61 q-5 30 -5 46 l93 0 q0 -3 1 -20.5 q1 -17.5 12.5 -37 q11.5 -19.5 37.5 -35.5 q26 -16 77 -16 q39 0 64.5 8 q25.5 8 41.5 22 q24 22 29.5 56 q5.5 34 5.5 75 l0 62 ZM443 365 q-7 13 -19 31 q-12 18 -30.5 34 q-18.5 16 -44.5 27 q-26 11 -60 11 q-69 0 -101 -51.5 q-32 -51.5 -32 -148.5 q0 -97 32 -147 q32 -50 101 -50 q38 0 65 11 q27 11 45.5 28 q18.5 17 28.5 37 q10 20 15 39 l0 179 Z" /><glyph glyph-name="h" unicode="h" d="M446 0 l0 148 q0 28 0 56 q0 28 0.5 50.5 q0.5 22.5 0.5 38 q0 15.5 0 19.5 q0 34 -4.5 62 q-4.5 28 -17 48 q-12.5 20 -33.5 30.5 q-21 10.5 -54 10.5 q-37 0 -64 -14 q-27 -14 -46.5 -33.5 q-19.5 -19.5 -31 -40.5 q-11.5 -21 -17.5 -34 q0 -50 0 -90 q0 -40 0 -78.5 q0 -38.5 0 -79.5 q0 -41 0 -93 l-100 0 l0 760 l98 0 l1 -309 q9 14 25 31.5 q16 17.5 38 32.5 q22 15 51 25.5 q29 10.5 65 10.5 q50 0 86 -11.5 q36 -11.5 59 -38.5 q23 -27 34 -71 q11 -44 11 -109 q0 -5 0 -21.5 q0 -16.5 -0.5 -39.5 q-0.5 -23 -0.5 -51.5 q0 -28.5 0 -57.5 l0 -151 l-100 0 Z" /><glyph glyph-name="k" unicode="k" d="M427 0 l-179 250 l-67 -74 l0 -176 l-100 0 l0 760 l100 0 l0 -476 l214 255 l118 0 l-201 -220 l229 -319 l-114 0 Z" /><glyph glyph-name="l" unicode="l" d="M81 0 l0 760 l100 0 l0 -760 l-100 0 Z" /><glyph glyph-name="m" unicode="m" d="M772 0 l0 148 q0 28 0 56 q0 28 0.5 50.5 q0.5 22.5 0.5 38 q0 15.5 0 19.5 q0 34 -4 62 q-4 28 -14.5 48 q-10.5 20 -30 30.5 q-19.5 10.5 -50.5 10.5 q-30 0 -53.5 -11.5 q-23.5 -11.5 -41 -28 q-17.5 -16.5 -30 -35 q-12.5 -18.5 -19.5 -33.5 q0 -8 0.5 -16.5 q0.5 -8.5 0.5 -17.5 l0 -321 l-96 0 l0 148 q0 28 0 56 q0 28 0.5 50.5 q0.5 22.5 0.5 38 q0 15.5 0 19.5 q0 34 -4 62 q-4 28 -14.5 48 q-10.5 20 -30.5 30.5 q-20 10.5 -51 10.5 q-33 0 -58.5 -14 q-25.5 -14 -43.5 -33 q-18 -19 -29.5 -40 q-11.5 -21 -17.5 -34 l0 -342 l-100 0 l0 390 l-8 149 l84 0 l15 -100 q7 13 22 32 q15 19 37 37 q22 18 51.5 30.5 q29.5 12.5 66.5 12.5 q63 0 103.5 -24.5 q40.5 -24.5 58.5 -84.5 q7 13 22 31.5 q15 18.5 37 35.5 q22 17 51 29.5 q29 12.5 65 12.5 q44 0 77.5 -11.5 q33.5 -11.5 56 -38.5 q22.5 -27 33.5 -71 q11 -44 11 -109 l0 -321 l-98 0 Z" /><glyph glyph-name="n" unicode="n" d="M446 0 l0 148 q0 28 0 56 q0 28 0.5 50.5 q0.5 22.5 0.5 38 q0 15.5 0 19.5 q0 34 -4.5 62 q-4.5 28 -17 48 q-12.5 20 -33.5 30.5 q-21 10.5 -54 10.5 q-32 0 -56.5 -11 q-24.5 -11 -43 -26.5 q-18.5 -15.5 -31.5 -34 q-13 -18.5 -20 -33.5 l0 -358 l-100 0 l0 390 l-8 149 l84 0 l14 -91 q9 14 24 32 q15 18 37.5 33.5 q22.5 15.5 52 26.5 q29.5 11 66.5 11 q50 0 86 -11.5 q36 -11.5 59 -38.5 q23 -27 34 -71 q11 -44 11 -109 q0 -5 0 -21.5 q0 -16.5 -0.5 -39.5 q-0.5 -23 -0.5 -51.5 q0 -28.5 0 -57.5 l0 -151 l-100 0 Z" /><glyph glyph-name="o" unicode="o" d="M301 -13 q-71 0 -118.5 20 q-47.5 20 -76 57 q-28.5 37 -40.5 89 q-12 52 -12 115 q0 63 12 115.5 q12 52.5 40.5 90 q28.5 37.5 76 58 q47.5 20.5 118.5 20.5 q71 0 118.5 -20.5 q47.5 -20.5 76.5 -58 q29 -37.5 41 -90 q12 -52.5 12 -115.5 q0 -63 -12 -115 q-12 -52 -41 -89 q-29 -37 -76.5 -57 q-47.5 -20 -118.5 -20 ZM300 68 q83 0 114.5 49.5 q31.5 49.5 31.5 150.5 q0 100 -31.5 151.5 q-31.5 51.5 -114.5 51.5 q-41 0 -69 -13 q-28 -13 -45 -38.5 q-17 -25.5 -24 -63.5 q-7 -38 -7 -88 q0 -50 7 -87.5 q7 -37.5 24 -62.5 q17 -25 45 -37.5 q28 -12.5 69 -12.5 Z" /><glyph glyph-name="p" unicode="p" d="M87 -240 l0 631 l-8 148 l84 0 l14 -87 q9 12 24.5 29 q15.5 17 38 32 q22.5 15 52.5 25.5 q30 10.5 67 10.5 q58 0 99.5 -19.5 q41.5 -19.5 67 -55.5 q25.5 -36 37.5 -88 q12 -52 12 -118 q0 -65 -12 -116.5 q-12 -51.5 -37.5 -87.5 q-25.5 -36 -67 -55 q-41.5 -19 -99.5 -19 q-66 0 -107 19.5 q-41 19.5 -65 49.5 l0 -299 l-100 0 ZM187 180 q5 -18 15.5 -37.5 q10.5 -19.5 29 -35 q18.5 -15.5 45 -26 q26.5 -10.5 63.5 -10.5 q69 0 100.5 50 q31.5 50 31.5 147 q0 97 -31.5 148.5 q-31.5 51.5 -100.5 51.5 q-33 0 -58.5 -11 q-25.5 -11 -44 -26.5 q-18.5 -15.5 -31 -33.5 q-12.5 -18 -19.5 -32 l0 -185 Z" /><glyph glyph-name="q" unicode="q" d="M442 -240 l0 299 q-25 -30 -66 -49.5 q-41 -19.5 -106 -19.5 q-59 0 -100 19 q-41 19 -66.5 55 q-25.5 36 -37.5 87.5 q-12 51.5 -12 116.5 q0 66 12 118 q12 52 37.5 88 q25.5 36 66.5 55.5 q41 19.5 100 19.5 q37 0 66.5 -10 q29.5 -10 52 -25 q22.5 -15 38 -31 q15.5 -16 23.5 -28 l16 84 l84 0 l-8 -136 l0 -643 l-100 0 ZM442 367 q-7 13 -19 30.5 q-12 17.5 -30.5 33.5 q-18.5 16 -44 26.5 q-25.5 10.5 -59.5 10.5 q-69 0 -101 -51.5 q-32 -51.5 -32 -148.5 q0 -97 32 -147 q32 -50 101 -50 q37 0 63.5 10.5 q26.5 10.5 45 26.5 q18.5 16 29 35.5 q10.5 19.5 15.5 37.5 l0 186 Z" /><glyph glyph-name="r" unicode="r" d="M87 0 l0 384 l-8 155 l84 0 l16 -106 q5 15 17 35 q12 20 34.5 39 q22.5 19 57 32 q34.5 13 84.5 13 l0 -93 q-53 0 -87.5 -18 q-34.5 -18 -55 -42.5 q-20.5 -24.5 -30 -49.5 q-9.5 -25 -12.5 -39 l0 -310 l-100 0 Z" /><glyph glyph-name="s" unicode="s" d="M398 382 q0 20 -6 37 q-6 17 -20 29 q-14 12 -37.5 19.5 q-23.5 7.5 -58.5 7.5 q-35 0 -57.5 -6.5 q-22.5 -6.5 -36 -17.5 q-13.5 -11 -18.5 -24 q-5 -13 -5 -26 q0 -34 25.5 -51 q25.5 -17 63.5 -27 q38 -10 83 -18 q45 -8 83 -25 q38 -17 63.5 -48 q25.5 -31 25.5 -86 q0 -78 -56 -118.5 q-56 -40.5 -175 -40.5 q-108 1 -166 45 q-58 44 -58 140 l90 0 q0 -57 35 -82.5 q35 -25.5 99 -25.5 q69 -1 98.5 21 q29.5 22 29.5 55 q0 36 -25 53.5 q-25 17.5 -63 27 q-38 9.5 -82 18 q-44 8.5 -82 25 q-38 16.5 -63.5 48 q-25.5 31.5 -25.5 88.5 q0 70 53 111 q53 41 161 40 q111 -1 162.5 -43.5 q51.5 -42.5 51.5 -125.5 l-89 0 Z" /><glyph glyph-name="t" unicode="t" d="M268 -3 q-58 0 -91.5 17 q-33.5 17 -51 46 q-17.5 29 -22 67 q-4.5 38 -4.5 81 l0 250 l-69 0 l0 81 l69 0 l0 148 l100 19 l0 -167 l132 0 l0 -81 l-132 0 l0 -250 q0 -69 17 -99.5 q17 -30.5 65 -30.5 l56 0 l0 -81 l-69 0 Z" /><glyph glyph-name="u" unicode="u" d="M453 0 l-16 99 q-7 -13 -21.5 -32 q-14.5 -19 -37.5 -37 q-23 -18 -54 -30.5 q-31 -12.5 -70 -12.5 q-48 0 -83.5 11.5 q-35.5 11.5 -59 38 q-23.5 26.5 -35 69.5 q-11.5 43 -11.5 105 l0 174 q0 70 1 154 l100 0 q-1 -83 -1 -149 l0 -163 q0 -35 4.5 -62.5 q4.5 -27.5 16 -47.5 q11.5 -20 32.5 -30.5 q21 -10.5 54 -10.5 q36 0 62.5 14 q26.5 14 46 33 q19.5 19 31 39.5 q11.5 20.5 17.5 33.5 l0 343 l100 0 l0 -390 l8 -149 l-84 0 Z" /><glyph glyph-name="v" unicode="v" d="M217 0 l-210 539 l113 0 l152 -437 l146 437 l108 0 l-209 -539 l-100 0 Z" /><glyph glyph-name="w" unicode="w" d="M503 0 l-120 415 l-115 -415 l-89 0 l-175 539 l104 0 l118 -420 l115 420 l91 0 l116 -417 l116 417 l96 0 l-171 -539 l-86 0 Z" /><glyph glyph-name="x" unicode="x" d="M389 0 l-140 194 l-138 -194 l-107 0 l193 267 l-188 272 l113 0 l139 -203 l141 203 l106 0 l-195 -278 l189 -261 l-113 0 Z" /><glyph glyph-name="y" unicode="y" d="M161 -219 l75 219 l-27 0 l-202 539 l113 0 l148 -445 l154 445 l107 0 l-277 -758 l-91 0 Z" /><glyph glyph-name="z" unicode="z" d="M31 3 l0 82 l0 19 l313 352 l-303 -1 l0 80 l402 0 l0 -79 l-1 0 l1 -21 l-313 -350 l313 1 l0 -83 l-412 0 Z" /><glyph glyph-name="braceleft" unicode="{" d="M372 -190 q-78 0 -125 9 q-47 9 -71.5 31 q-24.5 22 -32 58.5 q-7.5 36.5 -7.5 90.5 q0 23 -0.5 68.5 q-0.5 45.5 -0.5 119.5 q0 15 -3 25.5 q-3 10.5 -12.5 17.5 q-9.5 7 -26.5 10 q-17 3 -45 3 l0 84 q28 0 45 3 q17 3 26.5 9.5 q9.5 6.5 12.5 17 q3 10.5 3 25.5 l0 194 q0 54 7.5 89.5 q7.5 35.5 32.5 56.5 q25 21 72 29 q47 8 125 8 l0 -91 q-45 0 -72 -4.5 q-27 -4.5 -41.5 -16.5 q-14.5 -12 -19 -34 q-4.5 -22 -4.5 -56 q0 -12 0 -27.5 q0 -15.5 -0.5 -36 q-0.5 -20.5 -0.5 -47.5 q0 -27 0 -64 q0 -29 -8.5 -47.5 q-8.5 -18.5 -19 -29.5 q-10.5 -11 -20 -15.5 q-9.5 -4.5 -11.5 -5.5 q1 0 10.5 -4.5 q9.5 -4.5 20.5 -15 q11 -10.5 20 -29.5 q9 -19 9 -48 q0 -8 0 -29 q0 -21 0.5 -47.5 q0.5 -26.5 0.5 -53.5 q0 -27 0 -45 q0 -35 4.5 -56.5 q4.5 -21.5 19 -33.5 q14.5 -12 41 -16.5 q26.5 -4.5 71.5 -4.5 l0 -91 Z" /><glyph glyph-name="bar" unicode="|" d="M81 -199 l0 1019 l87 0 l0 -1019 l-87 0 Z" /><glyph glyph-name="braceright" unicode="}" d="M10 -99 q45 0 71.5 4.5 q26.5 4.5 41 16.5 q14.5 12 19 33.5 q4.5 21.5 4.5 56.5 q0 18 0 45 q0 27 0.5 53.5 q0.5 26.5 0.5 47.5 q0 21 0 29 q0 28 8.5 46.5 q8.5 18.5 19 29.5 q10.5 11 20 15.5 q9.5 4.5 11.5 5.5 q-1 0 -10.5 4.5 q-9.5 4.5 -20 15.5 q-10.5 11 -19 30 q-8.5 19 -8.5 48 q0 22 0 48 q0 26 -0.5 50 q-0.5 24 -0.5 44.5 q0 20.5 0 32.5 q0 34 -4.5 56 q-4.5 22 -19 34 q-14.5 12 -41.5 16.5 q-27 4.5 -72 4.5 l0 91 q78 0 125 -8 q47 -8 72 -29 q25 -21 32.5 -56.5 q7.5 -35.5 7.5 -89.5 l0 -194 q0 -15 3 -25.5 q3 -10.5 12.5 -17 q9.5 -6.5 26.5 -9.5 q17 -3 45 -3 l0 -84 q-28 0 -45 -3 q-17 -3 -26.5 -10 q-9.5 -7 -12.5 -17.5 q-3 -10.5 -3 -25.5 q0 -64 -0.5 -114.5 q-0.5 -50.5 -0.5 -73.5 q0 -54 -7.5 -90.5 q-7.5 -36.5 -32 -58.5 q-24.5 -22 -71.5 -31 q-47 -9 -125 -9 l0 91 Z" /><glyph glyph-name="asciitilde" unicode="~" d="M465 373 q0 -24 -4.5 -49 q-4.5 -25 -18 -45.5 q-13.5 -20.5 -38.5 -34 q-25 -13.5 -65 -13.5 q-34 0 -55.5 8.5 q-21.5 8.5 -40 19 q-18.5 10.5 -38 19 q-19.5 8.5 -48.5 8.5 q-17 0 -29 -6.5 q-12 -6.5 -19.5 -15.5 q-7.5 -9 -11 -18 q-3.5 -9 -3.5 -15 l-64 0 q0 24 4.5 49 q4.5 25 18 45.5 q13.5 20.5 38.5 34 q25 13.5 66 13.5 q34 0 55.5 -8.5 q21.5 -8.5 40 -19 q18.5 -10.5 38 -19 q19.5 -8.5 48.5 -8.5 q17 0 28.5 6.5 q11.5 6.5 19 15.5 q7.5 9 11 18 q3.5 9 3.5 15 l64 0 Z" /><glyph glyph-name="nonbreakingspace" unicode=" " d="" /><glyph glyph-name="exclamdown" unicode="¡" d="M81 -173 l6 536 l87 0 l6 -536 l-99 0 ZM81 423 l0 116 l99 0 l0 -116 l-99 0 Z" /><glyph glyph-name="cent" unicode="¢" d="M257 -26 l0 89 q-58 6 -97 28 q-39 22 -62.5 58.5 q-23.5 36.5 -33.5 85.5 q-10 49 -10 108 q0 58 10 107 q10 49 33.5 85 q23.5 36 62.5 58.5 q39 22.5 97 28.5 l0 82 l78 0 l0 -82 q99 -9 144.5 -63.5 q45.5 -54.5 48.5 -144.5 l-98 0 q-2 54 -26 85.5 q-24 31.5 -69 40.5 l0 -395 q44 8 68.5 36 q24.5 28 25.5 73 l100 0 q-4 -81 -50 -132 q-46 -51 -144 -60 l0 -88 l-78 0 ZM257 540 q-57 -13 -79 -62.5 q-22 -49.5 -22 -134.5 q0 -87 22 -136 q22 -49 79 -61 l0 394 Z" /><glyph glyph-name="sterling" unicode="£" d="M30 -4 l0 86 q26 11 47 29 q18 16 33 42 q15 26 15 65 q0 14 -1 26 q-1 12 -3 24 l-91 0 l0 77 l71 0 q-14 38 -26.5 77 q-12.5 39 -12.5 92 q0 40 13.5 75 q13.5 35 40 61.5 q26.5 26.5 66 42 q39.5 15.5 92.5 15.5 q57 0 97.5 -16 q40.5 -16 65.5 -43.5 q25 -27.5 36.5 -64.5 q11.5 -37 11.5 -80 l-105 0 q0 56 -25.5 91 q-25.5 35 -80.5 35 q-53 0 -80 -33.5 q-27 -33.5 -27 -83.5 q0 -45 13.5 -84 q13.5 -39 27.5 -84 l162 0 l0 -77 l-145 0 q2 -12 3 -24.5 q1 -12.5 1 -25.5 q0 -27 -7.5 -48.5 q-7.5 -21.5 -19.5 -38 q-12 -16.5 -26 -29 q-14 -12.5 -27 -20.5 l327 0 l0 -86 l-446 0 Z" /><glyph glyph-name="currency" unicode="¤" d="M514 98 q-29 -22 -69.5 -34 q-40.5 -12 -94.5 -12 q-55 0 -95 12 q-40 12 -69 34 l-72 -71 l-60 60 l78 77 q-17 33 -23.5 73.5 q-6.5 40.5 -6.5 85.5 q0 44 6.5 83 q6.5 39 21.5 72 l-73 73 l60 60 l64 -65 q29 24 70.5 37.5 q41.5 13.5 98.5 14.5 q53 0 92 -11.5 q39 -11.5 67 -32.5 l66 66 l60 -60 l-71 -71 q18 -35 26 -76.5 q8 -41.5 8 -89.5 q0 -45 -7 -85.5 q-7 -40.5 -24 -73.5 l74 -72 l-60 -60 l-67 66 ZM349 142 q42 0 70 13.5 q28 13.5 44.5 37.5 q16.5 24 23.5 57 q7 33 7 73 q0 40 -7 73.5 q-7 33.5 -23.5 58.5 q-16.5 25 -44.5 39 q-28 14 -70 14 q-42 0 -69.5 -14 q-27.5 -14 -44 -39 q-16.5 -25 -23.5 -58.5 q-7 -33.5 -7 -73.5 q0 -40 7 -73 q7 -33 23.5 -57 q16.5 -24 44 -37.5 q27.5 -13.5 69.5 -13.5 Z" /><glyph glyph-name="yen" unicode="¥" d="M244 0 l0 156 l-116 0 l0 58 l116 0 l0 54 l-1 1 l-115 0 l0 57 l84 0 l-210 386 l119 0 l177 -340 l168 340 l114 0 l-202 -386 l85 0 l0 -57 l-115 0 l0 -1 l-1 0 l0 -54 l116 0 l0 -58 l-116 0 l0 -156 l-103 0 Z" /><glyph glyph-name="brokenbar" unicode="¦" d="M81 -180 l0 425 l87 0 l0 -425 l-87 0 ZM81 395 l0 425 l87 0 l0 -425 l-87 0 Z" /><glyph glyph-name="section" unicode="§" d="M138 151 q0 -56 33.5 -81.5 q33.5 -25.5 105.5 -25.5 q70 0 102 22 q32 22 32 54 q0 37 -26.5 54.5 q-26.5 17.5 -66 27.5 q-39.5 10 -85.5 18 q-46 8 -85.5 24.5 q-39.5 16.5 -66 48 q-26.5 31.5 -26.5 88.5 q0 22 6 41 q6 19 15.5 34.5 q9.5 15.5 21.5 28.5 q12 13 23 22 q-29 18 -47 47 q-18 29 -18 76 q0 70 53.5 110.5 q53.5 40.5 167.5 40.5 q60 0 102.5 -11 q42.5 -11 68.5 -32 q26 -21 38 -52 q12 -31 12 -72 l-89 0 q0 19 -5.5 35.5 q-5.5 16.5 -19.5 29 q-14 12.5 -39 19.5 q-25 7 -65 7 q-37 0 -61 -7 q-24 -7 -38 -17.5 q-14 -10.5 -19.5 -23.5 q-5.5 -13 -5.5 -26 q0 -36 26.5 -52.5 q26.5 -16.5 66 -26 q39.5 -9.5 85.5 -17 q46 -7.5 85.5 -24 q39.5 -16.5 66 -47.5 q26.5 -31 26.5 -88 q0 -24 -6.5 -44 q-6.5 -20 -16.5 -35.5 q-10 -15.5 -22 -27.5 q-12 -12 -23 -20 q29 -17 48 -46 q19 -29 19 -76 q0 -78 -57 -118.5 q-57 -40.5 -177 -40.5 q-119 0 -174 43.5 q-55 43.5 -55 139.5 l90 0 ZM200 477 q-17 -15 -31 -38 q-14 -23 -14 -58 q0 -30 18.5 -46 q18.5 -16 48 -25.5 q29.5 -9.5 66 -15.5 q36.5 -6 73.5 -14 q18 14 34.5 36 q16.5 22 16.5 54 q0 31 -19 48 q-19 17 -49.5 27 q-30.5 10 -68.5 16.5 q-38 6.5 -75 15.5 Z" /><glyph glyph-name="copyright" unicode="©" d="M408 -20 q-97 0 -163.5 29.5 q-66.5 29.5 -107.5 79.5 q-41 50 -59 117 q-18 67 -18 142 q0 75 18 143 q18 68 59 119 q41 51 107.5 81 q66.5 30 163.5 30 q98 0 165 -30 q67 -30 108 -81 q41 -51 58.5 -119 q17.5 -68 17.5 -143 q0 -75 -17.5 -142 q-17.5 -67 -58.5 -117 q-41 -50 -108 -79.5 q-67 -29.5 -165 -29.5 ZM408 36 q81 0 135.5 26.5 q54.5 26.5 87 70 q32.5 43.5 46 99.5 q13.5 56 13.5 116 q0 60 -13.5 117 q-13.5 57 -46 101.5 q-32.5 44.5 -87 71.5 q-54.5 27 -135.5 27 q-81 0 -135 -27 q-54 -27 -86.5 -71.5 q-32.5 -44.5 -46.5 -101.5 q-14 -57 -14 -117 q0 -60 14 -116 q14 -56 46.5 -99.5 q32.5 -43.5 86.5 -70 q54 -26.5 135 -26.5 ZM579 290 q-1 -85 -44 -122 q-43 -37 -124 -37 q-99 0 -142 54 q-43 54 -43 167 q0 113 43 167.5 q43 54.5 142 54.5 q82 0 125 -38.5 q43 -38.5 45 -123.5 l-91 0 q-2 46 -23 67.5 q-21 21.5 -56 21.5 q-49 0 -70.5 -33.5 q-21.5 -33.5 -21.5 -115.5 q0 -78 21.5 -113 q21.5 -35 70.5 -35 q35 0 55.5 20.5 q20.5 20.5 22.5 65.5 l90 0 Z" /><glyph glyph-name="ordfeminine" unicode="ª" d="M301 360 l-11 49 q-14 -26 -42.5 -42 q-28.5 -16 -79.5 -16 q-77 0 -107.5 29 q-30.5 29 -30.5 89 q0 42 17 64.5 q17 22.5 49 32.5 q32 10 78.5 11.5 q46.5 1.5 105.5 1.5 q0 28 -1.5 48.5 q-1.5 20.5 -8.5 33.5 q-7 13 -21.5 19 q-14.5 6 -39.5 6 q-23 0 -37.5 -6 q-14.5 -6 -23 -15.5 q-8.5 -9.5 -12 -21 q-3.5 -11.5 -3.5 -22.5 l-85 0 q0 16 4 38 q4 22 19.5 41.5 q15.5 19.5 47 33 q31.5 13.5 86.5 13.5 q64 0 98.5 -14.5 q34.5 -14.5 50 -40.5 q15.5 -26 17.5 -62.5 q2 -36.5 2 -81.5 l0 -87 l6 -101 l-78 0 ZM280 533 q-37 0 -66 -1 q-29 -1 -48.5 -7 q-19.5 -6 -30 -19 q-10.5 -13 -10.5 -38 q0 -29 15.5 -45 q15.5 -16 50.5 -16 q32 0 55.5 12 q23.5 12 33.5 38 l0 76 Z" /><glyph glyph-name="guillemotleft" unicode="«" d="M346 91 l-117 158 l0 26 l117 165 l108 0 l-130 -179 l130 -170 l-108 0 ZM162 91 l-117 158 l0 26 l117 165 l108 0 l-130 -179 l130 -170 l-108 0 Z" /><glyph glyph-name="registered" unicode="®" d="M408 -20 q-97 0 -163.5 29.5 q-66.5 29.5 -107.5 79.5 q-41 50 -59 117 q-18 67 -18 142 q0 75 18 143 q18 68 59 119 q41 51 107.5 81 q66.5 30 163.5 30 q98 0 165 -30 q67 -30 108 -81 q41 -51 58.5 -119 q17.5 -68 17.5 -143 q0 -75 -17.5 -142 q-17.5 -67 -58.5 -117 q-41 -50 -108 -79.5 q-67 -29.5 -165 -29.5 ZM408 36 q81 0 135.5 26.5 q54.5 26.5 87 70 q32.5 43.5 46 99.5 q13.5 56 13.5 116 q0 60 -13.5 117 q-13.5 57 -46 101.5 q-32.5 44.5 -87 71.5 q-54.5 27 -135.5 27 q-81 0 -135 -27 q-54 -27 -86.5 -71.5 q-32.5 -44.5 -46.5 -101.5 q-14 -57 -14 -117 q0 -60 14 -116 q14 -56 46.5 -99.5 q32.5 -43.5 86.5 -70 q54 -26.5 135 -26.5 ZM499 143 l-73 138 l-20 0 l-65 0 l0 -138 l-91 0 l0 415 l158 0 q48 0 82 -6.5 q34 -6.5 56.5 -22.5 q22.5 -16 33 -43 q10.5 -27 10.5 -67 q0 -54 -20 -84 q-20 -30 -63 -43 l80 -149 l-88 0 ZM406 354 q18 0 34.5 1.5 q16.5 1.5 29 8.5 q12.5 7 19.5 19.5 q7 12.5 7 35.5 q0 23 -7 36 q-7 13 -19.5 20 q-12.5 7 -29 8.5 q-16.5 1.5 -34.5 1.5 l-65 0 l0 -131 l65 0 Z" /><glyph glyph-name="degree" unicode="°" d="M154 488 q-57 0 -85.5 31 q-28.5 31 -28.5 90 q0 60 28.5 91.5 q28.5 31.5 85.5 31.5 q57 0 86 -31.5 q29 -31.5 29 -91.5 q0 -59 -29 -90 q-29 -31 -86 -31 ZM154 545 q15 0 24.5 6 q9.5 6 14.5 15 q5 9 7 20.5 q2 11.5 2 22.5 q0 11 -2 23 q-2 12 -7 21.5 q-5 9.5 -14.5 15.5 q-9.5 6 -24.5 6 q-15 0 -24 -6 q-9 -6 -14.5 -15.5 q-5.5 -9.5 -7.5 -21.5 q-2 -12 -2 -23 q0 -11 2 -22.5 q2 -11.5 7.5 -20.5 q5.5 -9 14.5 -15 q9 -6 24 -6 Z" /><glyph glyph-name="plusminus" unicode="±" d="M275 331 l0 -112 l-87 0 l0 112 l-151 0 l0 81 l151 0 l0 110 l87 0 l0 -110 l151 0 l0 -81 l-151 0 ZM37 93 l0 85 l389 0 l0 -85 l-389 0 Z" /><glyph glyph-name="twosuperior" unicode="²" d="M19 349 l0 73 q19 14 40 31 q18 14 42 33 q24 19 50 40 q22 18 42.5 34.5 q20.5 16.5 36.5 34 q16 17.5 25.5 36 q9.5 18.5 9.5 40.5 q0 33 -19.5 53 q-19.5 20 -57.5 20 q-38 0 -57.5 -21.5 q-19.5 -21.5 -19.5 -60.5 l-94 0 q0 74 40.5 117 q40.5 43 130.5 43 q44 0 75.5 -11 q31.5 -11 52 -30.5 q20.5 -19.5 30 -46 q9.5 -26.5 9.5 -57.5 q0 -29 -9 -53.5 q-9 -24.5 -24 -46 q-15 -21.5 -33.5 -40 q-18.5 -18.5 -37.5 -35.5 q-20 -18 -37.5 -33.5 q-17.5 -15.5 -31.5 -26.5 q-17 -13 -31 -24 q52 1 95 3 q37 2 69 3 q32 1 39 1 l0 -76 l-335 0 Z" /><glyph glyph-name="threesuperior" unicode="³" d="M237 639 q67 -12 97.5 -49.5 q30.5 -37.5 30.5 -97.5 q0 -32 -10 -60 q-10 -28 -31 -48.5 q-21 -20.5 -54.5 -32.5 q-33.5 -12 -80.5 -12 q-47 0 -80 12 q-33 12 -54 32.5 q-21 20.5 -30.5 47.5 q-9.5 27 -9.5 57 l92 0 q0 -28 19.5 -51.5 q19.5 -23.5 60.5 -23.5 q45 0 65 23.5 q20 23.5 20 61.5 q0 41 -23 66 q-23 25 -74 25 q-9 0 -19.5 -1 q-10.5 -1 -18.5 -2 q-10 -2 -19 -3 l0 56 l125 99 l-208 -6 l0 76 l321 0 l0 -66 l-119 -103 Z" /><glyph glyph-name="paragraph" unicode="¶" d="M462 0 l0 670 l-75 0 l0 -670 l-87 0 l0 286 q-70 2 -119.5 13.5 q-49.5 11.5 -80.5 38.5 q-31 27 -45.5 72 q-14.5 45 -14.5 113 q0 67 14.5 112 q14.5 45 46 72 q31.5 27 80.5 38.5 q49 11.5 119 13.5 l0 1 l249 0 l0 -760 l-87 0 ZM300 668 q-35 -1 -64 -7 q-29 -6 -49.5 -21.5 q-20.5 -15.5 -31.5 -43.5 q-11 -28 -11 -73 q0 -45 11 -73.5 q11 -28.5 31.5 -44 q20.5 -15.5 49.5 -21.5 q29 -6 64 -7 l0 291 Z" /><glyph glyph-name="periodcentered" unicode="·" d="M50 234 l0 126 l101 0 l0 -126 l-101 0 Z" /><glyph glyph-name="onesuperior" unicode="¹" d="M85 346 l0 389 l-83 -38 l0 70 l115 49 l60 0 l0 -470 l-92 0 Z" /><glyph glyph-name="ordmasculine" unicode="º" d="M211 350 q-53 0 -88 13.5 q-35 13.5 -56 39.5 q-21 26 -29.5 62.5 q-8.5 36.5 -8.5 83.5 q0 46 9 83.5 q9 37.5 30 63.5 q21 26 56 40 q35 14 88 14 q52 0 87 -14 q35 -14 56 -40 q21 -26 30 -63.5 q9 -37.5 9 -83.5 q0 -47 -9 -83.5 q-9 -36.5 -30 -62.5 q-21 -26 -56.5 -39.5 q-35.5 -13.5 -87.5 -13.5 ZM211 420 q49 0 67.5 30 q18.5 30 18.5 99 q0 69 -18.5 100 q-18.5 31 -67.5 31 q-50 0 -68.5 -31 q-18.5 -31 -18.5 -100 q0 -69 18.5 -99 q18.5 -30 68.5 -30 Z" /><glyph glyph-name="guillemotright" unicode="»" d="M228 91 l128 170 l-128 179 l108 0 l117 -165 l0 -26 l-117 -158 l-108 0 ZM45 91 l128 170 l-128 179 l108 0 l117 -165 l0 -26 l-117 -158 l-108 0 Z" /><glyph glyph-name="questiondown" unicode="¿" d="M208 405 l0 116 l100 0 l0 -116 l-100 0 ZM464 18 q0 -116 -50 -174.5 q-50 -58.5 -159 -58.5 q-57 0 -96 14.5 q-39 14.5 -63 40.5 q-24 26 -34.5 61.5 q-10.5 35.5 -10.5 77.5 q0 47 12 80 q12 33 29.5 58 q17.5 25 38.5 45.5 q21 20.5 38.5 43 q17.5 22.5 29.5 49 q12 26.5 12 64.5 l0 26 l94 0 l-1 -26 q0 -48 -11.5 -81 q-11.5 -33 -28 -57.5 q-16.5 -24.5 -36.5 -44 q-20 -19.5 -36.5 -40 q-16.5 -20.5 -28 -45 q-11.5 -24.5 -11.5 -59.5 q0 -51 23 -83 q23 -32 83 -32 q59 0 82 36.5 q23 36.5 23 104.5 l101 0 Z" /><glyph glyph-name="AE" unicode="æ" d="M436 0 l0 171 l-227 0 l-94 -171 l-110 0 l397 712 l494 0 l0 -91 l-364 0 l0 -208 l314 0 l0 -89 l-314 0 l0 -233 l370 0 l0 -91 l-466 0 ZM436 585 l-174 -316 l174 0 l0 316 Z" /><glyph glyph-name="multiply" unicode="×" d="M355 112 l-133 137 l-132 -137 l-59 58 l133 139 l-133 138 l59 58 l132 -136 l131 136 l60 -58 l-133 -138 l134 -139 l-59 -58 Z" /><glyph glyph-name="Thorn" unicode="þ" d="M191 124 l0 -125 l-103 0 l0 716 l103 0 l0 -117 l141 0 q76 0 130 -10.5 q54 -10.5 88.5 -37.5 q34.5 -27 50 -73 q15.5 -46 15.5 -116 q0 -71 -15.5 -117 q-15.5 -46 -50 -72.5 q-34.5 -26.5 -89 -37 q-54.5 -10.5 -131.5 -10.5 l-139 0 ZM330 215 q40 0 74 4 q34 4 58 19 q24 15 37.5 44 q13.5 29 13.5 79 q0 49 -13.5 78 q-13.5 29 -37.5 44 q-24 15 -58 19.5 q-34 4.5 -74 4.5 l-139 0 l0 -292 l139 0 Z" /><glyph glyph-name="germandbls" unicode="ß" d="M233 81 q55 0 95.5 5.5 q40.5 5.5 67.5 21 q27 15.5 40 42.5 q13 27 13 69 q0 48 -19 75.5 q-19 27.5 -49 41 q-30 13.5 -66.5 17.5 q-36.5 4 -70.5 6 l0 83 q30 0 62 5.5 q32 5.5 58.5 19.5 q26.5 14 43 37.5 q16.5 23.5 16.5 59.5 q0 57 -27.5 90 q-27.5 33 -92.5 33 l0 81 q67 0 110.5 -16.5 q43.5 -16.5 68 -45 q24.5 -28.5 34 -65.5 q9.5 -37 9.5 -77 q0 -48 -21.5 -79.5 q-21.5 -31.5 -48 -49.5 q-26.5 -18 -50 -25.5 q-23.5 -7.5 -28.5 -8.5 q1 0 14.5 -0.5 q13.5 -0.5 32.5 -5.5 q19 -5 41 -16 q22 -11 41 -31 q19 -20 31.5 -51.5 q12.5 -31.5 12.5 -77.5 q0 -55 -16 -96 q-16 -41 -53 -68.5 q-37 -27.5 -98 -41 q-61 -13.5 -151 -13.5 l0 81 ZM181 0 l-100 0 l0 538 q0 50 10 92 q10 42 35.5 72.5 q25.5 30.5 68.5 48 q43 17.5 109 17.5 l0 -81 q-63 -1 -93 -33.5 q-30 -32.5 -30 -89.5 l0 -564 Z" /><glyph glyph-name="ae" unicode="æ" d="M793 252 l-285 1 q1 -45 8 -80.5 q7 -35.5 23 -59.5 q16 -24 42.5 -36.5 q26.5 -12.5 66.5 -12.5 q40 0 66.5 11 q26.5 11 42.5 27 q16 16 22.5 33.5 q6.5 17.5 6.5 31.5 l101 0 q0 -25 -10.5 -56 q-10.5 -31 -37.5 -58.5 q-27 -27.5 -73 -46.5 q-46 -19 -117 -19 q-82 0 -133 26.5 q-51 26.5 -77 77.5 q-23 -47 -70.5 -74.5 q-47.5 -27.5 -126.5 -27.5 q-101 0 -143.5 42 q-42.5 42 -42.5 123 q0 63 26.5 97 q26.5 34 73.5 49.5 q47 15.5 111.5 17.5 q64.5 2 140.5 2 q2 17 4 33 q2 16 6 31 q-8 48 -34 69.5 q-26 21.5 -87 21.5 q-40 0 -65 -10 q-25 -10 -39 -25 q-14 -15 -19 -32.5 q-5 -17.5 -5 -32.5 l-90 0 q0 23 6.5 53 q6.5 30 28.5 57 q22 27 64.5 45.5 q42.5 18.5 114.5 18.5 q74 0 111.5 -20 q37.5 -20 54.5 -53 q29 37 75 56.5 q46 19.5 115 19.5 q128 0 184.5 -72.5 q56.5 -72.5 56.5 -227.5 l-97 0 ZM415 163 q-9 40 -9 91 q-59 0 -106.5 -1.5 q-47.5 -1.5 -80.5 -11.5 q-33 -10 -50.5 -30.5 q-17.5 -20.5 -17.5 -58.5 q0 -40 24.5 -66.5 q24.5 -26.5 86.5 -26.5 q56 0 97.5 25.5 q41.5 25.5 55.5 78.5 ZM789 325 q-8 77 -41 114.5 q-33 37.5 -100 37.5 q-70 0 -100.5 -40.5 q-30.5 -40.5 -37.5 -111.5 l279 0 Z" /><glyph glyph-name="eth" unicode="ð" d="M545 290 q1 -5 1 -11 q0 -6 0 -11 q0 -63 -12 -115 q-12 -52 -40.5 -89 q-28.5 -37 -76 -57 q-47.5 -20 -117.5 -20 q-71 0 -118 20 q-47 20 -75.5 57 q-28.5 37 -40.5 89 q-12 52 -12 115 q0 58 12 108 q12 50 40.5 86 q28.5 36 75.5 56.5 q47 20.5 118 20.5 q23 0 44 -6.5 q21 -6.5 38 -16.5 q-26 54 -57 100 l-87 -46 l-29 48 l83 44 q-18 23 -33.5 41 q-15.5 18 -27.5 31 q-14 15 -26 26 l126 0 q6 -6 13 -14 q6 -7 14.5 -16.5 q8.5 -9.5 19.5 -22.5 l80 42 l29 -48 l-75 -40 q21 -31 43.5 -70.5 q22.5 -39.5 41 -86.5 q18.5 -47 31.5 -100.5 q13 -53.5 16 -113.5 l1 0 ZM442 290 q-1 20 -3.5 39 q-2.5 19 -6.5 38 l0 -1 q-4 15 -14.5 33.5 q-10.5 18.5 -27 34.5 q-16.5 16 -39 26.5 q-22.5 10.5 -52.5 10.5 q-81 0 -112 -51.5 q-31 -51.5 -31 -151.5 q0 -101 31 -150.5 q31 -49.5 112 -49.5 q80 0 111.5 48.5 q31.5 48.5 32.5 146.5 q0 7 0 13 q0 6 -1 13 l0 1 Z" /><glyph glyph-name="divide" unicode="÷" d="M30 282 l0 85 l422 0 l0 -85 l-422 0 ZM194 111 l0 118 l94 0 l0 -118 l-94 0 ZM194 420 l0 118 l94 0 l0 -118 l-94 0 Z" /><glyph glyph-name="thorn" unicode="þ" d="M79 -240 l0 1000 l98 0 l0 -296 q10 13 26 28 q16 15 37.5 27.5 q21.5 12.5 48.5 21 q27 8.5 60 8.5 q58 0 99.5 -19.5 q41.5 -19.5 67 -55.5 q25.5 -36 37.5 -88 q12 -52 12 -118 q0 -65 -12 -116.5 q-12 -51.5 -37.5 -87.5 q-25.5 -36 -67 -55 q-41.5 -19 -99.5 -19 q-66 0 -107 19.5 q-41 19.5 -65 49.5 l0 -299 l-98 0 ZM177 180 q5 -18 15.5 -37.5 q10.5 -19.5 29 -35 q18.5 -15.5 45 -26 q26.5 -10.5 63.5 -10.5 q69 0 100.5 50 q31.5 50 31.5 147 q0 97 -31.5 148.5 q-31.5 51.5 -100.5 51.5 q-33 0 -58.5 -11 q-25.5 -11 -44 -26.5 q-18.5 -15.5 -31 -33.5 q-12.5 -18 -19.5 -32 l0 -185 Z" /><glyph glyph-name="dotlessi" unicode="&#x131;" d="M69 0 l0 539 l100 0 l0 -539 l-100 0 Z" /><glyph glyph-name="kgreenlandic" unicode="&#x138;" d="M427 0 l-179 250 l-67 -74 l0 -176 l-100 0 l0 539 l100 0 l0 -255 l214 255 l118 0 l-201 -220 l229 -319 l-114 0 Z" /><glyph glyph-name="Ldot" unicode="&#x13f;" d="M88 0 l0 712 l103 0 l0 -617 l300 0 l0 -95 l-403 0 ZM269 289 l0 125 l100 0 l0 -125 l-100 0 Z" /><glyph glyph-name="ldot" unicode="&#x140;" d="M81 0 l0 760 l100 0 l0 -760 l-100 0 ZM221 321 l0 125 l100 0 l0 -125 l-100 0 Z" /><glyph glyph-name="Eng" unicode="&#x14a;" d="M363 -225 l0 92 l66 0 q66 0 93.5 33.5 q27.5 33.5 28.5 98.5 l-1 0 l-373 578 l9 -577 l-98 0 l2 712 l85 0 l0 -2 l28 2 l354 -575 l-10 575 l98 0 l0 -712 q0 -47 -9 -88 q-9 -41 -33 -71.5 q-24 -30.5 -67.5 -48 q-43.5 -17.5 -112.5 -17.5 l-60 0 Z" /><glyph glyph-name="eng" unicode="&#x14b;" d="M328 -115 q43 0 67 8 q24 8 35.5 27 q11.5 19 13.5 49.5 q2 30.5 2 75.5 l0 92 q0 30 0.5 59.5 q0.5 29.5 0.5 53.5 q0 24 0 41 q0 17 0 21 q0 34 -4.5 62 q-4.5 28 -17 48 q-12.5 20 -33.5 30.5 q-21 10.5 -54 10.5 q-32 0 -56.5 -11 q-24.5 -11 -43 -26.5 q-18.5 -15.5 -31.5 -34 q-13 -18.5 -20 -33.5 l0 -358 l-100 0 l0 390 l-8 149 l84 0 l14 -91 q9 14 24 32 q15 18 37.5 33.5 q22.5 15.5 52 26.5 q29.5 11 66.5 11 q50 0 86 -11.5 q36 -11.5 59 -38.5 q23 -27 34 -71 q11 -44 11 -109 l1 0 l-1 -276 q0 -72 -7 -119 q-7 -47 -29.5 -74.5 q-22.5 -27.5 -66 -39 q-43.5 -11.5 -116.5 -11.5 l0 84 Z" /><glyph glyph-name="OE" unicode="&#x152;" d="M342 0 q-77 0 -130.5 23.5 q-53.5 23.5 -87.5 69 q-34 45.5 -49 111.5 q-15 66 -15 151 q0 85 15 151.5 q15 66.5 49 112 q34 45.5 87.5 69.5 q53.5 24 130.5 24 l596 0 l0 -91 l-364 0 l0 -208 l314 0 l0 -89 l-314 0 l0 -233 l370 0 l0 -91 l-602 0 ZM472 627 l-117 0 q-53 0 -89.5 -16.5 q-36.5 -16.5 -59 -50 q-22.5 -33.5 -32.5 -85 q-10 -51.5 -10 -120.5 q0 -69 10 -120 q10 -51 32.5 -84 q22.5 -33 59 -49.5 q36.5 -16.5 89.5 -16.5 l117 0 l0 542 Z" /><glyph glyph-name="oe" unicode="&#x153;" d="M824 249 l-285 1 q1 -45 8 -79.5 q7 -34.5 23 -58 q16 -23.5 42.5 -36 q26.5 -12.5 66.5 -12.5 q40 0 66.5 11 q26.5 11 42.5 27 q16 16 22.5 33.5 q6.5 17.5 6.5 31.5 l101 0 q0 -25 -10.5 -56 q-10.5 -31 -37.5 -58.5 q-27 -27.5 -73 -46.5 q-46 -19 -117 -19 q-72 0 -117 20.5 q-45 20.5 -71 60.5 q-26 -39 -72 -60 q-46 -21 -119 -21 q-71 0 -118.5 20 q-47.5 20 -76 57 q-28.5 37 -40.5 89 q-12 52 -12 115 q0 63 12 115.5 q12 52.5 40.5 90 q28.5 37.5 76 58 q47.5 20.5 118.5 20.5 q73 0 119 -22 q46 -22 72 -62 q26 41 71 62.5 q45 21.5 117 21.5 q127 0 184.5 -73 q57.5 -73 57.5 -230 l-98 0 ZM300 68 q42 0 69.5 12.5 q27.5 12.5 44.5 37.5 q17 25 24 62.5 q7 37.5 7 87.5 q0 100 -31 151.5 q-31 51.5 -114 51.5 q-41 0 -69 -13 q-28 -13 -45 -38.5 q-17 -25.5 -24 -63.5 q-7 -38 -7 -88 q0 -50 7 -87.5 q7 -37.5 24 -62.5 q17 -25 45 -37.5 q28 -12.5 69 -12.5 ZM820 322 q-8 78 -40.5 116.5 q-32.5 38.5 -100.5 38.5 q-35 0 -60 -10.5 q-25 -10.5 -41.5 -31 q-16.5 -20.5 -25 -49 q-8.5 -28.5 -11.5 -64.5 l279 0 Z" /><glyph glyph-name="Tbar" unicode="&#x166;" d="M226 0 l1 320 l-119 0 l0 81 l120 0 l0 216 l-208 0 l0 95 l520 0 l0 -95 l-209 0 l0 -216 l121 0 l0 -81 l-122 0 l-1 -320 l-103 0 Z" /><glyph glyph-name="uni018F" unicode="&#x18f;" d="M546 365 q-1 72 -11.5 123.5 q-10.5 51.5 -33 85 q-22.5 33.5 -58.5 49.5 q-36 16 -88 16 q-82 0 -125.5 -39 q-43.5 -39 -57.5 -126 l-105 0 q18 127 86 191.5 q68 64.5 202 64.5 q81 0 137.5 -24 q56.5 -24 91 -71 q34.5 -47 50 -117 q15.5 -70 15.5 -163 q0 -92 -15.5 -162 q-15.5 -70 -50 -117 q-34.5 -47 -91 -70.5 q-56.5 -23.5 -137.5 -23.5 q-82 0 -138 24 q-56 24 -91 72 q-35 48 -50.5 120 q-15.5 72 -15.5 168 l104 0 l382 -1 ZM166 292 q9 -116 52.5 -167.5 q43.5 -51.5 136.5 -51.5 q94 0 137.5 52.5 q43.5 52.5 51.5 166.5 l-378 0 Z" /><glyph glyph-name="uni019D" unicode="&#x19d;" d="M560 -1 l0 1 l-22 -1 l-360 577 l8 -559 l1 0 q0 -53 -8.5 -97.5 q-8.5 -44.5 -32 -76.5 q-23.5 -32 -65 -50 q-41.5 -18 -107.5 -18 l-59 0 l0 92 l66 0 q33 0 54 9 q21 9 32.5 27 q11.5 18 16 46.5 q4.5 28.5 4.5 67.5 l1 0 l2 695 l85 0 l0 -2 l28 2 l353 -573 l-10 573 l98 0 l0 -713 l-85 0 Z" /><glyph glyph-name="uni021A" unicode="&#x21a;" d="M226 0 l2 617 l-208 0 l0 95 l520 0 l0 -95 l-209 0 l-2 -617 l-103 0 ZM163 -265 q7 15 15 33 q7 16 14.5 37 q7.5 21 14.5 45 q6 21 9 38 q3 17 5 30 q2 14 2 26 l99 0 q-1 -14 -4 -30 q-2 -14 -6 -32.5 q-4 -18.5 -11 -38.5 q-8 -26 -17 -46 q-9 -20 -17 -34 q-9 -17 -18 -28 l-86 0 Z" /><glyph glyph-name="uni0237" unicode="&#x237;" d="M-32 -120 q44 0 68 8 q24 8 35.5 26.5 q11.5 18.5 13.5 49 q2 30.5 2 75.5 l0 500 l100 0 l0 -500 q0 -72 -6.5 -119 q-6.5 -47 -29.5 -74.5 q-23 -27.5 -66.5 -39 q-43.5 -11.5 -116.5 -11.5 l0 85 Z" /><glyph glyph-name="uni0259" unicode="&#x259;" d="M437 289 q-1 44 -8.5 78.5 q-7.5 34.5 -23.5 58.5 q-16 24 -42.5 36.5 q-26.5 12.5 -66.5 12.5 q-40 0 -66.5 -11 q-26.5 -11 -42 -27 q-15.5 -16 -22 -34 q-6.5 -18 -7.5 -31 l-100 0 q0 25 10.5 56 q10.5 31 37.5 58.5 q27 27.5 73 46.5 q46 19 117 19 q68 0 114 -18.5 q46 -18.5 74.5 -54.5 q28.5 -36 41 -88 q12.5 -52 12.5 -119 q0 -67 -12.5 -120 q-12.5 -53 -41 -89.5 q-28.5 -36.5 -74.5 -56 q-46 -19.5 -114 -19.5 q-128 0 -185 73 q-57 73 -57 230 l97 0 l286 -1 ZM154 217 q9 -79 41.5 -117 q32.5 -38 100.5 -38 q70 0 101 41 q31 41 38 114 l-281 0 Z" /><glyph glyph-name="uni0272" unicode="&#x272;" d="M448 0 l0 148 q0 28 0 56 q0 28 0.5 50.5 q0.5 22.5 0.5 38 q0 15.5 0 19.5 q0 34 -4.5 62 q-4.5 28 -17 48 q-12.5 20 -33.5 30.5 q-21 10.5 -54 10.5 q-32 0 -57 -11 q-25 -11 -43.5 -27.5 q-18.5 -16.5 -31.5 -35 q-13 -18.5 -20 -33.5 l0 -35 l0 -59 l-1 -217 q0 -72 -6.5 -119 q-6.5 -47 -29.5 -74.5 q-23 -27.5 -66.5 -39 q-43.5 -11.5 -116.5 -11.5 l0 84 q44 0 68 8 q24 8 35 27 q11 19 13.5 49.5 q2.5 30.5 2.5 75.5 l1 267 l0 78 l-8 149 l84 0 l14 -92 q9 14 24 32 q15 18 37.5 34 q22.5 16 52.5 27 q30 11 67 11 q50 0 86 -11.5 q36 -11.5 59 -38.5 q23 -27 34 -71 q11 -44 11 -109 q0 -5 0 -21.5 q0 -16.5 -0.5 -39.5 q-0.5 -23 -0.5 -51.5 q0 -28.5 0 -57.5 l0 -151 l-100 0 Z" /><glyph glyph-name="gravecomb" unicode="&#x300;" d="M145 621 l-98 152 l112 0 l77 -152 l-91 0 Z" /><glyph glyph-name="acutecomb" unicode="&#x301;" d="M54 621 l77 152 l112 0 l-98 -152 l-91 0 Z" /><glyph glyph-name="uni0302" unicode="&#x302;" d="M264 621 l-64 82 l-63 -82 l-96 0 l116 152 l85 0 l117 -152 l-95 0 Z" /><glyph glyph-name="tildecomb" unicode="&#x303;" d="M357 743 q0 -56 -17 -87 q-17 -31 -71 -31 q-21 0 -35 6 q-14 6 -24.5 13.5 q-10.5 7.5 -20.5 14 q-10 6.5 -25 6.5 q-15 0 -24 -5 q-9 -5 -14.5 -12.5 q-5.5 -7.5 -7.5 -15 q-2 -7.5 -2 -11.5 l-53 0 q0 23 4 43.5 q4 20.5 14 36.5 q10 16 27.5 25 q17.5 9 44.5 9 q22 0 35 -5.5 q13 -5.5 23.5 -12.5 q10.5 -7 20 -12.5 q9.5 -5.5 24.5 -5.5 q15 0 24 5 q9 5 14.5 12.5 q5.5 7.5 7.5 14.5 q2 7 2 12 l53 0 Z" /><glyph glyph-name="uni0304" unicode="&#x304;" d="M60 644 l0 78 l261 0 l0 -78 l-261 0 Z" /><glyph glyph-name="uni0306" unicode="&#x306;" d="M314 749 q0 -27 -9.5 -50.5 q-9.5 -23.5 -28 -41.5 q-18.5 -18 -45 -28.5 q-26.5 -10.5 -60.5 -10.5 q-34 0 -60.5 10.5 q-26.5 10.5 -45 28.5 q-18.5 18 -28 41.5 q-9.5 23.5 -9.5 50.5 l78 0 q0 -19 17.5 -38 q17.5 -19 47.5 -19 q31 0 48.5 19 q17.5 19 17.5 38 l77 0 Z" /><glyph glyph-name="uni0307" unicode="&#x307;" d="M70 622 l0 134 l100 0 l0 -134 l-100 0 Z" /><glyph glyph-name="uni0308" unicode="&#x308;" d="M82 622 l0 134 l100 0 l0 -134 l-100 0 ZM254 622 l0 134 l100 0 l0 -134 l-100 0 Z" /><glyph glyph-name="uni030A" unicode="&#x30a;" d="M247 714 q0 -19 -6 -37 q-6 -18 -18.5 -31.5 q-12.5 -13.5 -32 -22 q-19.5 -8.5 -45.5 -8.5 q-27 0 -46 8.5 q-19 8.5 -32 22 q-13 13.5 -19 31.5 q-6 18 -6 37 q0 19 6 36.5 q6 17.5 19 31 q13 13.5 32 22 q19 8.5 46 8.5 q26 0 45.5 -8.5 q19.5 -8.5 32 -22 q12.5 -13.5 18.5 -31 q6 -17.5 6 -36.5 ZM145 678 q15 0 24.5 9.5 q9.5 9.5 9.5 26.5 q0 16 -9.5 25.5 q-9.5 9.5 -24.5 9.5 q-16 0 -25.5 -9.5 q-9.5 -9.5 -9.5 -25.5 q0 -17 9.5 -26.5 q9.5 -9.5 25.5 -9.5 Z" /><glyph glyph-name="uni030B" unicode="&#x30b;" d="M54 621 l74 152 l112 0 l-95 -152 l-91 0 ZM212 621 l90 152 l112 0 l-111 -152 l-91 0 Z" /><glyph glyph-name="uni030C" unicode="&#x30c;" d="M157 621 l-116 152 l96 0 l63 -82 l63 82 l96 0 l-117 -152 l-85 0 Z" /><glyph glyph-name="uni0312" unicode="&#x312;" d="M47 586 q0 13 3 31 q2 15 6 37 q4 22 12 51 q8 30 18 53.5 q10 23.5 18 40.5 q10 19 20 35 l89 0 q-9 -18 -17 -39 q-8 -18 -15.5 -43 q-7.5 -25 -13.5 -53 q-7 -29 -10 -50 q-3 -21 -5 -35 q-2 -17 -2 -28 l-103 0 Z" /><glyph glyph-name="dotbelowcomb" unicode="&#x323;" d="M70 -188 l0 127 l100 0 l0 -127 l-100 0 Z" /><glyph glyph-name="uni0326" unicode="&#x326;" d="M31 -264 q7 15 15 33 q7 16 14.5 37 q7.5 21 14.5 45 q6 21 9 38 q3 17 5 30 q2 14 2 26 l99 0 q-1 -14 -4 -30 q-2 -14 -6 -32 q-4 -18 -11 -39 q-8 -26 -17 -46 q-9 -20 -17 -34 q-9 -17 -18 -28 l-86 0 Z" /><glyph glyph-name="uni0327" unicode="&#x327;" d="M66 -166 q6 -2 15 -3 q15 -3 46 -3 q29 0 44 9.5 q15 9.5 15 32.5 q0 15 -9.5 23 q-9.5 8 -24.5 12.5 q-15 4.5 -32.5 5.5 q-17.5 1 -32.5 1 l-3 0 l48 91 l81 0 l-32 -55 q38 -3 64 -22 q26 -19 26 -62 q0 -21 -6.5 -39 q-6.5 -18 -21 -31 q-14.5 -13 -38.5 -20.5 q-24 -7.5 -59 -7.5 q-45 0 -63 3 q-11 1 -17 3 l0 62 Z" /><glyph glyph-name="uni0328" unicode="&#x328;" d="M192 -170 q0 0 -6 -4 q-6 -4 -18 -8.5 q-12 -4.5 -29 -8.5 q-17 -4 -38 -4 q-42 0 -61.5 22.5 q-19.5 22.5 -19.5 54.5 q0 30 14.5 53.5 q14.5 23.5 31.5 40.5 q20 19 47 34 l70 -8 q-1 -1 -13 -7 q-12 -6 -25.5 -18 q-13.5 -12 -24.5 -29 q-11 -17 -11 -39 q0 -16 9 -26 q9 -10 26 -10 q9 0 17.5 2 q8.5 2 15.5 4 q8 3 15 7 l0 -56 Z" /><glyph glyph-name="uni0335" unicode="&#x335;" d="M45 298 l0 67 l304 0 l0 -67 l-304 0 Z" /><glyph glyph-name="uni0336" unicode="&#x336;" d="M87 294 l0 78 l675 0 l0 -78 l-675 0 Z" /><glyph glyph-name="uni0337" unicode="&#x337;" d="M91 189 l-37 66 l302 177 l38 -66 l-303 -177 Z" /><glyph glyph-name="uni0338" unicode="&#x338;" d="M-48 103 l403 556 l82 0 l-404 -556 l-81 0 Z" /><glyph glyph-name="pi" unicode="&#x3c0;" d="M539 0 q-56 0 -87.5 14 q-31.5 14 -47 40.5 q-15.5 26.5 -19 65 q-3.5 38.5 -3.5 87.5 l0 271 l-168 0 l0 -478 l-87 0 l0 478 l-90 0 l0 84 l522 0 l0 -84 l-90 0 l0 -271 q0 -27 0.5 -51 q0.5 -24 6.5 -43 q6 -19 20.5 -30 q14.5 -11 42.5 -11 l24 0 l0 -72 l-24 0 Z" /><glyph glyph-name="uni2009" unicode="&#x2009;" d="" /><glyph glyph-name="endash" unicode="&#x2013;" d="M61 281 l0 78 l416 0 l0 -78 l-416 0 Z" /><glyph glyph-name="emdash" unicode="&#x2014;" d="M61 281 l0 78 l776 0 l0 -78 l-776 0 Z" /><glyph glyph-name="uni2016" unicode="&#x2016;" d="M81 -180 l0 1000 l87 0 l0 -1000 l-87 0 ZM266 -180 l0 1000 l87 0 l0 -1000 l-87 0 Z" /><glyph glyph-name="quoteleft" unicode="&#x2018;" d="M17 512 q0 13 3 31 q2 15 6 37 q4 22 12 51 q8 30 18 53.5 q10 23.5 18 40.5 q10 19 20 35 l89 0 q-9 -19 -17 -40 q-8 -19 -15.5 -43 q-7.5 -24 -13.5 -52 q-7 -29 -10 -50 q-3 -21 -5 -35 q-2 -17 -2 -28 l-103 0 Z" /><glyph glyph-name="quoteright" unicode="&#x2019;" d="M7 512 q8 18 17 40 q8 18 15.5 42.5 q7.5 24.5 14.5 52.5 q6 29 9 50 q3 21 5 35 q2 17 2 28 l103 0 q0 -13 -3 -31 q-2 -15 -6 -37.5 q-4 -22.5 -12 -50.5 q-8 -30 -18 -54 q-10 -24 -18 -41 q-10 -19 -20 -34 l-89 0 Z" /><glyph glyph-name="quotedblleft" unicode="&#x201c;" d="M194 512 q0 13 3 31 q2 15 6 37 q4 22 12 51 q8 30 18 53.5 q10 23.5 18 40.5 q10 19 20 35 l89 0 q-9 -19 -17 -40 q-8 -19 -15.5 -43 q-7.5 -24 -13.5 -52 q-7 -29 -10 -50 q-3 -21 -5 -35 q-2 -17 -2 -28 l-103 0 ZM20 512 q0 13 3 31 q2 15 6 37 q4 22 12 51 q8 30 18 53.5 q10 23.5 18 40.5 q10 19 20 35 l89 0 q-9 -19 -17 -40 q-8 -19 -15.5 -43 q-7.5 -24 -13.5 -52 q-7 -29 -10 -50 q-3 -21 -5 -35 q-2 -17 -2 -28 l-103 0 Z" /><glyph glyph-name="quotedblright" unicode="&#x201d;" d="M177 512 q8 18 17 40 q8 18 15.5 42.5 q7.5 24.5 14.5 52.5 q6 29 9 50 q3 21 5 35 q2 17 2 28 l103 0 q0 -13 -3 -31 q-2 -15 -6 -37.5 q-4 -22.5 -12 -50.5 q-8 -30 -18 -54 q-10 -24 -18 -41 q-10 -19 -20 -34 l-89 0 ZM4 512 q8 18 17 40 q8 18 15.5 42.5 q7.5 24.5 14.5 52.5 q6 29 9 50 q3 21 5 35 q2 17 2 28 l103 0 q0 -13 -3 -31 q-2 -15 -6 -37.5 q-4 -22.5 -12 -50.5 q-8 -30 -18 -54 q-10 -24 -18 -41 q-10 -19 -20 -34 l-89 0 Z" /><glyph glyph-name="quotedblbase" unicode="&#x201e;" d="M176 -129 q8 18 17 39 q8 18 15.5 42.5 q7.5 24.5 14.5 53.5 q6 28 9 49 q3 21 5 35 q2 17 2 28 l103 0 q0 -13 -3 -31 q-2 -15 -6 -37.5 q-4 -22.5 -12 -50.5 q-8 -30 -18 -53.5 q-10 -23.5 -18 -40.5 q-10 -19 -20 -34 l-89 0 ZM4 -129 q8 18 17 39 q8 18 15.5 42.5 q7.5 24.5 14.5 53.5 q6 28 9 49 q3 21 5 35 q2 17 2 28 l103 0 q0 -13 -3 -31 q-2 -15 -6 -37.5 q-4 -22.5 -12 -50.5 q-8 -30 -18 -53.5 q-10 -23.5 -18 -40.5 q-10 -19 -20 -34 l-89 0 Z" /><glyph glyph-name="dagger" unicode="&#x2020;" d="M214 0 l0 504 l-154 0 l0 84 l154 0 l0 191 l87 0 l0 -191 l155 0 l0 -84 l-155 0 l0 -504 l-87 0 Z" /><glyph glyph-name="daggerdbl" unicode="&#x2021;" d="M214 0 l0 192 l-154 0 l0 84 l154 0 l0 228 l-154 0 l0 84 l154 0 l0 191 l87 0 l0 -191 l155 0 l0 -84 l-155 0 l0 -228 l155 0 l0 -84 l-155 0 l0 -192 l-87 0 Z" /><glyph glyph-name="bullet" unicode="&#x2022;" d="M134 220 l0 155 l141 0 l0 -155 l-141 0 Z" /><glyph glyph-name="ellipsis" unicode="&#x2026;" d="M66 0 l0 125 l101 0 l0 -125 l-101 0 ZM254 0 l0 125 l101 0 l0 -125 l-101 0 ZM441 0 l0 125 l101 0 l0 -125 l-101 0 Z" /><glyph glyph-name="perthousand" unicode="&#x2030;" d="M120 0 l460 702 l88 0 l-460 -702 l-88 0 ZM200 362 q-47 0 -78.5 12 q-31.5 12 -51 34.5 q-19.5 22.5 -28 54.5 q-8.5 32 -8.5 73 q0 41 8.5 73.5 q8.5 32.5 28 55.5 q19.5 23 51 35.5 q31.5 12.5 78.5 12.5 q46 0 78 -12.5 q32 -12.5 51 -35.5 q19 -23 27.5 -55.5 q8.5 -32.5 8.5 -73.5 q0 -41 -8.5 -73 q-8.5 -32 -27.5 -54.5 q-19 -22.5 -51 -34.5 q-32 -12 -78 -12 ZM200 425 q50 0 67.5 28 q17.5 28 17.5 83 q0 55 -17.5 84.5 q-17.5 29.5 -67.5 29.5 q-50 0 -68.5 -29.5 q-18.5 -29.5 -18.5 -84.5 q0 -55 18.5 -83 q18.5 -28 68.5 -28 ZM586 -12 q-47 0 -78.5 12 q-31.5 12 -51 34.5 q-19.5 22.5 -28 54.5 q-8.5 32 -8.5 73 q0 41 8.5 74 q8.5 33 28 56 q19.5 23 51 35.5 q31.5 12.5 78.5 12.5 q46 0 78 -12.5 q32 -12.5 51 -35.5 q19 -23 27.5 -56 q8.5 -33 8.5 -74 q0 -41 -8.5 -73 q-8.5 -32 -27.5 -54.5 q-19 -22.5 -51 -34.5 q-32 -12 -78 -12 ZM586 51 q50 0 67.5 28 q17.5 28 17.5 83 q0 55 -17.5 85 q-17.5 30 -67.5 30 q-50 0 -68.5 -30 q-18.5 -30 -18.5 -85 q0 -55 18.5 -83 q18.5 -28 68.5 -28 ZM957 -12 q-47 0 -78.5 12 q-31.5 12 -51 34.5 q-19.5 22.5 -28 54.5 q-8.5 32 -8.5 73 q0 41 8.5 74 q8.5 33 28 56 q19.5 23 51 35.5 q31.5 12.5 78.5 12.5 q46 0 78 -12.5 q32 -12.5 51 -35.5 q19 -23 27.5 -56 q8.5 -33 8.5 -74 q0 -41 -8.5 -73 q-8.5 -32 -27.5 -54.5 q-19 -22.5 -51 -34.5 q-32 -12 -78 -12 ZM957 51 q50 0 67.5 28 q17.5 28 17.5 83 q0 55 -17.5 85 q-17.5 30 -67.5 30 q-50 0 -68.5 -30 q-18.5 -30 -18.5 -85 q0 -55 18.5 -83 q18.5 -28 68.5 -28 Z" /><glyph glyph-name="guilsinglleft" unicode="&#x2039;" d="M164 91 l-117 158 l0 26 l117 165 l108 0 l-130 -179 l130 -170 l-108 0 Z" /><glyph glyph-name="guilsinglright" unicode="&#x203a;" d="M46 91 l128 170 l-128 179 l108 0 l117 -165 l0 -26 l-117 -158 l-108 0 Z" /><glyph glyph-name="fraction" unicode="&#x2044;" d="M-163 -40 l476 814 l92 0 l-476 -814 l-92 0 Z" /><glyph glyph-name="uni2070" unicode="&#x2070;" d="M31 575 q0 62 9 108.5 q9 46.5 31 77 q22 30.5 57.5 46 q35.5 15.5 89.5 15.5 q54 0 89.5 -15.5 q35.5 -15.5 57 -46 q21.5 -30.5 30.5 -77 q9 -46.5 9 -108.5 q0 -59 -9 -103.5 q-9 -44.5 -30.5 -74 q-21.5 -29.5 -57 -44.5 q-35.5 -15 -89.5 -15 q-54 0 -89.5 15 q-35.5 15 -57.5 44.5 q-22 29.5 -31 74 q-9 44.5 -9 103.5 ZM311 575 q0 92 -21 130 q-21 38 -73 38 q-50 0 -71.5 -38 q-21.5 -38 -21.5 -130 q0 -86 21.5 -121.5 q21.5 -35.5 71.5 -35.5 q52 0 73 35.5 q21 35.5 21 121.5 Z" /><glyph glyph-name="uni2074" unicode="&#x2074;" d="M238 346 l0 87 l-232 0 l0 70 l227 308 l97 0 l0 -308 l54 0 l0 -70 l-54 0 l0 -87 l-92 0 ZM238 712 l-152 -209 l152 0 l0 209 Z" /><glyph glyph-name="uni2075" unicode="&#x2075;" d="M146 744 l-17 -115 q14 11 37 19 q23 8 58 8 q38 0 66.5 -12 q28.5 -12 47 -33 q18.5 -21 28 -49 q9.5 -28 9.5 -61 q0 -33 -10 -62 q-10 -29 -31.5 -50.5 q-21.5 -21.5 -55 -33.5 q-33.5 -12 -80.5 -12 q-48 0 -82 12 q-34 12 -55.5 31 q-21.5 19 -31 43 q-9.5 24 -9.5 48 l92 0 q0 -10 5 -21.5 q5 -11.5 15.5 -21 q10.5 -9.5 27 -16 q16.5 -6.5 38.5 -6.5 q44 0 64.5 23.5 q20.5 23.5 20.5 65.5 q0 41 -21.5 66 q-21.5 25 -63.5 25 q-20 0 -34 -4.5 q-14 -4.5 -24 -10.5 q-10 -6 -15.5 -12.5 q-5.5 -6.5 -7.5 -9.5 l0 -2 l-1 0 l-84 1 l30 192 l-1 0 l9 66 l278 0 l0 -72 l-202 4 Z" /><glyph glyph-name="uni2076" unicode="&#x2076;" d="M293 687 q0 11 -4 23 q-4 12 -13.5 21.5 q-9.5 9.5 -24 16 q-14.5 6.5 -35.5 6.5 q-20 0 -35 -6.5 q-15 -6.5 -26 -23 q-11 -16.5 -18 -44.5 q-7 -28 -10 -71 q18 17 44 29 q26 12 66 12 q44 0 74.5 -12 q30.5 -12 49.5 -33 q19 -21 27.5 -49 q8.5 -28 8.5 -60 q0 -32 -9.5 -61 q-9.5 -29 -31 -50.5 q-21.5 -21.5 -56.5 -34 q-35 -12.5 -85 -12.5 q-99 -1 -141.5 53 q-42.5 54 -42.5 163 q0 74 10.5 125 q10.5 51 33 83 q22.5 32 57.5 46 q35 14 84 14 q46 0 78 -12.5 q32 -12.5 51 -32 q19 -19.5 27.5 -43.5 q8.5 -24 8.5 -47 l-88 0 ZM125 538 q2 -71 24 -101 q22 -30 67 -30 q45 0 66.5 24.5 q21.5 24.5 21.5 66.5 q0 44 -21.5 67.5 q-21.5 23.5 -62.5 23.5 q-38 0 -60.5 -16.5 q-22.5 -16.5 -34.5 -34.5 Z" /><glyph glyph-name="uni2077" unicode="&#x2077;" d="M69 346 q0 80 25 151 q25 71 56 125 q36 62 82 116 l-228 -3 l0 75 l326 0 l0 -75 q-45 -57 -80 -120 q-30 -55 -54.5 -124.5 q-24.5 -69.5 -24.5 -144.5 l-102 0 Z" /><glyph glyph-name="uni2078" unicode="&#x2078;" d="M309 598 q9 -1 23.5 -8.5 q14.5 -7.5 28.5 -21.5 q14 -14 24 -36.5 q10 -22.5 10 -53.5 q0 -32 -9 -57.5 q-9 -25.5 -30 -43.5 q-21 -18 -56 -28 q-35 -10 -86 -10 q-52 0 -87 10 q-35 10 -56.5 28 q-21.5 18 -30.5 43.5 q-9 25.5 -9 57.5 q0 31 10 53.5 q10 22.5 24 36.5 q14 14 28 21.5 q14 7.5 23 8.5 q-6 0 -17.5 6 q-11.5 6 -22.5 17 q-11 11 -19.5 29 q-8.5 18 -8.5 42 q0 28 8 52 q8 24 27.5 41.5 q19.5 17.5 51 27.5 q31.5 10 79.5 10 q47 0 78.5 -10 q31.5 -10 50.5 -27.5 q19 -17.5 27 -41.5 q8 -24 8 -52 q0 -24 -8.5 -42 q-8.5 -18 -19.5 -29 q-11 -11 -22.5 -17 q-11.5 -6 -18.5 -6 ZM301 487 q0 36 -20 59 q-20 23 -68 23 q-48 0 -67.5 -23 q-19.5 -23 -19.5 -59 q0 -39 21 -59.5 q21 -20.5 66 -20.5 q88 0 88 80 ZM291 685 q0 77 -78 77 q-78 0 -78 -77 q0 -29 18 -46.5 q18 -17.5 60 -17.5 q42 0 60 17.5 q18 17.5 18 46.5 Z" /><glyph glyph-name="uni2079" unicode="&#x2079;" d="M125 472 q0 -11 4.5 -22 q4.5 -11 14.5 -21 q10 -10 26.5 -16 q16.5 -6 40.5 -6 q20 0 35.5 5.5 q15.5 5.5 26.5 20 q11 14.5 18 40 q7 25.5 10 66.5 q-17 -17 -43.5 -28.5 q-26.5 -11.5 -65.5 -11.5 q-45 0 -75.5 12 q-30.5 12 -49.5 34 q-19 22 -27.5 52 q-8.5 30 -8.5 66 q0 33 9.5 61.5 q9.5 28.5 31.5 50.5 q22 22 56 34.5 q34 12.5 84 12.5 q99 1 142 -53.5 q43 -54.5 43 -169.5 q0 -74 -10 -124 q-10 -50 -32 -80.5 q-22 -30.5 -57.5 -43.5 q-35.5 -13 -86.5 -13 q-51 0 -84.5 12.5 q-33.5 12.5 -53.5 32 q-20 19.5 -28.5 43.5 q-8.5 24 -8.5 46 l89 0 ZM304 611 q-2 79 -24.5 110.5 q-22.5 31.5 -67.5 31.5 q-45 0 -66 -25 q-21 -25 -21 -68 q0 -100 83 -100 q38 0 61 16.5 q23 16.5 35 34.5 Z" /><glyph glyph-name="Euro" unicode="&#x20ac;" d="M564 186 q-2 -38 -15.5 -72.5 q-13.5 -34.5 -40.5 -61 q-27 -26.5 -67.5 -42 q-40.5 -15.5 -97.5 -15.5 q-61 0 -105 17 q-44 17 -74 48.5 q-30 31.5 -47.5 75.5 q-17.5 44 -25.5 98 l-61 0 l0 64 l55 0 q-1 13 -1 25.5 q0 12.5 0 26.5 q0 11 0 22 q0 11 1 22 l-55 0 l0 64 l60 0 q7 55 24.5 101 q17.5 46 47.5 79 q30 33 74.5 51 q44.5 18 106.5 18 q58 0 100 -17 q42 -17 69 -45 q27 -28 40 -65 q13 -37 15 -77 l-93 0 q-4 48 -39 80.5 q-35 32.5 -92 32.5 q-67 0 -104 -41 q-37 -41 -50 -117 l179 0 l0 -64 l-185 0 q0 -11 -0.5 -22 q-0.5 -11 -0.5 -22 q0 -14 0 -27 q0 -13 1 -25 l185 0 l0 -64 l-177 0 q14 -72 50 -110 q36 -38 102 -38 q53 0 88.5 29 q35.5 29 40.5 71 l92 0 Z" /><glyph glyph-name="uni20BD" unicode="&#x20bd;" d="M217 144 l0 -145 l-103 0 l0 145 l-84 0 l0 77 l84 0 l0 74 l-84 0 l0 85 l84 -1 l0 336 l194 0 q74 0 127.5 -10 q53.5 -10 88.5 -35 q35 -25 51.5 -66 q16.5 -41 16.5 -103 q0 -59 -16.5 -98.5 q-16.5 -39.5 -51.5 -63.5 q-35 -24 -89 -34 q-54 -10 -129 -10 l-89 0 l0 -74 l163 0 l0 -77 l-163 0 ZM306 379 q40 0 74 4 q34 4 58 17 q24 13 37.5 37 q13.5 24 13.5 65 q0 40 -13.5 64.5 q-13.5 24.5 -37.5 37 q-24 12.5 -58 16.5 q-34 4 -74 4 l-89 0 l0 -245 l89 0 Z" /><glyph glyph-name="uni2116" unicode="&#x2116;" d="M560 -1 l0 1 l-29 -1 l-354 576 l9 -575 l-98 0 l2 712 l85 0 l0 -2 l28 2 l354 -575 l-10 575 l98 0 l0 -713 l-85 0 ZM936 134 q-59 0 -98 16 q-39 16 -62 45.5 q-23 29.5 -32 71.5 q-9 42 -9 95 q0 52 9 94.5 q9 42.5 32 72.5 q23 30 62 46.5 q39 16.5 98 16.5 q59 0 98 -16.5 q39 -16.5 62 -46.5 q23 -30 32 -72.5 q9 -42.5 9 -94.5 q0 -53 -9 -95 q-9 -42 -32 -71.5 q-23 -29.5 -62 -45.5 q-39 -16 -98 -16 ZM935 212 q61 0 84.5 38 q23.5 38 23.5 112 q0 73 -24 112.5 q-24 39.5 -84 39.5 q-59 0 -82.5 -39.5 q-23.5 -39.5 -23.5 -112.5 q0 -74 23.5 -112 q23.5 -38 82.5 -38 ZM738 0 l0 78 l407 0 l0 -78 l-407 0 Z" /><glyph glyph-name="uni2117" unicode="&#x2117;" d="M408 -20 q-97 0 -163.5 29.5 q-66.5 29.5 -107.5 79.5 q-41 50 -59 117 q-18 67 -18 142 q0 75 18 143 q18 68 59 119 q41 51 107.5 81 q66.5 30 163.5 30 q98 0 165 -30 q67 -30 108 -81 q41 -51 58.5 -119 q17.5 -68 17.5 -143 q0 -75 -17.5 -142 q-17.5 -67 -58.5 -117 q-41 -50 -108 -79.5 q-67 -29.5 -165 -29.5 ZM408 36 q81 0 135.5 26.5 q54.5 26.5 87 70 q32.5 43.5 46 99.5 q13.5 56 13.5 116 q0 60 -13.5 117 q-13.5 57 -46 101.5 q-32.5 44.5 -87 71.5 q-54.5 27 -135.5 27 q-81 0 -135 -27 q-54 -27 -86.5 -71.5 q-32.5 -44.5 -46.5 -101.5 q-14 -57 -14 -117 q0 -60 14 -116 q14 -56 46.5 -99.5 q32.5 -43.5 86.5 -70 q54 -26.5 135 -26.5 ZM255 140 l0 414 l158 0 q48 0 82 -7 q34 -7 56.5 -24 q22.5 -17 33 -45.5 q10.5 -28.5 10.5 -72.5 q0 -44 -11 -72.5 q-11 -28.5 -33.5 -45 q-22.5 -16.5 -57 -23.5 q-34.5 -7 -82.5 -7 l-65 0 l0 -117 l-91 0 ZM411 330 q18 0 34.5 2 q16.5 2 29 9.5 q12.5 7.5 19.5 22.5 q7 15 7 41 q0 27 -7 42 q-7 15 -19.5 22.5 q-12.5 7.5 -29 9.5 q-16.5 2 -34.5 2 l-65 0 l0 -151 l65 0 Z" /><glyph glyph-name="uni2120" unicode="&#x2120;" d="M629 375 l3 273 l-101 -274 l-55 0 l-95 275 l3 -274 l-51 0 l0 340 l79 0 l96 -277 l98 277 l79 0 l-1 -340 l-55 0 ZM223 624 q0 10 -3.5 20 q-3.5 10 -11.5 18.5 q-8 8.5 -22.5 14 q-14.5 5.5 -35.5 5.5 q-39 0 -55 -16 q-16 -16 -16 -33 q0 -24 15 -35.5 q15 -11.5 38 -18 q23 -6.5 49 -11 q26 -4.5 49 -15 q23 -10.5 38 -31 q15 -20.5 15 -57.5 q0 -48 -33 -73.5 q-33 -25.5 -100 -25.5 q-68 0 -99 27 q-31 27 -31 88 l52 0 q0 -32 19.5 -50 q19.5 -18 57.5 -18 q38 0 58 15 q20 15 20 35 q0 26 -15 38.5 q-15 12.5 -37.5 19 q-22.5 6.5 -48.5 11 q-26 4.5 -48.5 15 q-22.5 10.5 -37.5 30.5 q-15 20 -15 58 q0 44 29 69 q29 25 95 25 q70 0 97.5 -28 q27.5 -28 27.5 -77 l-51 0 Z" /><glyph glyph-name="trademark" unicode="&#x2122;" d="M589 375 l3 273 l-101 -274 l-55 0 l-96 273 l3 -272 l-50 0 l0 340 l81 0 l94 -278 l98 278 l78 0 l-1 -340 l-54 0 ZM98 375 l1 296 l-99 0 l0 49 l252 0 l0 -49 l-100 0 l-1 -296 l-53 0 Z" /><glyph glyph-name="arrowleft" unicode="&#x2190;" d="M223 246 l188 -144 l-53 -65 l-321 253 l322 259 l52 -63 l-190 -146 l469 4 l1 -103 l-468 5 Z" /><glyph glyph-name="arrowup" unicode="&#x2191;" d="M242 -18 l4 467 l-145 -188 l-64 53 l254 320 l258 -320 l-64 -53 l-146 189 l4 -468 l-101 0 Z" /><glyph glyph-name="arrowright" unicode="&#x2192;" d="M369 53 l-52 64 l188 145 l-468 -4 l0 102 l469 -5 l-189 146 l52 64 l321 -254 l-321 -258 Z" /><glyph glyph-name="arrowdown" unicode="&#x2193;" d="M37 297 l64 52 l146 -190 l-4 469 l102 1 l-5 -468 l145 188 l65 -52 l-254 -322 l-259 322 Z" /><glyph glyph-name="arrowboth" unicode="&#x2194;" d="M664 22 l-53 65 l186 143 l-575 1 l189 -144 l-53 -65 l-321 253 l322 259 l52 -63 l-191 -147 l580 1 l-189 146 l52 63 l322 -259 l-321 -253 Z" /><glyph glyph-name="arrowupdn" unicode="&#x2195;" d="M290 -184 l0 -9 l-253 321 l65 52 l143 -186 l2 576 l-145 -189 l-65 52 l253 321 l0 -9 l1 9 l258 -321 l-63 -53 l-147 190 l2 -577 l145 188 l63 -53 l-258 -321 l-1 9 Z" /><glyph glyph-name="uni2196" unicode="&#x2196;" d="M147 354 l31 -234 l-83 -8 l-48 406 l410 -45 l-8 -81 l-237 31 l334 -329 l-72 -72 l-327 332 Z" /><glyph glyph-name="uni2197" unicode="&#x2197;" d="M396 119 l30 236 l-327 -334 l-72 72 l334 327 l-236 -30 l-8 82 l406 48 l-44 -410 l-83 9 Z" /><glyph glyph-name="uni2198" unicode="&#x2198;" d="M116 78 l8 82 l237 -31 l-334 329 l71 71 l328 -333 l-30 235 l82 9 l48 -407 l-410 45 Z" /><glyph glyph-name="uni2199" unicode="&#x2199;" d="M47 30 l44 410 l82 -8 l-31 -237 l329 334 l72 -72 l-334 -327 l236 30 l8 -82 l-406 -48 Z" /><glyph glyph-name="minus" unicode="&#x2212;" d="M34 282 l0 85 l371 0 l0 -85 l-371 0 Z" /><glyph glyph-name="infinity" unicode="&#x221e;" d="M382 247 q-15 -21 -32 -40 q-17 -19 -38 -33.5 q-21 -14.5 -47 -23 q-26 -8.5 -59 -8.5 q-47 0 -79.5 12 q-32.5 12 -53 33 q-20.5 21 -30 51 q-9.5 30 -9.5 66 q0 36 9.5 66 q9.5 30 30 51 q20.5 21 53 33 q32.5 12 79.5 12 q33 0 59 -8.5 q26 -8.5 47 -23 q21 -14.5 38 -33.5 q17 -19 32 -40 q15 21 32.5 40 q17.5 19 38.5 33.5 q21 14.5 47 23 q26 8.5 59 8.5 q46 0 79 -12 q33 -12 53.5 -33 q20.5 -21 30 -51 q9.5 -30 9.5 -66 q0 -36 -9.5 -66 q-9.5 -30 -30 -51 q-20.5 -21 -53.5 -33 q-33 -12 -79 -12 q-33 0 -59 8.5 q-26 8.5 -47 23 q-21 14.5 -38.5 33.5 q-17.5 19 -32.5 40 ZM422 304 q13 -19 27.5 -36 q14.5 -17 30.5 -29.5 q16 -12.5 35.5 -20 q19.5 -7.5 43.5 -7.5 q52 0 72.5 26 q20.5 26 20.5 67 q0 20 -4.5 37 q-4.5 17 -15.5 29.5 q-11 12.5 -29 19.5 q-18 7 -44 7 q-24 0 -43.5 -7.5 q-19.5 -7.5 -35.5 -20.5 q-16 -13 -30.5 -29.5 q-14.5 -16.5 -27.5 -35.5 ZM343 304 q-14 19 -28 35.5 q-14 16.5 -30.5 29.5 q-16.5 13 -35.5 20.5 q-19 7.5 -43 7.5 q-53 0 -73 -26.5 q-20 -26.5 -20 -66.5 q0 -20 4.5 -37 q4.5 -17 15.5 -29.5 q11 -12.5 29 -19.5 q18 -7 44 -7 q24 0 43 7.5 q19 7.5 35.5 20 q16.5 12.5 30.5 29.5 q14 17 28 36 Z" /><glyph glyph-name="approxequal" unicode="&#x2248;" d="M469 293 q0 -22 -4.5 -46 q-4.5 -24 -18 -44.5 q-13.5 -20.5 -38.5 -33.5 q-25 -13 -65 -13 q-34 0 -55.5 8.5 q-21.5 8.5 -40 19 q-18.5 10.5 -38 19 q-19.5 8.5 -48.5 8.5 q-17 0 -29 -6.5 q-12 -6.5 -19.5 -15.5 q-7.5 -9 -11 -18 q-3.5 -9 -3.5 -15 l-64 0 q0 22 4.5 46 q4.5 24 18 44.5 q13.5 20.5 38.5 33.5 q25 13 66 13 q34 0 55.5 -8.5 q21.5 -8.5 40 -19 q18.5 -10.5 38 -19 q19.5 -8.5 48.5 -8.5 q17 0 28.5 6.5 q11.5 6.5 19 15.5 q7.5 9 11 18 q3.5 9 3.5 15 l64 0 ZM469 465 q0 -22 -4.5 -46.5 q-4.5 -24.5 -18 -44.5 q-13.5 -20 -38.5 -33.5 q-25 -13.5 -65 -13.5 q-34 0 -55.5 8.5 q-21.5 8.5 -40 19 q-18.5 10.5 -38 19 q-19.5 8.5 -48.5 8.5 q-17 0 -29 -6.5 q-12 -6.5 -19.5 -15.5 q-7.5 -9 -11 -18 q-3.5 -9 -3.5 -15 l-64 0 q0 22 4.5 46.5 q4.5 24.5 18 44.5 q13.5 20 38.5 33.5 q25 13.5 66 13.5 q34 0 55.5 -8.5 q21.5 -8.5 40 -19 q18.5 -10.5 38 -19 q19.5 -8.5 48.5 -8.5 q17 0 28.5 6.5 q11.5 6.5 19 15.5 q7.5 9 11 18 q3.5 9 3.5 15 l64 0 Z" /><glyph glyph-name="notequal" unicode="&#x2260;" d="M199 183 l-52 -90 l-76 0 l52 90 l-86 0 l0 85 l135 0 l48 84 l-183 0 l0 84 l232 0 l48 83 l76 0 l-48 -83 l94 0 l0 -84 l-143 0 l-48 -84 l191 0 l0 -85 l-240 0 Z" /><glyph glyph-name="lessequal" unicode="&#x2264;" d="M47 345 l0 85 l412 141 l0 -91 l-326 -93 l326 -100 l0 -91 l-412 149 ZM54 78 l0 85 l402 0 l0 -85 l-402 0 Z" /><glyph glyph-name="greaterequal" unicode="&#x2265;" d="M54 196 l0 91 l326 100 l-326 93 l0 91 l412 -141 l0 -85 l-412 -149 ZM57 78 l0 85 l402 0 l0 -85 l-402 0 Z" /><glyph glyph-name="fi" unicode="&#xfb01;" d="M94 0 l0 458 l-74 0 l0 81 l74 0 l0 14 q0 45 5.5 83.5 q5.5 38.5 23.5 67.5 q18 29 52 45.5 q34 16.5 92 16.5 l56 0 l0 -81 l-43 0 q-49 0 -67.5 -29.5 q-18.5 -29.5 -18.5 -102.5 l0 -14 l120 0 l0 -81 l-120 0 l0 -458 l-100 0 ZM378 0 l0 539 l100 0 l0 -539 l-100 0 ZM380 622 l0 141 l100 0 l0 -141 l-100 0 Z" /><glyph glyph-name="fl" unicode="&#xfb02;" d="M94 0 l0 458 l-74 0 l0 81 l74 0 l0 14 q0 45 5.5 83.5 q5.5 38.5 23.5 67.5 q18 29 52 45.5 q34 16.5 92 16.5 l56 0 l0 -81 l-43 0 q-49 0 -67.5 -29.5 q-18.5 -29.5 -18.5 -102.5 l0 -14 l120 0 l0 -81 l-120 0 l0 -458 l-100 0 ZM375 0 l0 760 l100 0 l0 -760 l-100 0 Z" /></font>
</defs>
</svg>
